%TF.GenerationSoftware,KiCad,Pcbnew,(6.0.7-1)-1*%
%TF.CreationDate,2022-10-12T18:16:21+11:00*%
%TF.ProjectId,CAT emulator B,43415420-656d-4756-9c61-746f7220422e,rev?*%
%TF.SameCoordinates,Original*%
%TF.FileFunction,Soldermask,Bot*%
%TF.FilePolarity,Negative*%
%FSLAX46Y46*%
G04 Gerber Fmt 4.6, Leading zero omitted, Abs format (unit mm)*
G04 Created by KiCad (PCBNEW (6.0.7-1)-1) date 2022-10-12 18:16:21*
%MOMM*%
%LPD*%
G01*
G04 APERTURE LIST*
%ADD10R,1.700000X1.700000*%
%ADD11O,1.700000X1.700000*%
%ADD12C,1.600000*%
%ADD13O,1.600000X1.600000*%
%ADD14R,1.600000X2.400000*%
%ADD15O,1.600000X2.400000*%
%ADD16R,1.200000X1.200000*%
%ADD17C,1.200000*%
G04 APERTURE END LIST*
D10*
%TO.C,J2*%
X254426000Y-103180000D03*
D11*
X254426000Y-100640000D03*
X254426000Y-98100000D03*
X254426000Y-95560000D03*
X254426000Y-93020000D03*
X254426000Y-90480000D03*
X254426000Y-87940000D03*
X254426000Y-85400000D03*
X254426000Y-82860000D03*
X254426000Y-80320000D03*
%TD*%
D10*
%TO.C,J4*%
X165826000Y-103180000D03*
D11*
X165826000Y-100640000D03*
X165826000Y-98100000D03*
X165826000Y-95560000D03*
X165826000Y-93020000D03*
X165826000Y-90480000D03*
X165826000Y-87940000D03*
X165826000Y-85400000D03*
X165826000Y-82860000D03*
X165826000Y-80320000D03*
%TD*%
D10*
%TO.C,J3*%
X162026000Y-103180000D03*
D11*
X162026000Y-100640000D03*
X162026000Y-98100000D03*
X162026000Y-95560000D03*
X162026000Y-93020000D03*
X162026000Y-90480000D03*
X162026000Y-87940000D03*
X162026000Y-85400000D03*
X162026000Y-82860000D03*
X162026000Y-80320000D03*
%TD*%
D12*
%TO.C,R2*%
X251206000Y-95902000D03*
D13*
X251206000Y-108902000D03*
%TD*%
D14*
%TO.C,U18*%
X194056000Y-115570000D03*
D15*
X191516000Y-115570000D03*
X188976000Y-115570000D03*
X186436000Y-115570000D03*
X183896000Y-115570000D03*
X181356000Y-115570000D03*
X178816000Y-115570000D03*
X178816000Y-107950000D03*
X181356000Y-107950000D03*
X183896000Y-107950000D03*
X186436000Y-107950000D03*
X188976000Y-107950000D03*
X191516000Y-107950000D03*
X194056000Y-107950000D03*
%TD*%
D12*
%TO.C,C9*%
X222036000Y-100330000D03*
X227036000Y-100330000D03*
%TD*%
%TO.C,C2*%
X234910000Y-114808000D03*
X229910000Y-114808000D03*
%TD*%
%TO.C,C3*%
X219456000Y-114808000D03*
X224456000Y-114808000D03*
%TD*%
%TO.C,R1*%
X196960000Y-105156000D03*
D13*
X183960000Y-105156000D03*
%TD*%
D14*
%TO.C,U14*%
X246385000Y-94249000D03*
D15*
X243845000Y-94249000D03*
X241305000Y-94249000D03*
X238765000Y-94249000D03*
X236225000Y-94249000D03*
X233685000Y-94249000D03*
X231145000Y-94249000D03*
X231145000Y-86629000D03*
X233685000Y-86629000D03*
X236225000Y-86629000D03*
X238765000Y-86629000D03*
X241305000Y-86629000D03*
X243845000Y-86629000D03*
X246385000Y-86629000D03*
%TD*%
D12*
%TO.C,R4*%
X213106000Y-83820000D03*
D13*
X226106000Y-83820000D03*
%TD*%
D14*
%TO.C,U10*%
X217683000Y-94249000D03*
D15*
X215143000Y-94249000D03*
X212603000Y-94249000D03*
X210063000Y-94249000D03*
X207523000Y-94249000D03*
X204983000Y-94249000D03*
X202443000Y-94249000D03*
X202443000Y-86629000D03*
X204983000Y-86629000D03*
X207523000Y-86629000D03*
X210063000Y-86629000D03*
X212603000Y-86629000D03*
X215143000Y-86629000D03*
X217683000Y-86629000D03*
%TD*%
D14*
%TO.C,U3*%
X194041000Y-102377000D03*
D15*
X191501000Y-102377000D03*
X188961000Y-102377000D03*
X186421000Y-102377000D03*
X183881000Y-102377000D03*
X181341000Y-102377000D03*
X178801000Y-102377000D03*
X176261000Y-102377000D03*
X176261000Y-94757000D03*
X178801000Y-94757000D03*
X181341000Y-94757000D03*
X183881000Y-94757000D03*
X186421000Y-94757000D03*
X188961000Y-94757000D03*
X191501000Y-94757000D03*
X194041000Y-94757000D03*
%TD*%
D12*
%TO.C,C10*%
X212344000Y-111506000D03*
X207344000Y-111506000D03*
%TD*%
D14*
%TO.C,U15*%
X246385000Y-80533000D03*
D15*
X243845000Y-80533000D03*
X241305000Y-80533000D03*
X238765000Y-80533000D03*
X236225000Y-80533000D03*
X233685000Y-80533000D03*
X231145000Y-80533000D03*
X231145000Y-72913000D03*
X233685000Y-72913000D03*
X236225000Y-72913000D03*
X238765000Y-72913000D03*
X241305000Y-72913000D03*
X243845000Y-72913000D03*
X246385000Y-72913000D03*
%TD*%
D16*
%TO.C,C5*%
X194056000Y-119927401D03*
D17*
X194056000Y-121427401D03*
%TD*%
D12*
%TO.C,R5*%
X197104000Y-83820000D03*
D13*
X210104000Y-83820000D03*
%TD*%
D14*
%TO.C,U11*%
X217683000Y-108219000D03*
D15*
X215143000Y-108219000D03*
X212603000Y-108219000D03*
X210063000Y-108219000D03*
X207523000Y-108219000D03*
X204983000Y-108219000D03*
X202443000Y-108219000D03*
X202443000Y-100599000D03*
X204983000Y-100599000D03*
X207523000Y-100599000D03*
X210063000Y-100599000D03*
X212603000Y-100599000D03*
X215143000Y-100599000D03*
X217683000Y-100599000D03*
%TD*%
D12*
%TO.C,C7*%
X221782000Y-77978000D03*
X226782000Y-77978000D03*
%TD*%
%TO.C,R3*%
X222758000Y-111252000D03*
D13*
X235758000Y-111252000D03*
%TD*%
D14*
%TO.C,U13*%
X217678000Y-80518000D03*
D15*
X215138000Y-80518000D03*
X212598000Y-80518000D03*
X210058000Y-80518000D03*
X207518000Y-80518000D03*
X204978000Y-80518000D03*
X202438000Y-80518000D03*
X202438000Y-72898000D03*
X204978000Y-72898000D03*
X207518000Y-72898000D03*
X210058000Y-72898000D03*
X212598000Y-72898000D03*
X215138000Y-72898000D03*
X217678000Y-72898000D03*
%TD*%
D14*
%TO.C,U12*%
X246385000Y-108219000D03*
D15*
X243845000Y-108219000D03*
X241305000Y-108219000D03*
X238765000Y-108219000D03*
X236225000Y-108219000D03*
X233685000Y-108219000D03*
X231145000Y-108219000D03*
X231145000Y-100599000D03*
X233685000Y-100599000D03*
X236225000Y-100599000D03*
X238765000Y-100599000D03*
X241305000Y-100599000D03*
X243845000Y-100599000D03*
X246385000Y-100599000D03*
%TD*%
M02*
