%TF.GenerationSoftware,KiCad,Pcbnew,(6.0.7-1)-1*%
%TF.CreationDate,2022-10-12T18:16:21+11:00*%
%TF.ProjectId,CAT emulator B,43415420-656d-4756-9c61-746f7220422e,rev?*%
%TF.SameCoordinates,Original*%
%TF.FileFunction,Profile,NP*%
%FSLAX46Y46*%
G04 Gerber Fmt 4.6, Leading zero omitted, Abs format (unit mm)*
G04 Created by KiCad (PCBNEW (6.0.7-1)-1) date 2022-10-12 18:16:21*
%MOMM*%
%LPD*%
G01*
G04 APERTURE LIST*
%TA.AperFunction,Profile*%
%ADD10C,0.100000*%
%TD*%
G04 APERTURE END LIST*
D10*
X209976000Y-130380000D02*
X209976000Y-127780000D01*
X164626000Y-69280000D02*
G75*
G03*
X164626000Y-69280000I-1150000J0D01*
G01*
X209976000Y-127780000D02*
X207476000Y-127780000D01*
X253426000Y-115380000D02*
G75*
G03*
X253426000Y-115380000I-4500000J0D01*
G01*
X167326000Y-127780000D02*
X167326000Y-130380000D01*
X250126000Y-127780000D02*
X247626000Y-127780000D01*
X169826000Y-130380000D02*
X169826000Y-127780000D01*
X169826000Y-130380000D02*
X207476000Y-130380000D01*
X207476000Y-127780000D02*
X207476000Y-130380000D01*
X173026000Y-115380000D02*
G75*
G03*
X173026000Y-115380000I-4500000J0D01*
G01*
X250126000Y-130380000D02*
X250126000Y-127780000D01*
X169826000Y-127780000D02*
X167326000Y-127780000D01*
X209976000Y-130380000D02*
X247626000Y-130380000D01*
X259026000Y-64880000D02*
X158426000Y-64880000D01*
X158426000Y-64880000D02*
X158426000Y-130380000D01*
X259026000Y-130380000D02*
X259026000Y-64880000D01*
X255126000Y-69280000D02*
G75*
G03*
X255126000Y-69280000I-1150000J0D01*
G01*
X247626000Y-127780000D02*
X247626000Y-130380000D01*
X250126000Y-130380000D02*
X259026000Y-130380000D01*
X158426000Y-130380000D02*
X167326000Y-130380000D01*
M02*
