%TF.GenerationSoftware,KiCad,Pcbnew,(6.0.7-1)-1*%
%TF.CreationDate,2022-10-12T18:16:20+11:00*%
%TF.ProjectId,CAT emulator B,43415420-656d-4756-9c61-746f7220422e,rev?*%
%TF.SameCoordinates,Original*%
%TF.FileFunction,Copper,L2,Bot*%
%TF.FilePolarity,Positive*%
%FSLAX46Y46*%
G04 Gerber Fmt 4.6, Leading zero omitted, Abs format (unit mm)*
G04 Created by KiCad (PCBNEW (6.0.7-1)-1) date 2022-10-12 18:16:20*
%MOMM*%
%LPD*%
G01*
G04 APERTURE LIST*
%ADD10C,0.250000*%
%TA.AperFunction,NonConductor*%
%ADD11C,0.250000*%
%TD*%
%TA.AperFunction,ComponentPad*%
%ADD12R,1.700000X1.700000*%
%TD*%
%TA.AperFunction,ComponentPad*%
%ADD13O,1.700000X1.700000*%
%TD*%
%TA.AperFunction,ComponentPad*%
%ADD14C,1.600000*%
%TD*%
%TA.AperFunction,ComponentPad*%
%ADD15O,1.600000X1.600000*%
%TD*%
%TA.AperFunction,ComponentPad*%
%ADD16R,1.600000X2.400000*%
%TD*%
%TA.AperFunction,ComponentPad*%
%ADD17O,1.600000X2.400000*%
%TD*%
%TA.AperFunction,ComponentPad*%
%ADD18R,1.200000X1.200000*%
%TD*%
%TA.AperFunction,ComponentPad*%
%ADD19C,1.200000*%
%TD*%
%TA.AperFunction,ViaPad*%
%ADD20C,0.800000*%
%TD*%
%TA.AperFunction,Conductor*%
%ADD21C,1.000000*%
%TD*%
%TA.AperFunction,Conductor*%
%ADD22C,0.250000*%
%TD*%
G04 APERTURE END LIST*
D10*
D11*
X188130476Y-69302380D02*
X187474285Y-69302380D01*
X187827619Y-69683333D01*
X187676190Y-69683333D01*
X187575238Y-69730952D01*
X187524761Y-69778571D01*
X187474285Y-69873809D01*
X187474285Y-70111904D01*
X187524761Y-70207142D01*
X187575238Y-70254761D01*
X187676190Y-70302380D01*
X187979047Y-70302380D01*
X188080000Y-70254761D01*
X188130476Y-70207142D01*
X186515238Y-69302380D02*
X187020000Y-69302380D01*
X187070476Y-69778571D01*
X187020000Y-69730952D01*
X186919047Y-69683333D01*
X186666666Y-69683333D01*
X186565714Y-69730952D01*
X186515238Y-69778571D01*
X186464761Y-69873809D01*
X186464761Y-70111904D01*
X186515238Y-70207142D01*
X186565714Y-70254761D01*
X186666666Y-70302380D01*
X186919047Y-70302380D01*
X187020000Y-70254761D01*
X187070476Y-70207142D01*
X185000952Y-69302380D02*
X184900000Y-69302380D01*
X184799047Y-69350000D01*
X184748571Y-69397619D01*
X184698095Y-69492857D01*
X184647619Y-69683333D01*
X184647619Y-69921428D01*
X184698095Y-70111904D01*
X184748571Y-70207142D01*
X184799047Y-70254761D01*
X184900000Y-70302380D01*
X185000952Y-70302380D01*
X185101904Y-70254761D01*
X185152380Y-70207142D01*
X185202857Y-70111904D01*
X185253333Y-69921428D01*
X185253333Y-69683333D01*
X185202857Y-69492857D01*
X185152380Y-69397619D01*
X185101904Y-69350000D01*
X185000952Y-69302380D01*
X183739047Y-69302380D02*
X183940952Y-69302380D01*
X184041904Y-69350000D01*
X184092380Y-69397619D01*
X184193333Y-69540476D01*
X184243809Y-69730952D01*
X184243809Y-70111904D01*
X184193333Y-70207142D01*
X184142857Y-70254761D01*
X184041904Y-70302380D01*
X183840000Y-70302380D01*
X183739047Y-70254761D01*
X183688571Y-70207142D01*
X183638095Y-70111904D01*
X183638095Y-69873809D01*
X183688571Y-69778571D01*
X183739047Y-69730952D01*
X183840000Y-69683333D01*
X184041904Y-69683333D01*
X184142857Y-69730952D01*
X184193333Y-69778571D01*
X184243809Y-69873809D01*
X182729523Y-69635714D02*
X182729523Y-70302380D01*
X182981904Y-69254761D02*
X183234285Y-69969047D01*
X182578095Y-69969047D01*
X181619047Y-70302380D02*
X182224761Y-70302380D01*
X181921904Y-70302380D02*
X181921904Y-69302380D01*
X182022857Y-69445238D01*
X182123809Y-69540476D01*
X182224761Y-69588095D01*
X180155238Y-69302380D02*
X180054285Y-69302380D01*
X179953333Y-69350000D01*
X179902857Y-69397619D01*
X179852380Y-69492857D01*
X179801904Y-69683333D01*
X179801904Y-69921428D01*
X179852380Y-70111904D01*
X179902857Y-70207142D01*
X179953333Y-70254761D01*
X180054285Y-70302380D01*
X180155238Y-70302380D01*
X180256190Y-70254761D01*
X180306666Y-70207142D01*
X180357142Y-70111904D01*
X180407619Y-69921428D01*
X180407619Y-69683333D01*
X180357142Y-69492857D01*
X180306666Y-69397619D01*
X180256190Y-69350000D01*
X180155238Y-69302380D01*
X178792380Y-70302380D02*
X179398095Y-70302380D01*
X179095238Y-70302380D02*
X179095238Y-69302380D01*
X179196190Y-69445238D01*
X179297142Y-69540476D01*
X179398095Y-69588095D01*
X176823809Y-69302380D02*
X176117142Y-69302380D01*
X176571428Y-70302380D01*
X175511428Y-69302380D02*
X175410476Y-69302380D01*
X175309523Y-69350000D01*
X175259047Y-69397619D01*
X175208571Y-69492857D01*
X175158095Y-69683333D01*
X175158095Y-69921428D01*
X175208571Y-70111904D01*
X175259047Y-70207142D01*
X175309523Y-70254761D01*
X175410476Y-70302380D01*
X175511428Y-70302380D01*
X175612380Y-70254761D01*
X175662857Y-70207142D01*
X175713333Y-70111904D01*
X175763809Y-69921428D01*
X175763809Y-69683333D01*
X175713333Y-69492857D01*
X175662857Y-69397619D01*
X175612380Y-69350000D01*
X175511428Y-69302380D01*
X174501904Y-69302380D02*
X174400952Y-69302380D01*
X174300000Y-69350000D01*
X174249523Y-69397619D01*
X174199047Y-69492857D01*
X174148571Y-69683333D01*
X174148571Y-69921428D01*
X174199047Y-70111904D01*
X174249523Y-70207142D01*
X174300000Y-70254761D01*
X174400952Y-70302380D01*
X174501904Y-70302380D01*
X174602857Y-70254761D01*
X174653333Y-70207142D01*
X174703809Y-70111904D01*
X174754285Y-69921428D01*
X174754285Y-69683333D01*
X174703809Y-69492857D01*
X174653333Y-69397619D01*
X174602857Y-69350000D01*
X174501904Y-69302380D01*
X173239999Y-69635714D02*
X173239999Y-70302380D01*
X173492380Y-69254761D02*
X173744761Y-69969047D01*
X173088571Y-69969047D01*
X172785714Y-69302380D02*
X172079047Y-69302380D01*
X172533333Y-70302380D01*
X171776190Y-69302380D02*
X171069523Y-69302380D01*
X171523809Y-70302380D01*
X170059999Y-70207142D02*
X170110476Y-70254761D01*
X170261904Y-70302380D01*
X170362857Y-70302380D01*
X170514285Y-70254761D01*
X170615238Y-70159523D01*
X170665714Y-70064285D01*
X170716190Y-69873809D01*
X170716190Y-69730952D01*
X170665714Y-69540476D01*
X170615238Y-69445238D01*
X170514285Y-69350000D01*
X170362857Y-69302380D01*
X170261904Y-69302380D01*
X170110476Y-69350000D01*
X170059999Y-69397619D01*
%TO.C,G\u002A\u002A\u002A*%
G36*
X238954420Y-121653492D02*
G01*
X238969816Y-121744214D01*
X238982936Y-121842828D01*
X238966173Y-121931320D01*
X238951262Y-121970441D01*
X238971833Y-122025936D01*
X238985763Y-122037318D01*
X238995684Y-122084722D01*
X238990091Y-122097456D01*
X238979528Y-122156082D01*
X238972665Y-122262045D01*
X238969249Y-122424665D01*
X238969022Y-122653265D01*
X238971729Y-122957167D01*
X238974451Y-123183298D01*
X238975574Y-123351823D01*
X238973533Y-123463668D01*
X238966920Y-123533174D01*
X238954327Y-123574681D01*
X238934345Y-123602527D01*
X238905568Y-123631052D01*
X238867797Y-123682688D01*
X238832779Y-123785958D01*
X238831691Y-123796892D01*
X238806293Y-123866635D01*
X238743547Y-123919304D01*
X238634025Y-123957187D01*
X238468303Y-123982572D01*
X238236954Y-123997748D01*
X237930552Y-124005004D01*
X237797861Y-124007014D01*
X237587626Y-124012271D01*
X237417724Y-124019176D01*
X237302932Y-124027064D01*
X237258029Y-124035270D01*
X237242034Y-124041721D01*
X237158924Y-124050374D01*
X237024996Y-124054869D01*
X236862199Y-124055472D01*
X236692480Y-124052451D01*
X236537789Y-124046075D01*
X236420073Y-124036611D01*
X236361282Y-124024327D01*
X236339206Y-124017418D01*
X236246078Y-124015487D01*
X236120397Y-124031316D01*
X236115349Y-124032153D01*
X236026051Y-124039157D01*
X235862167Y-124045496D01*
X235632742Y-124051047D01*
X235346823Y-124055687D01*
X235013456Y-124059291D01*
X234641686Y-124061738D01*
X234240559Y-124062903D01*
X233819121Y-124062664D01*
X233814649Y-124062654D01*
X233330361Y-124061610D01*
X232923333Y-124060383D01*
X232586218Y-124058225D01*
X232311675Y-124054389D01*
X232092358Y-124048128D01*
X231920924Y-124038693D01*
X231790029Y-124025338D01*
X231692330Y-124007316D01*
X231620481Y-123983879D01*
X231567141Y-123954279D01*
X231524964Y-123917770D01*
X231486607Y-123873604D01*
X231444725Y-123821033D01*
X231401844Y-123764010D01*
X231353862Y-123674983D01*
X231325917Y-123567939D01*
X231313138Y-123420720D01*
X231310653Y-123211167D01*
X231311230Y-123057084D01*
X231311612Y-122806140D01*
X231310722Y-122623028D01*
X231308280Y-122496522D01*
X231304000Y-122415393D01*
X231297601Y-122368413D01*
X231288798Y-122344356D01*
X231283443Y-122329357D01*
X231309333Y-122279834D01*
X231323364Y-122268210D01*
X231332420Y-122219440D01*
X231318787Y-122169385D01*
X231313651Y-122113581D01*
X231844427Y-122113581D01*
X231845982Y-122419344D01*
X231846486Y-122472759D01*
X231850263Y-122737302D01*
X231855689Y-122974808D01*
X231862296Y-123170868D01*
X231869616Y-123311077D01*
X231877183Y-123381027D01*
X231918612Y-123450863D01*
X232039034Y-123509167D01*
X232039380Y-123509248D01*
X232101871Y-123514371D01*
X232238364Y-123519361D01*
X232440045Y-123524173D01*
X232698098Y-123528757D01*
X233003710Y-123533067D01*
X233348065Y-123537055D01*
X233722349Y-123540672D01*
X234117748Y-123543872D01*
X234525446Y-123546606D01*
X234936629Y-123548828D01*
X235342483Y-123550488D01*
X235734193Y-123551540D01*
X236102944Y-123551935D01*
X236439922Y-123551626D01*
X236736312Y-123550566D01*
X236983300Y-123548706D01*
X237172070Y-123546000D01*
X237293809Y-123542398D01*
X237339702Y-123537854D01*
X237339815Y-123537751D01*
X237387085Y-123531728D01*
X237501717Y-123527122D01*
X237666676Y-123524384D01*
X237864928Y-123523964D01*
X237914911Y-123524134D01*
X238117328Y-123523038D01*
X238252226Y-123517311D01*
X238333862Y-123505049D01*
X238376490Y-123484351D01*
X238394368Y-123453314D01*
X238397109Y-123437727D01*
X238403841Y-123344126D01*
X238409080Y-123189529D01*
X238412353Y-122991267D01*
X238413183Y-122766667D01*
X238413459Y-122631385D01*
X238418670Y-122329813D01*
X238429663Y-122065709D01*
X238445654Y-121850864D01*
X238465863Y-121697067D01*
X238489507Y-121616105D01*
X238494073Y-121604645D01*
X238466165Y-121581334D01*
X238446165Y-121574824D01*
X238421333Y-121519752D01*
X238421263Y-121517549D01*
X238379640Y-121466770D01*
X238276476Y-121430995D01*
X238218798Y-121423348D01*
X238096279Y-121422427D01*
X237984614Y-121437147D01*
X237908387Y-121463306D01*
X237892187Y-121496699D01*
X237888461Y-121537712D01*
X237839639Y-121606647D01*
X237794606Y-121656666D01*
X237781962Y-121684143D01*
X237782591Y-121684287D01*
X237786498Y-121724581D01*
X237758198Y-121820105D01*
X237704600Y-121951627D01*
X237632610Y-122099917D01*
X237592209Y-122181273D01*
X237556676Y-122267524D01*
X237553882Y-122301000D01*
X237555753Y-122316106D01*
X237514191Y-122367524D01*
X237476514Y-122420044D01*
X237447667Y-122517887D01*
X237440976Y-122560056D01*
X237401086Y-122672508D01*
X237339253Y-122803248D01*
X237271746Y-122919415D01*
X237214833Y-122988150D01*
X237200200Y-123001062D01*
X237203836Y-123020019D01*
X237212458Y-123023730D01*
X237199300Y-123060205D01*
X237151328Y-123116195D01*
X237091471Y-123167519D01*
X237042653Y-123190000D01*
X237024384Y-123187063D01*
X236949747Y-123137142D01*
X236883553Y-123052037D01*
X236855000Y-122966520D01*
X236842583Y-122921362D01*
X236780917Y-122854724D01*
X236742713Y-122828141D01*
X236740233Y-122810287D01*
X236740678Y-122784804D01*
X236693729Y-122723235D01*
X236676326Y-122702087D01*
X236611461Y-122591665D01*
X236557455Y-122458652D01*
X236542712Y-122413998D01*
X236498533Y-122298922D01*
X236462305Y-122228258D01*
X236455279Y-122217718D01*
X236414278Y-122132988D01*
X236370483Y-122016592D01*
X236330967Y-121902067D01*
X236263749Y-121730998D01*
X236207903Y-121620528D01*
X236168386Y-121581334D01*
X236165101Y-121581494D01*
X236143721Y-121613084D01*
X236145601Y-121627966D01*
X236126524Y-121726044D01*
X236069836Y-121874800D01*
X235981610Y-122057584D01*
X235941209Y-122138939D01*
X235905676Y-122225190D01*
X235902882Y-122258667D01*
X235904753Y-122273773D01*
X235863191Y-122325191D01*
X235825514Y-122377711D01*
X235796667Y-122475554D01*
X235789976Y-122517723D01*
X235750086Y-122630175D01*
X235688253Y-122760914D01*
X235620746Y-122877082D01*
X235563833Y-122945817D01*
X235549200Y-122958728D01*
X235552836Y-122977685D01*
X235561458Y-122981396D01*
X235548300Y-123017872D01*
X235500328Y-123073861D01*
X235440471Y-123125186D01*
X235391653Y-123147667D01*
X235373384Y-123144729D01*
X235298747Y-123094808D01*
X235232553Y-123009704D01*
X235204000Y-122924187D01*
X235191583Y-122879028D01*
X235129917Y-122812391D01*
X235091713Y-122785807D01*
X235089233Y-122767954D01*
X235089678Y-122742471D01*
X235042729Y-122680902D01*
X235025044Y-122659446D01*
X234959429Y-122549095D01*
X234903956Y-122416318D01*
X234894316Y-122387935D01*
X234833761Y-122230716D01*
X234770543Y-122090966D01*
X234758194Y-122066093D01*
X234713771Y-121964175D01*
X234695613Y-121900466D01*
X234687393Y-121866654D01*
X234650438Y-121771384D01*
X234593898Y-121647246D01*
X234492569Y-121437991D01*
X233226384Y-121421683D01*
X232986667Y-121418717D01*
X232672830Y-121415591D01*
X232428431Y-121414703D01*
X232244170Y-121416452D01*
X232110745Y-121421239D01*
X232018852Y-121429464D01*
X231959190Y-121441527D01*
X231922457Y-121457829D01*
X231899350Y-121478769D01*
X231897805Y-121480690D01*
X231876958Y-121523379D01*
X231861802Y-121597343D01*
X231851732Y-121713251D01*
X231846142Y-121881774D01*
X231844427Y-122113581D01*
X231313651Y-122113581D01*
X231307681Y-122048718D01*
X231303142Y-121885916D01*
X231304863Y-121704560D01*
X231312538Y-121528234D01*
X231324933Y-121390834D01*
X234103333Y-121390834D01*
X234124500Y-121412000D01*
X234145667Y-121390834D01*
X234124500Y-121369667D01*
X234103333Y-121390834D01*
X231324933Y-121390834D01*
X231325863Y-121380520D01*
X231344531Y-121285000D01*
X231344638Y-121284691D01*
X231429929Y-121142323D01*
X231574740Y-121009834D01*
X231753833Y-120882834D01*
X233193167Y-120874743D01*
X233386237Y-120873653D01*
X233742587Y-120871990D01*
X234028072Y-120872082D01*
X234252108Y-120874945D01*
X234424106Y-120881594D01*
X234553480Y-120893044D01*
X234649643Y-120910312D01*
X234722007Y-120934413D01*
X234779985Y-120966362D01*
X234832991Y-121007175D01*
X234890438Y-121057869D01*
X234947890Y-121117407D01*
X235018456Y-121215571D01*
X235060965Y-121304510D01*
X235060514Y-121357931D01*
X235058564Y-121360929D01*
X235065422Y-121390834D01*
X235070664Y-121413696D01*
X235120584Y-121498423D01*
X235122943Y-121501768D01*
X235180272Y-121606286D01*
X235204000Y-121694866D01*
X235213532Y-121748770D01*
X235257006Y-121845224D01*
X235316903Y-121927508D01*
X235372281Y-121962334D01*
X235403393Y-121944737D01*
X235461528Y-121873969D01*
X235519945Y-121777118D01*
X235560843Y-121684856D01*
X235566420Y-121627852D01*
X235565510Y-121589421D01*
X235608802Y-121521246D01*
X235644607Y-121478692D01*
X235646340Y-121454333D01*
X235639434Y-121441629D01*
X235670516Y-121389810D01*
X235696732Y-121348311D01*
X235699372Y-121300594D01*
X235696857Y-121295724D01*
X235716401Y-121243525D01*
X235778006Y-121164466D01*
X235790980Y-121150246D01*
X235855194Y-121071484D01*
X235881333Y-121024132D01*
X235895462Y-121003068D01*
X235968410Y-120966600D01*
X236076487Y-120935336D01*
X236188977Y-120917344D01*
X236275165Y-120920691D01*
X236367095Y-120963747D01*
X236476622Y-121045946D01*
X236581801Y-121148253D01*
X236666658Y-121253112D01*
X236715220Y-121342968D01*
X236711514Y-121400264D01*
X236709564Y-121403262D01*
X236721664Y-121456029D01*
X236771584Y-121540757D01*
X236773943Y-121544101D01*
X236831272Y-121648619D01*
X236855000Y-121737199D01*
X236864532Y-121791103D01*
X236908006Y-121887557D01*
X236967903Y-121969841D01*
X237023281Y-122004667D01*
X237054393Y-121987071D01*
X237112528Y-121916302D01*
X237170945Y-121819451D01*
X237211843Y-121727189D01*
X237217420Y-121670185D01*
X237216510Y-121631755D01*
X237259802Y-121563580D01*
X237295607Y-121521025D01*
X237297340Y-121496667D01*
X237290434Y-121483962D01*
X237321516Y-121432144D01*
X237347732Y-121390644D01*
X237350372Y-121342927D01*
X237347857Y-121338057D01*
X237367401Y-121285858D01*
X237429006Y-121206800D01*
X237441990Y-121192569D01*
X237506197Y-121113853D01*
X237532333Y-121066585D01*
X237533431Y-121062867D01*
X237581525Y-121031571D01*
X237682111Y-120991413D01*
X237809340Y-120950783D01*
X237937364Y-120918073D01*
X238040333Y-120901673D01*
X238100070Y-120899324D01*
X238235851Y-120897907D01*
X238391223Y-120899314D01*
X238488232Y-120902910D01*
X238604858Y-120921898D01*
X238698038Y-120970163D01*
X238805947Y-121062750D01*
X238818323Y-121074409D01*
X238918074Y-121182300D01*
X238967733Y-121280752D01*
X238985607Y-121404604D01*
X238987174Y-121453227D01*
X238981835Y-121556466D01*
X238966113Y-121604645D01*
X238965586Y-121606259D01*
X238954420Y-121653492D01*
G37*
G36*
X232580640Y-121674323D02*
G01*
X232607707Y-121675619D01*
X232744328Y-121685161D01*
X232818268Y-121702053D01*
X232848625Y-121734379D01*
X232854500Y-121790221D01*
X232854433Y-121802182D01*
X232846981Y-121853102D01*
X232813387Y-121878933D01*
X232734187Y-121886462D01*
X232589917Y-121882476D01*
X232548028Y-121880984D01*
X232407386Y-121883245D01*
X232340979Y-121904779D01*
X232340944Y-121951677D01*
X232399417Y-122030028D01*
X232413956Y-122046723D01*
X232498278Y-122151955D01*
X232579203Y-122263907D01*
X232640015Y-122358476D01*
X232664000Y-122411560D01*
X232665835Y-122420084D01*
X232702828Y-122487266D01*
X232776673Y-122594951D01*
X232873215Y-122724033D01*
X232978297Y-122855410D01*
X233077765Y-122969977D01*
X233163075Y-123073540D01*
X233194656Y-123153798D01*
X233155005Y-123203394D01*
X233042788Y-123232334D01*
X232970126Y-123239835D01*
X232818056Y-123244403D01*
X232650888Y-123240049D01*
X232493550Y-123228264D01*
X232370971Y-123210540D01*
X232308078Y-123188369D01*
X232287003Y-123133489D01*
X232328213Y-123080116D01*
X232416161Y-123044718D01*
X232531420Y-123040186D01*
X232540590Y-123041264D01*
X232672657Y-123046579D01*
X232779936Y-123035500D01*
X232874705Y-123011730D01*
X232785729Y-122899782D01*
X232694580Y-122777462D01*
X232584133Y-122616400D01*
X232467159Y-122436176D01*
X232352669Y-122251660D01*
X232249677Y-122077721D01*
X232167194Y-121929229D01*
X232114232Y-121821054D01*
X232099804Y-121768064D01*
X232130215Y-121725721D01*
X232215909Y-121687667D01*
X232362365Y-121671252D01*
X232580640Y-121674323D01*
G37*
G36*
X233975387Y-122981529D02*
G01*
X233888336Y-123095416D01*
X233780283Y-123189138D01*
X233660361Y-123227724D01*
X233535377Y-123188778D01*
X233392346Y-123071679D01*
X233321177Y-122990605D01*
X233242607Y-122859572D01*
X233183596Y-122693101D01*
X233138772Y-122474806D01*
X233102764Y-122188301D01*
X233100861Y-122165385D01*
X233336206Y-122165385D01*
X233353194Y-122463870D01*
X233427816Y-122701206D01*
X233559887Y-122876786D01*
X233656219Y-122957216D01*
X233737027Y-123005330D01*
X233767906Y-122991415D01*
X233772342Y-122958580D01*
X233787188Y-122872500D01*
X233789237Y-122849048D01*
X233779251Y-122738901D01*
X233750560Y-122586136D01*
X233709616Y-122415992D01*
X233662874Y-122253707D01*
X233616787Y-122124519D01*
X233577809Y-122053666D01*
X233549770Y-122032389D01*
X233458161Y-122017823D01*
X233375552Y-122059838D01*
X233337044Y-122145103D01*
X233336206Y-122165385D01*
X233100861Y-122165385D01*
X233091236Y-122049487D01*
X233096161Y-121953421D01*
X233125471Y-121885814D01*
X233185601Y-121817885D01*
X233241345Y-121769330D01*
X233365734Y-121716107D01*
X233503561Y-121736736D01*
X233668121Y-121831595D01*
X233797244Y-121954675D01*
X233880942Y-122103433D01*
X233896707Y-122248084D01*
X233896465Y-122268645D01*
X233927922Y-122301000D01*
X233939473Y-122305658D01*
X233975216Y-122366156D01*
X234008961Y-122476034D01*
X234035130Y-122609051D01*
X234048143Y-122738969D01*
X234042422Y-122839548D01*
X234039613Y-122849048D01*
X234034371Y-122866773D01*
X233975387Y-122981529D01*
G37*
%TD*%
D12*
%TO.P,J2,1,Pin_1*%
%TO.N,+5V*%
X254426000Y-103180000D03*
D13*
%TO.P,J2,2,Pin_2*%
%TO.N,GND*%
X254426000Y-100640000D03*
%TO.P,J2,3,Pin_3*%
%TO.N,/pin30*%
X254426000Y-98100000D03*
%TO.P,J2,4,Pin_4*%
%TO.N,/BA12*%
X254426000Y-95560000D03*
%TO.P,J2,5,Pin_5*%
%TO.N,/BA13*%
X254426000Y-93020000D03*
%TO.P,J2,6,Pin_6*%
%TO.N,/BR{slash}~{W}*%
X254426000Y-90480000D03*
%TO.P,J2,7,Pin_7*%
%TO.N,/BA14*%
X254426000Y-87940000D03*
%TO.P,J2,8,Pin_8*%
%TO.N,/BA15*%
X254426000Y-85400000D03*
%TO.P,J2,9,Pin_9*%
%TO.N,/BA16*%
X254426000Y-82860000D03*
%TO.P,J2,10,Pin_10*%
%TO.N,/BA17*%
X254426000Y-80320000D03*
%TD*%
D12*
%TO.P,J4,1,Pin_1*%
%TO.N,+5V*%
X165826000Y-103180000D03*
D13*
%TO.P,J4,2,Pin_2*%
X165826000Y-100640000D03*
%TO.P,J4,3,Pin_3*%
%TO.N,/J4P3*%
X165826000Y-98100000D03*
%TO.P,J4,4,Pin_4*%
%TO.N,/J4P4*%
X165826000Y-95560000D03*
%TO.P,J4,5,Pin_5*%
%TO.N,/~{INH}*%
X165826000Y-93020000D03*
%TO.P,J4,6,Pin_6*%
%TO.N,/1C5*%
X165826000Y-90480000D03*
%TO.P,J4,7,Pin_7*%
%TO.N,/J4P7*%
X165826000Y-87940000D03*
%TO.P,J4,8,Pin_8*%
%TO.N,/J4P8*%
X165826000Y-85400000D03*
%TO.P,J4,9,Pin_9*%
%TO.N,/BA3*%
X165826000Y-82860000D03*
%TO.P,J4,10,Pin_10*%
%TO.N,/BA1*%
X165826000Y-80320000D03*
%TD*%
D12*
%TO.P,J3,1,Pin_1*%
%TO.N,GND*%
X162026000Y-103180000D03*
D13*
%TO.P,J3,2,Pin_2*%
X162026000Y-100640000D03*
%TO.P,J3,3,Pin_3*%
%TO.N,/J3P3*%
X162026000Y-98100000D03*
%TO.P,J3,4,Pin_4*%
%TO.N,/\u03C61*%
X162026000Y-95560000D03*
%TO.P,J3,5,Pin_5*%
%TO.N,/F4M*%
X162026000Y-93020000D03*
%TO.P,J3,6,Pin_6*%
%TO.N,/~{G}*%
X162026000Y-90480000D03*
%TO.P,J3,7,Pin_7*%
%TO.N,/~{CAS}*%
X162026000Y-87940000D03*
%TO.P,J3,8,Pin_8*%
%TO.N,/~{W}*%
X162026000Y-85400000D03*
%TO.P,J3,9,Pin_9*%
%TO.N,/~{RAS}*%
X162026000Y-82860000D03*
%TO.P,J3,10,Pin_10*%
%TO.N,/BA0*%
X162026000Y-80320000D03*
%TD*%
D14*
%TO.P,R2,1*%
%TO.N,/pin30*%
X251206000Y-95902000D03*
D15*
%TO.P,R2,2*%
%TO.N,GND*%
X251206000Y-108902000D03*
%TD*%
D16*
%TO.P,U18,1,~{R}*%
%TO.N,+5V*%
X194056000Y-115570000D03*
D17*
%TO.P,U18,2,D*%
%TO.N,/BA0*%
X191516000Y-115570000D03*
%TO.P,U18,3,C*%
%TO.N,Net-(U11-Pad11)*%
X188976000Y-115570000D03*
%TO.P,U18,4,~{S}*%
%TO.N,/1H9*%
X186436000Y-115570000D03*
%TO.P,U18,5,Q*%
%TO.N,unconnected-(U18-Pad5)*%
X183896000Y-115570000D03*
%TO.P,U18,6,~{Q}*%
%TO.N,/J4P4*%
X181356000Y-115570000D03*
%TO.P,U18,7,GND*%
%TO.N,GND*%
X178816000Y-115570000D03*
%TO.P,U18,8,~{Q}*%
%TO.N,unconnected-(U18-Pad8)*%
X178816000Y-107950000D03*
%TO.P,U18,9,Q*%
%TO.N,Net-(R4-Pad1)*%
X181356000Y-107950000D03*
%TO.P,U18,10,~{S}*%
%TO.N,+5V*%
X183896000Y-107950000D03*
%TO.P,U18,11,C*%
%TO.N,/pin30*%
X186436000Y-107950000D03*
%TO.P,U18,12,D*%
%TO.N,/F4M*%
X188976000Y-107950000D03*
%TO.P,U18,13,~{R}*%
%TO.N,+5V*%
X191516000Y-107950000D03*
%TO.P,U18,14,VCC*%
X194056000Y-107950000D03*
%TD*%
D14*
%TO.P,C9,1*%
%TO.N,+5V*%
X222036000Y-100330000D03*
%TO.P,C9,2*%
%TO.N,GND*%
X227036000Y-100330000D03*
%TD*%
%TO.P,C2,1*%
%TO.N,+5V*%
X234910000Y-114808000D03*
%TO.P,C2,2*%
%TO.N,GND*%
X229910000Y-114808000D03*
%TD*%
%TO.P,C3,1*%
%TO.N,+5V*%
X219456000Y-114808000D03*
%TO.P,C3,2*%
%TO.N,GND*%
X224456000Y-114808000D03*
%TD*%
%TO.P,R1,1*%
%TO.N,+5V*%
X196960000Y-105156000D03*
D15*
%TO.P,R1,2*%
%TO.N,/1H9*%
X183960000Y-105156000D03*
%TD*%
D16*
%TO.P,U14,1*%
%TO.N,/1C5*%
X246385000Y-94249000D03*
D17*
%TO.P,U14,2*%
%TO.N,/BR{slash}~{W}*%
X243845000Y-94249000D03*
%TO.P,U14,3*%
%TO.N,Net-(U10-Pad4)*%
X241305000Y-94249000D03*
%TO.P,U14,4*%
%TO.N,Net-(U14-Pad4)*%
X238765000Y-94249000D03*
%TO.P,U14,5*%
%TO.N,/BA13*%
X236225000Y-94249000D03*
%TO.P,U14,6*%
%TO.N,Net-(U12-Pad9)*%
X233685000Y-94249000D03*
%TO.P,U14,7,GND*%
%TO.N,GND*%
X231145000Y-94249000D03*
%TO.P,U14,8*%
%TO.N,Net-(U11-Pad2)*%
X231145000Y-86629000D03*
%TO.P,U14,9*%
%TO.N,Net-(U13-Pad8)*%
X233685000Y-86629000D03*
%TO.P,U14,10*%
%TO.N,+5V*%
X236225000Y-86629000D03*
%TO.P,U14,11*%
%TO.N,/J4P8*%
X238765000Y-86629000D03*
%TO.P,U14,12*%
%TO.N,/BA12*%
X241305000Y-86629000D03*
%TO.P,U14,13*%
%TO.N,Net-(U12-Pad8)*%
X243845000Y-86629000D03*
%TO.P,U14,14,VCC*%
%TO.N,+5V*%
X246385000Y-86629000D03*
%TD*%
D14*
%TO.P,R4,1*%
%TO.N,Net-(R4-Pad1)*%
X213106000Y-83820000D03*
D15*
%TO.P,R4,2*%
%TO.N,GND*%
X226106000Y-83820000D03*
%TD*%
D16*
%TO.P,U10,1*%
%TO.N,/BA0*%
X217683000Y-94249000D03*
D17*
%TO.P,U10,2*%
%TO.N,Net-(U10-Pad2)*%
X215143000Y-94249000D03*
%TO.P,U10,3*%
%TO.N,Net-(U10-Pad3)*%
X212603000Y-94249000D03*
%TO.P,U10,4*%
%TO.N,Net-(U10-Pad4)*%
X210063000Y-94249000D03*
%TO.P,U10,5*%
%TO.N,Net-(U10-Pad5)*%
X207523000Y-94249000D03*
%TO.P,U10,6*%
%TO.N,Net-(U10-Pad6)*%
X204983000Y-94249000D03*
%TO.P,U10,7,GND*%
%TO.N,GND*%
X202443000Y-94249000D03*
%TO.P,U10,8*%
%TO.N,/~{G}*%
X202443000Y-86629000D03*
%TO.P,U10,9*%
%TO.N,Net-(U10-Pad4)*%
X204983000Y-86629000D03*
%TO.P,U10,10*%
%TO.N,Net-(U10-Pad10)*%
X207523000Y-86629000D03*
%TO.P,U10,11*%
%TO.N,/~{RAS}*%
X210063000Y-86629000D03*
%TO.P,U10,12*%
%TO.N,Net-(R4-Pad1)*%
X212603000Y-86629000D03*
%TO.P,U10,13*%
%TO.N,+5V*%
X215143000Y-86629000D03*
%TO.P,U10,14,VCC*%
X217683000Y-86629000D03*
%TD*%
D16*
%TO.P,U3,1,~{Mr}*%
%TO.N,/1H9*%
X194041000Y-102377000D03*
D17*
%TO.P,U3,2,Q0*%
%TO.N,Net-(U10-Pad10)*%
X191501000Y-102377000D03*
%TO.P,U3,3,~{Q0}*%
%TO.N,Net-(U10-Pad5)*%
X188961000Y-102377000D03*
%TO.P,U3,4,D0*%
%TO.N,Net-(U13-Pad6)*%
X186421000Y-102377000D03*
%TO.P,U3,5,D1*%
%TO.N,Net-(U10-Pad3)*%
X183881000Y-102377000D03*
%TO.P,U3,6,~{Q1}*%
%TO.N,Net-(U12-Pad2)*%
X181341000Y-102377000D03*
%TO.P,U3,7,Q1*%
%TO.N,Net-(U11-Pad9)*%
X178801000Y-102377000D03*
%TO.P,U3,8,GND*%
%TO.N,GND*%
X176261000Y-102377000D03*
%TO.P,U3,9,Cp*%
%TO.N,/J3P3*%
X176261000Y-94757000D03*
%TO.P,U3,10,Q2*%
%TO.N,Net-(U10-Pad2)*%
X178801000Y-94757000D03*
%TO.P,U3,11,~{Q2}*%
%TO.N,unconnected-(U3-Pad11)*%
X181341000Y-94757000D03*
%TO.P,U3,12,D2*%
%TO.N,/BA0*%
X183881000Y-94757000D03*
%TO.P,U3,13,D3*%
%TO.N,/BA3*%
X186421000Y-94757000D03*
%TO.P,U3,14,~{Q3}*%
%TO.N,Net-(U14-Pad4)*%
X188961000Y-94757000D03*
%TO.P,U3,15,Q3*%
%TO.N,Net-(U12-Pad10)*%
X191501000Y-94757000D03*
%TO.P,U3,16,VCC*%
%TO.N,+5V*%
X194041000Y-94757000D03*
%TD*%
D14*
%TO.P,C10,1*%
%TO.N,/~{RAS}*%
X212344000Y-111506000D03*
%TO.P,C10,2*%
%TO.N,GND*%
X207344000Y-111506000D03*
%TD*%
D16*
%TO.P,U15,1*%
%TO.N,/BA17*%
X246385000Y-80533000D03*
D17*
%TO.P,U15,2*%
%TO.N,/BA16*%
X243845000Y-80533000D03*
%TO.P,U15,3*%
%TO.N,N/C*%
X241305000Y-80533000D03*
%TO.P,U15,4*%
%TO.N,/BA15*%
X238765000Y-80533000D03*
%TO.P,U15,5*%
%TO.N,/BA14*%
X236225000Y-80533000D03*
%TO.P,U15,6*%
%TO.N,Net-(U13-Pad12)*%
X233685000Y-80533000D03*
%TO.P,U15,7,GND*%
%TO.N,GND*%
X231145000Y-80533000D03*
%TO.P,U15,8*%
%TO.N,/~{INH}*%
X231145000Y-72913000D03*
%TO.P,U15,9*%
%TO.N,Net-(U12-Pad6)*%
X233685000Y-72913000D03*
%TO.P,U15,10*%
%TO.N,Net-(U13-Pad11)*%
X236225000Y-72913000D03*
%TO.P,U15,11*%
%TO.N,N/C*%
X238765000Y-72913000D03*
%TO.P,U15,12*%
%TO.N,Net-(U12-Pad3)*%
X241305000Y-72913000D03*
%TO.P,U15,13*%
%TO.N,Net-(U10-Pad6)*%
X243845000Y-72913000D03*
%TO.P,U15,14,VCC*%
%TO.N,+5V*%
X246385000Y-72913000D03*
%TD*%
D18*
%TO.P,C5,1*%
%TO.N,/1H9*%
X194056000Y-119927401D03*
D19*
%TO.P,C5,2*%
%TO.N,GND*%
X194056000Y-121427401D03*
%TD*%
D14*
%TO.P,R5,1*%
%TO.N,+5V*%
X197104000Y-83820000D03*
D15*
%TO.P,R5,2*%
%TO.N,Net-(R4-Pad1)*%
X210104000Y-83820000D03*
%TD*%
D16*
%TO.P,U11,1*%
%TO.N,/\u03C61*%
X217683000Y-108219000D03*
D17*
%TO.P,U11,2*%
%TO.N,Net-(U11-Pad2)*%
X215143000Y-108219000D03*
%TO.P,U11,3*%
%TO.N,Net-(U11-Pad3)*%
X212603000Y-108219000D03*
%TO.P,U11,4*%
%TO.N,/~{RAS}*%
X210063000Y-108219000D03*
%TO.P,U11,5*%
%TO.N,GND*%
X207523000Y-108219000D03*
%TO.P,U11,6*%
%TO.N,/J4P7*%
X204983000Y-108219000D03*
%TO.P,U11,7,GND*%
%TO.N,GND*%
X202443000Y-108219000D03*
%TO.P,U11,8*%
%TO.N,/~{W}*%
X202443000Y-100599000D03*
%TO.P,U11,9*%
%TO.N,Net-(U11-Pad9)*%
X204983000Y-100599000D03*
%TO.P,U11,10*%
%TO.N,Net-(U10-Pad4)*%
X207523000Y-100599000D03*
%TO.P,U11,11*%
%TO.N,Net-(U11-Pad11)*%
X210063000Y-100599000D03*
%TO.P,U11,12*%
%TO.N,/\u03C61*%
X212603000Y-100599000D03*
%TO.P,U11,13*%
%TO.N,/J4P3*%
X215143000Y-100599000D03*
%TO.P,U11,14,VCC*%
%TO.N,+5V*%
X217683000Y-100599000D03*
%TD*%
D14*
%TO.P,C7,1*%
%TO.N,+5V*%
X221782000Y-77978000D03*
%TO.P,C7,2*%
%TO.N,GND*%
X226782000Y-77978000D03*
%TD*%
%TO.P,R3,1*%
%TO.N,+5V*%
X222758000Y-111252000D03*
D15*
%TO.P,R3,2*%
%TO.N,/pin30*%
X235758000Y-111252000D03*
%TD*%
D16*
%TO.P,U13,1*%
%TO.N,/BA0*%
X217678000Y-80518000D03*
D17*
%TO.P,U13,2*%
%TO.N,/BA1*%
X215138000Y-80518000D03*
%TO.P,U13,3*%
%TO.N,Net-(U13-Pad3)*%
X212598000Y-80518000D03*
%TO.P,U13,4*%
X210058000Y-80518000D03*
%TO.P,U13,5*%
%TO.N,+5V*%
X207518000Y-80518000D03*
%TO.P,U13,6*%
%TO.N,Net-(U13-Pad6)*%
X204978000Y-80518000D03*
%TO.P,U13,7,GND*%
%TO.N,GND*%
X202438000Y-80518000D03*
%TO.P,U13,8*%
%TO.N,Net-(U13-Pad8)*%
X202438000Y-72898000D03*
%TO.P,U13,9*%
%TO.N,GND*%
X204978000Y-72898000D03*
%TO.P,U13,10*%
%TO.N,/J4P7*%
X207518000Y-72898000D03*
%TO.P,U13,11*%
%TO.N,Net-(U13-Pad11)*%
X210058000Y-72898000D03*
%TO.P,U13,12*%
%TO.N,Net-(U13-Pad12)*%
X212598000Y-72898000D03*
%TO.P,U13,13*%
%TO.N,+5V*%
X215138000Y-72898000D03*
%TO.P,U13,14,VCC*%
X217678000Y-72898000D03*
%TD*%
D16*
%TO.P,U12,1*%
%TO.N,Net-(U10-Pad10)*%
X246385000Y-108219000D03*
D17*
%TO.P,U12,2*%
%TO.N,Net-(U12-Pad2)*%
X243845000Y-108219000D03*
%TO.P,U12,3*%
%TO.N,Net-(U12-Pad3)*%
X241305000Y-108219000D03*
%TO.P,U12,4*%
%TO.N,/BA13*%
X238765000Y-108219000D03*
%TO.P,U12,5*%
%TO.N,/BA12*%
X236225000Y-108219000D03*
%TO.P,U12,6*%
%TO.N,Net-(U12-Pad6)*%
X233685000Y-108219000D03*
%TO.P,U12,7,GND*%
%TO.N,GND*%
X231145000Y-108219000D03*
%TO.P,U12,8*%
%TO.N,Net-(U12-Pad8)*%
X231145000Y-100599000D03*
%TO.P,U12,9*%
%TO.N,Net-(U12-Pad9)*%
X233685000Y-100599000D03*
%TO.P,U12,10*%
%TO.N,Net-(U12-Pad10)*%
X236225000Y-100599000D03*
%TO.P,U12,11*%
%TO.N,/~{CAS}*%
X238765000Y-100599000D03*
%TO.P,U12,12*%
%TO.N,Net-(U11-Pad3)*%
X241305000Y-100599000D03*
%TO.P,U12,13*%
%TO.N,/~{INH}*%
X243845000Y-100599000D03*
%TO.P,U12,14,VCC*%
%TO.N,+5V*%
X246385000Y-100599000D03*
%TD*%
D20*
%TO.N,GND*%
X227584000Y-71882000D03*
X226822000Y-71120000D03*
%TO.N,/BA0*%
X181610000Y-77216000D03*
%TO.N,/BA3*%
X186436000Y-83058000D03*
%TO.N,/BA12*%
X240030000Y-104140000D03*
X251714000Y-87884000D03*
X236220000Y-104140000D03*
%TO.N,/~{INH}*%
X238506000Y-98044000D03*
X237490000Y-70866000D03*
%TO.N,/F4M*%
X189738000Y-88900000D03*
%TO.N,/\u03C61*%
X217932000Y-104394000D03*
%TO.N,/J3P3*%
X172974000Y-99568000D03*
%TO.N,/~{CAS}*%
X175768000Y-91694000D03*
X177546000Y-85598000D03*
%TO.N,/~{W}*%
X203708000Y-84582000D03*
%TO.N,/J4P3*%
X177800000Y-105918000D03*
X178308000Y-97536000D03*
%TO.N,/J4P4*%
X181864000Y-105664000D03*
%TO.N,/J4P7*%
X180086000Y-86360000D03*
X180340000Y-76200000D03*
%TO.N,/J4P8*%
X175514000Y-84582000D03*
X175514000Y-80010000D03*
%TO.N,Net-(U10-Pad10)*%
X193548000Y-87630000D03*
%TO.N,Net-(U10-Pad5)*%
X187452000Y-92710000D03*
%TO.N,Net-(U13-Pad6)*%
X184404000Y-79248000D03*
%TO.N,Net-(U10-Pad3)*%
X182626000Y-92456000D03*
%TO.N,Net-(U11-Pad9)*%
X180848000Y-97790000D03*
%TO.N,Net-(U10-Pad6)*%
X239014000Y-91948000D03*
X240030000Y-74930000D03*
%TO.N,Net-(U11-Pad2)*%
X232410000Y-109982000D03*
%TO.N,Net-(U11-Pad3)*%
X240030000Y-109982000D03*
%TO.N,Net-(U11-Pad11)*%
X209804000Y-110490000D03*
%TO.N,Net-(U12-Pad8)*%
X231140000Y-97028000D03*
X245110000Y-98298000D03*
%TO.N,Net-(R4-Pad1)*%
X182372000Y-88138000D03*
%TD*%
D21*
%TO.N,+5V*%
X215143000Y-86629000D02*
X217683000Y-86629000D01*
D22*
%TO.N,/BA0*%
X214884000Y-76962000D02*
X217678000Y-79756000D01*
X217678000Y-79756000D02*
X217678000Y-80518000D01*
X174498000Y-77216000D02*
X181610000Y-77216000D01*
X181610000Y-77216000D02*
X181864000Y-76962000D01*
X172466000Y-78994000D02*
X174498000Y-77216000D01*
X162026000Y-80320000D02*
X164846000Y-79248000D01*
X164846000Y-79248000D02*
X165608000Y-78994000D01*
X181864000Y-76962000D02*
X214884000Y-76962000D01*
X165608000Y-78994000D02*
X172466000Y-78994000D01*
%TO.N,/BA1*%
X181864000Y-78232000D02*
X182118000Y-77978000D01*
X213360000Y-77978000D02*
X215138000Y-79756000D01*
X182118000Y-77978000D02*
X213360000Y-77978000D01*
X215138000Y-79756000D02*
X215138000Y-80518000D01*
X165826000Y-80320000D02*
X172664000Y-80320000D01*
X174752000Y-78232000D02*
X181864000Y-78232000D01*
X172664000Y-80320000D02*
X174752000Y-78232000D01*
%TO.N,/BA3*%
X179324000Y-82042000D02*
X180340000Y-83058000D01*
X168656000Y-82804000D02*
X169926000Y-82042000D01*
X169926000Y-82042000D02*
X179324000Y-82042000D01*
X165826000Y-82860000D02*
X168656000Y-82804000D01*
X180340000Y-83058000D02*
X186436000Y-83058000D01*
%TO.N,/BA12*%
X248666000Y-84582000D02*
X251714000Y-87630000D01*
X251714000Y-87630000D02*
X251714000Y-87884000D01*
X240030000Y-104140000D02*
X236220000Y-104140000D01*
X241305000Y-86609000D02*
X243332000Y-84582000D01*
X241305000Y-86629000D02*
X241305000Y-86609000D01*
X243332000Y-84582000D02*
X248666000Y-84582000D01*
%TO.N,/BA13*%
X242586000Y-95774000D02*
X237506000Y-95774000D01*
X254426000Y-93020000D02*
X251658000Y-93020000D01*
X248158000Y-96520000D02*
X243332000Y-96520000D01*
X237506000Y-95774000D02*
X236225000Y-94493000D01*
X236225000Y-94493000D02*
X236225000Y-94249000D01*
X243332000Y-96520000D02*
X242586000Y-95774000D01*
X251658000Y-93020000D02*
X248158000Y-96520000D01*
%TO.N,/BR{slash}~{W}*%
X247634000Y-95774000D02*
X244872000Y-95774000D01*
X254426000Y-90480000D02*
X252928000Y-90480000D01*
X243845000Y-94747000D02*
X243845000Y-94249000D01*
X252928000Y-90480000D02*
X247634000Y-95774000D01*
X244872000Y-95774000D02*
X243845000Y-94747000D01*
%TO.N,/BA14*%
X239014000Y-83820000D02*
X250444000Y-83820000D01*
X236225000Y-81031000D02*
X239014000Y-83820000D01*
X252222000Y-85598000D02*
X252222000Y-86614000D01*
X252222000Y-86614000D02*
X253548000Y-87940000D01*
X253548000Y-87940000D02*
X254426000Y-87940000D01*
X250444000Y-83820000D02*
X252222000Y-85598000D01*
X236225000Y-80533000D02*
X236225000Y-81031000D01*
%TO.N,/BA15*%
X240538000Y-83058000D02*
X238765000Y-81285000D01*
X253548000Y-85400000D02*
X251206000Y-83058000D01*
X238765000Y-81285000D02*
X238765000Y-80533000D01*
X251206000Y-83058000D02*
X240538000Y-83058000D01*
X254426000Y-85400000D02*
X253548000Y-85400000D01*
%TO.N,/BA16*%
X244872000Y-82058000D02*
X243845000Y-81031000D01*
X247904000Y-82042000D02*
X247888000Y-82058000D01*
X247888000Y-82058000D02*
X244872000Y-82058000D01*
X253802000Y-82860000D02*
X252984000Y-82042000D01*
X252984000Y-82042000D02*
X247904000Y-82042000D01*
X254426000Y-82860000D02*
X253802000Y-82860000D01*
X243845000Y-81031000D02*
X243845000Y-80533000D01*
%TO.N,/BA17*%
X254213000Y-80533000D02*
X254426000Y-80320000D01*
X246385000Y-80533000D02*
X254213000Y-80533000D01*
%TO.N,/pin30*%
X242300000Y-109744000D02*
X247380000Y-109744000D01*
X201930000Y-106172000D02*
X210566000Y-106172000D01*
X247904000Y-109220000D02*
X247904000Y-101854000D01*
X214630000Y-111506000D02*
X219710000Y-111506000D01*
X254228000Y-98298000D02*
X254426000Y-98100000D01*
X200152000Y-107950000D02*
X201930000Y-106172000D01*
X188468000Y-105410000D02*
X195072000Y-105410000D01*
X247904000Y-101854000D02*
X251460000Y-98298000D01*
X240030000Y-112014000D02*
X242300000Y-109744000D01*
X210566000Y-106172000D02*
X211328000Y-106934000D01*
X211328000Y-109220000D02*
X212090000Y-109982000D01*
X186436000Y-107950000D02*
X186436000Y-107442000D01*
X219710000Y-111506000D02*
X221742000Y-109474000D01*
X247380000Y-109744000D02*
X247904000Y-109220000D01*
X197612000Y-107950000D02*
X200152000Y-107950000D01*
X211328000Y-106934000D02*
X211328000Y-109220000D01*
X228092000Y-112014000D02*
X240030000Y-112014000D01*
X212090000Y-109982000D02*
X213106000Y-109982000D01*
X225552000Y-109474000D02*
X228092000Y-112014000D01*
X221742000Y-109474000D02*
X225552000Y-109474000D01*
X186436000Y-107442000D02*
X188468000Y-105410000D01*
X195072000Y-105410000D02*
X197612000Y-107950000D01*
X251460000Y-98298000D02*
X254228000Y-98298000D01*
X213106000Y-109982000D02*
X214630000Y-111506000D01*
%TO.N,/~{INH}*%
X241808000Y-98298000D02*
X241554000Y-98044000D01*
X198628000Y-100076000D02*
X201676000Y-103124000D01*
X177038000Y-99568000D02*
X196596000Y-99568000D01*
X243845000Y-100599000D02*
X243845000Y-100335000D01*
X243845000Y-100335000D02*
X241808000Y-98298000D01*
X241808000Y-103124000D02*
X243845000Y-101087000D01*
X171704000Y-93218000D02*
X177038000Y-99568000D01*
X241554000Y-98044000D02*
X238506000Y-98044000D01*
X233192000Y-70866000D02*
X231145000Y-72913000D01*
X197104000Y-100076000D02*
X198628000Y-100076000D01*
X237490000Y-70866000D02*
X233192000Y-70866000D01*
X165826000Y-93020000D02*
X171704000Y-93218000D01*
X201676000Y-103124000D02*
X241808000Y-103124000D01*
X243845000Y-101087000D02*
X243845000Y-100599000D01*
X196596000Y-99568000D02*
X197104000Y-100076000D01*
%TO.N,/F4M*%
X164846000Y-91694000D02*
X169418000Y-91694000D01*
X170942000Y-90424000D02*
X185166000Y-90424000D01*
X189230000Y-89408000D02*
X189738000Y-88900000D01*
X169418000Y-91694000D02*
X170942000Y-90424000D01*
X162026000Y-93020000D02*
X164846000Y-91694000D01*
X185166000Y-90424000D02*
X186182000Y-89408000D01*
X186182000Y-89408000D02*
X189230000Y-89408000D01*
%TO.N,/\u03C61*%
X162026000Y-95560000D02*
X164846000Y-94234000D01*
X201168000Y-103632000D02*
X205994000Y-103632000D01*
X176530000Y-100330000D02*
X196088000Y-100330000D01*
X196850000Y-101092000D02*
X198374000Y-101092000D01*
X171450000Y-94488000D02*
X176530000Y-100330000D01*
X196088000Y-100330000D02*
X196596000Y-100838000D01*
X198374000Y-101092000D02*
X198628000Y-101092000D01*
X198628000Y-101092000D02*
X201168000Y-103632000D01*
X205994000Y-103632000D02*
X217170000Y-103632000D01*
X164846000Y-94234000D02*
X171450000Y-94488000D01*
X217170000Y-103632000D02*
X217932000Y-104394000D01*
X196596000Y-100838000D02*
X196850000Y-101092000D01*
%TO.N,/1C5*%
X192278000Y-89408000D02*
X243078000Y-89408000D01*
X190246000Y-87376000D02*
X192278000Y-89408000D01*
X184658000Y-89408000D02*
X186690000Y-87376000D01*
X246385000Y-92715000D02*
X246385000Y-94249000D01*
X169164000Y-90424000D02*
X170434000Y-89408000D01*
X186690000Y-87376000D02*
X190246000Y-87376000D01*
X165826000Y-90480000D02*
X169164000Y-90424000D01*
X170434000Y-89408000D02*
X184658000Y-89408000D01*
X243078000Y-89408000D02*
X246385000Y-92715000D01*
%TO.N,/~{RAS}*%
X201168000Y-83058000D02*
X207518000Y-83058000D01*
X207518000Y-83058000D02*
X210063000Y-85603000D01*
X169418000Y-81280000D02*
X179832000Y-81280000D01*
X169164000Y-81534000D02*
X169418000Y-81280000D01*
X199898000Y-81788000D02*
X201168000Y-83058000D01*
X179832000Y-81280000D02*
X180340000Y-81788000D01*
X162026000Y-82860000D02*
X164592000Y-81534000D01*
X180340000Y-81788000D02*
X199898000Y-81788000D01*
X164592000Y-81534000D02*
X169164000Y-81534000D01*
X210063000Y-85603000D02*
X210063000Y-86629000D01*
%TO.N,/J3P3*%
X162026000Y-98100000D02*
X164592000Y-97028000D01*
X165100000Y-96774000D02*
X170688000Y-97028000D01*
X170688000Y-97028000D02*
X172974000Y-99568000D01*
X164592000Y-97028000D02*
X165100000Y-96774000D01*
%TO.N,/~{G}*%
X165354000Y-89154000D02*
X168910000Y-89154000D01*
X182372000Y-85598000D02*
X193802000Y-85598000D01*
X193802000Y-85598000D02*
X194833000Y-86629000D01*
X170434000Y-87630000D02*
X180340000Y-87630000D01*
X168910000Y-89154000D02*
X170434000Y-87630000D01*
X162026000Y-90480000D02*
X165354000Y-89154000D01*
X180340000Y-87630000D02*
X182372000Y-85598000D01*
X194833000Y-86629000D02*
X202443000Y-86629000D01*
%TO.N,/~{CAS}*%
X238252000Y-101854000D02*
X237982000Y-102124000D01*
X174244000Y-92964000D02*
X175514000Y-91694000D01*
X188468000Y-98806000D02*
X178054000Y-98806000D01*
X201977010Y-102124000D02*
X201199010Y-101346000D01*
X168656000Y-86614000D02*
X169672000Y-85852000D01*
X175514000Y-91694000D02*
X175768000Y-91694000D01*
X169672000Y-85852000D02*
X176784000Y-85852000D01*
X197866000Y-99314000D02*
X197612000Y-99060000D01*
X162026000Y-87940000D02*
X165100000Y-86614000D01*
X197612000Y-99060000D02*
X197358000Y-98806000D01*
X238765000Y-100599000D02*
X238765000Y-101341000D01*
X199136000Y-99314000D02*
X197866000Y-99314000D01*
X165100000Y-86614000D02*
X168656000Y-86614000D01*
X237982000Y-102124000D02*
X233680000Y-102124000D01*
X176784000Y-85852000D02*
X177546000Y-85598000D01*
X201168000Y-101346000D02*
X199136000Y-99314000D01*
X238765000Y-101341000D02*
X238252000Y-101854000D01*
X174244000Y-94996000D02*
X174244000Y-92964000D01*
X233680000Y-102124000D02*
X201977010Y-102124000D01*
X201199010Y-101346000D02*
X201168000Y-101346000D01*
X178054000Y-98806000D02*
X174244000Y-94996000D01*
X197358000Y-98806000D02*
X188468000Y-98806000D01*
%TO.N,/~{W}*%
X169926000Y-83058000D02*
X179324000Y-83058000D01*
X194056000Y-84582000D02*
X195326000Y-85852000D01*
X195326000Y-85852000D02*
X197612000Y-85852000D01*
X198882000Y-84582000D02*
X203708000Y-84582000D01*
X165354000Y-84074000D02*
X168402000Y-84074000D01*
X179324000Y-83058000D02*
X180848000Y-84582000D01*
X168402000Y-84074000D02*
X169926000Y-83058000D01*
X162026000Y-85400000D02*
X165354000Y-84074000D01*
X197612000Y-85852000D02*
X198882000Y-84582000D01*
X180848000Y-84582000D02*
X194056000Y-84582000D01*
%TO.N,/J4P3*%
X204470000Y-97536000D02*
X205740000Y-98806000D01*
X199644000Y-97028000D02*
X200152000Y-97536000D01*
X182372000Y-97028000D02*
X199644000Y-97028000D01*
X176022000Y-105918000D02*
X177800000Y-105918000D01*
X169418000Y-98298000D02*
X176022000Y-105918000D01*
X213868000Y-98806000D02*
X215143000Y-100081000D01*
X179324000Y-96520000D02*
X181864000Y-96520000D01*
X200152000Y-97536000D02*
X204470000Y-97536000D01*
X165826000Y-98100000D02*
X169418000Y-98298000D01*
X205740000Y-98806000D02*
X213868000Y-98806000D01*
X215143000Y-100081000D02*
X215143000Y-100599000D01*
X181864000Y-96520000D02*
X182372000Y-97028000D01*
X178308000Y-97536000D02*
X179324000Y-96520000D01*
%TO.N,/J4P4*%
X181356000Y-104394000D02*
X181864000Y-104902000D01*
X181864000Y-104902000D02*
X181864000Y-105664000D01*
X165826000Y-95560000D02*
X171450000Y-95758000D01*
X176022000Y-104394000D02*
X181356000Y-104394000D01*
X175768000Y-104140000D02*
X176022000Y-104394000D01*
X174244000Y-102616000D02*
X175768000Y-104140000D01*
X174244000Y-99314000D02*
X174244000Y-102616000D01*
X171450000Y-95758000D02*
X174244000Y-99314000D01*
%TO.N,/J4P7*%
X207518000Y-72898000D02*
X207518000Y-72390000D01*
X179324000Y-86614000D02*
X180086000Y-86360000D01*
X168656000Y-87884000D02*
X169672000Y-86868000D01*
X169672000Y-86868000D02*
X169926000Y-86614000D01*
X201930000Y-71120000D02*
X197866000Y-75946000D01*
X180594000Y-75946000D02*
X180340000Y-76200000D01*
X207518000Y-72390000D02*
X206248000Y-71120000D01*
X165826000Y-87940000D02*
X168656000Y-87884000D01*
X169926000Y-86614000D02*
X179324000Y-86614000D01*
X197866000Y-75946000D02*
X180594000Y-75946000D01*
X206248000Y-71120000D02*
X201930000Y-71120000D01*
%TO.N,/J4P8*%
X180086000Y-80518000D02*
X179578000Y-80010000D01*
X188468000Y-81026000D02*
X180594000Y-81026000D01*
X200406000Y-81026000D02*
X188468000Y-81026000D01*
X168402000Y-85344000D02*
X169672000Y-84328000D01*
X169672000Y-84328000D02*
X174752000Y-84328000D01*
X201676000Y-82296000D02*
X201422000Y-82042000D01*
X238765000Y-86863000D02*
X236982000Y-88646000D01*
X201422000Y-82042000D02*
X200406000Y-81026000D01*
X238765000Y-86629000D02*
X238765000Y-86863000D01*
X179578000Y-80010000D02*
X175514000Y-80010000D01*
X165826000Y-85400000D02*
X168402000Y-85344000D01*
X174752000Y-84328000D02*
X175514000Y-84582000D01*
X217424000Y-82296000D02*
X201676000Y-82296000D01*
X222504000Y-88646000D02*
X217424000Y-82296000D01*
X236982000Y-88646000D02*
X222504000Y-88646000D01*
X180594000Y-81026000D02*
X180086000Y-80518000D01*
%TO.N,Net-(U10-Pad10)*%
X246385000Y-108219000D02*
X246385000Y-108209000D01*
X194072000Y-88154000D02*
X193548000Y-87630000D01*
X246385000Y-108209000D02*
X243840000Y-105664000D01*
X196342000Y-102362000D02*
X195072000Y-103902000D01*
X195072000Y-103902000D02*
X193026000Y-103902000D01*
X200660000Y-104394000D02*
X198374000Y-102362000D01*
X206248000Y-88138000D02*
X206232000Y-88154000D01*
X207523000Y-86863000D02*
X206248000Y-88138000D01*
X215138000Y-104394000D02*
X200660000Y-104394000D01*
X207523000Y-86629000D02*
X207523000Y-86863000D01*
X216408000Y-105664000D02*
X215138000Y-104394000D01*
X243840000Y-105664000D02*
X216408000Y-105664000D01*
X198374000Y-102362000D02*
X196342000Y-102362000D01*
X206232000Y-88154000D02*
X194072000Y-88154000D01*
X193026000Y-103902000D02*
X191501000Y-102377000D01*
%TO.N,Net-(U10-Pad5)*%
X207523000Y-94249000D02*
X207523000Y-93477000D01*
X188214000Y-91948000D02*
X187452000Y-92710000D01*
X207523000Y-93477000D02*
X205994000Y-91948000D01*
X205994000Y-91948000D02*
X188214000Y-91948000D01*
%TO.N,Net-(U13-Pad6)*%
X184912000Y-78740000D02*
X184404000Y-79248000D01*
X196850000Y-78740000D02*
X184912000Y-78740000D01*
X204470000Y-79248000D02*
X203962000Y-78740000D01*
X204978000Y-79756000D02*
X204470000Y-79248000D01*
X203962000Y-78740000D02*
X196850000Y-78740000D01*
X204978000Y-80518000D02*
X204978000Y-79756000D01*
%TO.N,Net-(U10-Pad3)*%
X185420000Y-92456000D02*
X182626000Y-92456000D01*
X212603000Y-93223000D02*
X210566000Y-91186000D01*
X212603000Y-94249000D02*
X212603000Y-93223000D01*
X210566000Y-91186000D02*
X186690000Y-91186000D01*
X185928000Y-91948000D02*
X185420000Y-92456000D01*
X186690000Y-91186000D02*
X185928000Y-91948000D01*
%TO.N,Net-(U12-Pad2)*%
X196665273Y-103124000D02*
X195326000Y-104648000D01*
X181341000Y-102855000D02*
X181341000Y-102377000D01*
X191024000Y-103902000D02*
X182372000Y-103902000D01*
X182372000Y-103902000D02*
X181341000Y-102855000D01*
X243845000Y-107955000D02*
X242570000Y-106680000D01*
X191770000Y-104648000D02*
X191024000Y-103902000D01*
X216154000Y-106680000D02*
X214884000Y-105410000D01*
X243845000Y-108219000D02*
X243845000Y-107955000D01*
X200406000Y-105410000D02*
X198120000Y-103124000D01*
X242570000Y-106680000D02*
X216154000Y-106680000D01*
X214884000Y-105410000D02*
X200406000Y-105410000D01*
X198120000Y-103124000D02*
X196665273Y-103124000D01*
X195326000Y-104648000D02*
X191770000Y-104648000D01*
%TO.N,Net-(U11-Pad9)*%
X204983000Y-99827000D02*
X203454000Y-98298000D01*
X181102000Y-98044000D02*
X180848000Y-97790000D01*
X203454000Y-98298000D02*
X198374000Y-98298000D01*
X204983000Y-100599000D02*
X204983000Y-99827000D01*
X198120000Y-98044000D02*
X181102000Y-98044000D01*
X198374000Y-98298000D02*
X198120000Y-98044000D01*
%TO.N,Net-(U10-Pad2)*%
X215143000Y-93223000D02*
X215143000Y-94249000D01*
X186436000Y-90424000D02*
X212344000Y-90424000D01*
X178801000Y-93741000D02*
X181356000Y-91186000D01*
X178801000Y-94757000D02*
X178801000Y-93741000D01*
X185674000Y-91186000D02*
X186436000Y-90424000D01*
X212344000Y-90424000D02*
X215143000Y-93223000D01*
X181356000Y-91186000D02*
X185674000Y-91186000D01*
%TO.N,Net-(U14-Pad4)*%
X206756000Y-97282000D02*
X224536000Y-97282000D01*
X198374000Y-92710000D02*
X201438000Y-95774000D01*
X188961000Y-93995000D02*
X190246000Y-92710000D01*
X205248000Y-95774000D02*
X206756000Y-97282000D01*
X237236000Y-92202000D02*
X238765000Y-93731000D01*
X230124000Y-92202000D02*
X237236000Y-92202000D01*
X190246000Y-92710000D02*
X198374000Y-92710000D01*
X238765000Y-93731000D02*
X238765000Y-94249000D01*
X201438000Y-95774000D02*
X205248000Y-95774000D01*
X188961000Y-94757000D02*
X188961000Y-93995000D01*
X224536000Y-97282000D02*
X230124000Y-92202000D01*
%TO.N,Net-(U12-Pad10)*%
X200152000Y-96266000D02*
X200406000Y-96520000D01*
X192802000Y-96282000D02*
X199882000Y-96282000D01*
X200406000Y-96520000D02*
X204724000Y-96520000D01*
X234442000Y-98044000D02*
X236225000Y-99827000D01*
X206248000Y-98044000D02*
X234442000Y-98044000D01*
X236225000Y-99827000D02*
X236225000Y-100599000D01*
X191501000Y-94757000D02*
X191501000Y-94981000D01*
X191501000Y-94981000D02*
X192802000Y-96282000D01*
X204724000Y-96520000D02*
X206248000Y-98044000D01*
X199898000Y-96266000D02*
X200152000Y-96266000D01*
X199882000Y-96282000D02*
X199898000Y-96266000D01*
%TO.N,Net-(U10-Pad4)*%
X241305000Y-93467000D02*
X241554000Y-93218000D01*
X210073000Y-94249000D02*
X210063000Y-94249000D01*
X223250000Y-95774000D02*
X211598000Y-95774000D01*
X211598000Y-95774000D02*
X210073000Y-94249000D01*
X241305000Y-94249000D02*
X241305000Y-93467000D01*
X241554000Y-91440000D02*
X240538000Y-90424000D01*
X229362000Y-90424000D02*
X223250000Y-95774000D01*
X240538000Y-90424000D02*
X229362000Y-90424000D01*
X241554000Y-93218000D02*
X241554000Y-91440000D01*
%TO.N,Net-(U10-Pad6)*%
X223774000Y-96520000D02*
X229616000Y-91440000D01*
X204983000Y-94493000D02*
X207010000Y-96520000D01*
X238506000Y-91440000D02*
X239014000Y-91948000D01*
X242824000Y-74930000D02*
X243845000Y-73909000D01*
X204983000Y-94249000D02*
X204983000Y-94493000D01*
X243845000Y-73909000D02*
X243845000Y-72913000D01*
X240030000Y-74930000D02*
X242824000Y-74930000D01*
X207010000Y-96520000D02*
X223774000Y-96520000D01*
X229616000Y-91440000D02*
X238506000Y-91440000D01*
%TO.N,Net-(U11-Pad2)*%
X216668000Y-109744000D02*
X219186000Y-109744000D01*
X221234000Y-107696000D02*
X226568000Y-107696000D01*
X226568000Y-107696000D02*
X228854000Y-109982000D01*
X228854000Y-109982000D02*
X232410000Y-109982000D01*
X215143000Y-108219000D02*
X216668000Y-109744000D01*
X219186000Y-109744000D02*
X221234000Y-107696000D01*
%TO.N,Net-(U11-Pad3)*%
X221742000Y-108458000D02*
X226060000Y-108458000D01*
X215138000Y-110490000D02*
X219710000Y-110490000D01*
X234442000Y-109982000D02*
X240030000Y-109982000D01*
X226060000Y-108458000D02*
X228600000Y-110998000D01*
X228600000Y-110998000D02*
X233426000Y-110998000D01*
X212867000Y-108219000D02*
X215138000Y-110490000D01*
X219710000Y-110490000D02*
X221742000Y-108458000D01*
X212603000Y-108219000D02*
X212867000Y-108219000D01*
X233426000Y-110998000D02*
X234442000Y-109982000D01*
%TO.N,Net-(U11-Pad11)*%
X201977010Y-109744000D02*
X201961010Y-109728000D01*
X195326000Y-113792000D02*
X190246000Y-113792000D01*
X199390000Y-109728000D02*
X195326000Y-113792000D01*
X190246000Y-113792000D02*
X188976000Y-115062000D01*
X209058000Y-109744000D02*
X201977010Y-109744000D01*
X201961010Y-109728000D02*
X199390000Y-109728000D01*
X209804000Y-110490000D02*
X209058000Y-109744000D01*
X188976000Y-115062000D02*
X188976000Y-115570000D01*
%TO.N,Net-(U12-Pad8)*%
X241808000Y-96520000D02*
X232664000Y-96520000D01*
X231648000Y-96520000D02*
X231140000Y-97028000D01*
X242570000Y-97282000D02*
X241808000Y-96520000D01*
X232664000Y-96520000D02*
X231648000Y-96520000D01*
X243586000Y-98298000D02*
X242570000Y-97282000D01*
X245110000Y-98298000D02*
X243586000Y-98298000D01*
%TO.N,Net-(U13-Pad8)*%
X217678000Y-76200000D02*
X225298000Y-86106000D01*
X204724000Y-76200000D02*
X217678000Y-76200000D01*
X202946000Y-73406000D02*
X202946000Y-74422000D01*
X202438000Y-72898000D02*
X202946000Y-73406000D01*
X225298000Y-86106000D02*
X227584000Y-86106000D01*
X227584000Y-86106000D02*
X228854000Y-84836000D01*
X228854000Y-84836000D02*
X232156000Y-84836000D01*
X202946000Y-74422000D02*
X204724000Y-76200000D01*
X232156000Y-84836000D02*
X233685000Y-86365000D01*
X233685000Y-86365000D02*
X233685000Y-86629000D01*
%TO.N,Net-(U13-Pad11)*%
X219710000Y-71120000D02*
X211582000Y-71120000D01*
X211582000Y-71120000D02*
X210058000Y-72644000D01*
X236225000Y-72913000D02*
X234462000Y-74676000D01*
X234462000Y-74676000D02*
X223266000Y-74676000D01*
X223266000Y-74676000D02*
X219710000Y-71120000D01*
X210058000Y-72644000D02*
X210058000Y-72898000D01*
%TO.N,Net-(U13-Pad12)*%
X222758000Y-75692000D02*
X222504000Y-75438000D01*
X228844000Y-75692000D02*
X222758000Y-75692000D01*
X212598000Y-73660000D02*
X212598000Y-72898000D01*
X214376000Y-75438000D02*
X212598000Y-73660000D01*
X222504000Y-75438000D02*
X214376000Y-75438000D01*
X233685000Y-80533000D02*
X228844000Y-75692000D01*
%TO.N,Net-(R4-Pad1)*%
X182372000Y-87630000D02*
X182372000Y-88138000D01*
X192786000Y-88958000D02*
X190500000Y-86360000D01*
X212603000Y-86629000D02*
X212603000Y-87117000D01*
X213106000Y-83820000D02*
X212603000Y-86629000D01*
X210762000Y-88958000D02*
X192786000Y-88958000D01*
X183642000Y-86360000D02*
X182372000Y-87630000D01*
X212603000Y-87117000D02*
X210762000Y-88958000D01*
X210104000Y-83820000D02*
X213106000Y-83820000D01*
X190500000Y-86360000D02*
X183642000Y-86360000D01*
%TD*%
%TA.AperFunction,Conductor*%
%TO.N,GND*%
G36*
X160528000Y-100330000D02*
G01*
X158934500Y-100330000D01*
X158934500Y-91440000D01*
X160528000Y-91440000D01*
X160528000Y-100330000D01*
G37*
%TD.AperFunction*%
%TD*%
%TA.AperFunction,Conductor*%
%TO.N,GND*%
G36*
X258459621Y-65408502D02*
G01*
X258506114Y-65462158D01*
X258517500Y-65514500D01*
X258517500Y-129745500D01*
X258497498Y-129813621D01*
X258443842Y-129860114D01*
X258391500Y-129871500D01*
X250760500Y-129871500D01*
X250692379Y-129851498D01*
X250645886Y-129797842D01*
X250634500Y-129745500D01*
X250634500Y-127788623D01*
X250634502Y-127787853D01*
X250634800Y-127739102D01*
X250634976Y-127710279D01*
X250626850Y-127681847D01*
X250623272Y-127665085D01*
X250620352Y-127644698D01*
X250619080Y-127635813D01*
X250608451Y-127612436D01*
X250602004Y-127594913D01*
X250597416Y-127578862D01*
X250594949Y-127570229D01*
X250590156Y-127562632D01*
X250579170Y-127545220D01*
X250571030Y-127530135D01*
X250568564Y-127524711D01*
X250558792Y-127503218D01*
X250542030Y-127483765D01*
X250530927Y-127468761D01*
X250517224Y-127447042D01*
X250510499Y-127441103D01*
X250510496Y-127441099D01*
X250495062Y-127427468D01*
X250483018Y-127415276D01*
X250469573Y-127399673D01*
X250469570Y-127399671D01*
X250463713Y-127392873D01*
X250450009Y-127383990D01*
X250442165Y-127378906D01*
X250427291Y-127367615D01*
X250414783Y-127356569D01*
X250414782Y-127356568D01*
X250408049Y-127350622D01*
X250381287Y-127338057D01*
X250366309Y-127329737D01*
X250349017Y-127318529D01*
X250349012Y-127318527D01*
X250341485Y-127313648D01*
X250332892Y-127311078D01*
X250332887Y-127311076D01*
X250316880Y-127306289D01*
X250299436Y-127299628D01*
X250284324Y-127292533D01*
X250284322Y-127292532D01*
X250276200Y-127288719D01*
X250267333Y-127287338D01*
X250267332Y-127287338D01*
X250256478Y-127285648D01*
X250246983Y-127284170D01*
X250230268Y-127280387D01*
X250210534Y-127274485D01*
X250210528Y-127274484D01*
X250201934Y-127271914D01*
X250192963Y-127271859D01*
X250192962Y-127271859D01*
X250182903Y-127271798D01*
X250167494Y-127271704D01*
X250166711Y-127271671D01*
X250165614Y-127271500D01*
X250134623Y-127271500D01*
X250133853Y-127271498D01*
X250060215Y-127271048D01*
X250060214Y-127271048D01*
X250056279Y-127271024D01*
X250054935Y-127271408D01*
X250053590Y-127271500D01*
X247634623Y-127271500D01*
X247633853Y-127271498D01*
X247633037Y-127271493D01*
X247556279Y-127271024D01*
X247533918Y-127277415D01*
X247527847Y-127279150D01*
X247511085Y-127282728D01*
X247481813Y-127286920D01*
X247473645Y-127290634D01*
X247473644Y-127290634D01*
X247458438Y-127297548D01*
X247440914Y-127303996D01*
X247416229Y-127311051D01*
X247408635Y-127315843D01*
X247408632Y-127315844D01*
X247391220Y-127326830D01*
X247376137Y-127334969D01*
X247349218Y-127347208D01*
X247342416Y-127353069D01*
X247329765Y-127363970D01*
X247314761Y-127375073D01*
X247293042Y-127388776D01*
X247287103Y-127395501D01*
X247287099Y-127395504D01*
X247273468Y-127410938D01*
X247261276Y-127422982D01*
X247245673Y-127436427D01*
X247245671Y-127436430D01*
X247238873Y-127442287D01*
X247233993Y-127449816D01*
X247233992Y-127449817D01*
X247224906Y-127463835D01*
X247213615Y-127478709D01*
X247202569Y-127491217D01*
X247196622Y-127497951D01*
X247190312Y-127511391D01*
X247184058Y-127524711D01*
X247175737Y-127539691D01*
X247164529Y-127556983D01*
X247164527Y-127556988D01*
X247159648Y-127564515D01*
X247157078Y-127573108D01*
X247157076Y-127573113D01*
X247152289Y-127589120D01*
X247145628Y-127606564D01*
X247138533Y-127621676D01*
X247134719Y-127629800D01*
X247133338Y-127638667D01*
X247133338Y-127638668D01*
X247130170Y-127659015D01*
X247126387Y-127675732D01*
X247120485Y-127695466D01*
X247120484Y-127695472D01*
X247117914Y-127704066D01*
X247117859Y-127713037D01*
X247117859Y-127713038D01*
X247117704Y-127738497D01*
X247117671Y-127739289D01*
X247117500Y-127740386D01*
X247117500Y-127771377D01*
X247117498Y-127772147D01*
X247117024Y-127849721D01*
X247117408Y-127851065D01*
X247117500Y-127852410D01*
X247117500Y-129745500D01*
X247097498Y-129813621D01*
X247043842Y-129860114D01*
X246991500Y-129871500D01*
X210610500Y-129871500D01*
X210542379Y-129851498D01*
X210495886Y-129797842D01*
X210484500Y-129745500D01*
X210484500Y-127788623D01*
X210484502Y-127787853D01*
X210484800Y-127739102D01*
X210484976Y-127710279D01*
X210476850Y-127681847D01*
X210473272Y-127665085D01*
X210470352Y-127644698D01*
X210469080Y-127635813D01*
X210458451Y-127612436D01*
X210452004Y-127594913D01*
X210447416Y-127578862D01*
X210444949Y-127570229D01*
X210440156Y-127562632D01*
X210429170Y-127545220D01*
X210421030Y-127530135D01*
X210418564Y-127524711D01*
X210408792Y-127503218D01*
X210392030Y-127483765D01*
X210380927Y-127468761D01*
X210367224Y-127447042D01*
X210360499Y-127441103D01*
X210360496Y-127441099D01*
X210345062Y-127427468D01*
X210333018Y-127415276D01*
X210319573Y-127399673D01*
X210319570Y-127399671D01*
X210313713Y-127392873D01*
X210300009Y-127383990D01*
X210292165Y-127378906D01*
X210277291Y-127367615D01*
X210264783Y-127356569D01*
X210264782Y-127356568D01*
X210258049Y-127350622D01*
X210231287Y-127338057D01*
X210216309Y-127329737D01*
X210199017Y-127318529D01*
X210199012Y-127318527D01*
X210191485Y-127313648D01*
X210182892Y-127311078D01*
X210182887Y-127311076D01*
X210166880Y-127306289D01*
X210149436Y-127299628D01*
X210134324Y-127292533D01*
X210134322Y-127292532D01*
X210126200Y-127288719D01*
X210117333Y-127287338D01*
X210117332Y-127287338D01*
X210106478Y-127285648D01*
X210096983Y-127284170D01*
X210080268Y-127280387D01*
X210060534Y-127274485D01*
X210060528Y-127274484D01*
X210051934Y-127271914D01*
X210042963Y-127271859D01*
X210042962Y-127271859D01*
X210032903Y-127271798D01*
X210017494Y-127271704D01*
X210016711Y-127271671D01*
X210015614Y-127271500D01*
X209984623Y-127271500D01*
X209983853Y-127271498D01*
X209910215Y-127271048D01*
X209910214Y-127271048D01*
X209906279Y-127271024D01*
X209904935Y-127271408D01*
X209903590Y-127271500D01*
X207484623Y-127271500D01*
X207483853Y-127271498D01*
X207483037Y-127271493D01*
X207406279Y-127271024D01*
X207383918Y-127277415D01*
X207377847Y-127279150D01*
X207361085Y-127282728D01*
X207331813Y-127286920D01*
X207323645Y-127290634D01*
X207323644Y-127290634D01*
X207308438Y-127297548D01*
X207290914Y-127303996D01*
X207266229Y-127311051D01*
X207258635Y-127315843D01*
X207258632Y-127315844D01*
X207241220Y-127326830D01*
X207226137Y-127334969D01*
X207199218Y-127347208D01*
X207192416Y-127353069D01*
X207179765Y-127363970D01*
X207164761Y-127375073D01*
X207143042Y-127388776D01*
X207137103Y-127395501D01*
X207137099Y-127395504D01*
X207123468Y-127410938D01*
X207111276Y-127422982D01*
X207095673Y-127436427D01*
X207095671Y-127436430D01*
X207088873Y-127442287D01*
X207083993Y-127449816D01*
X207083992Y-127449817D01*
X207074906Y-127463835D01*
X207063615Y-127478709D01*
X207052569Y-127491217D01*
X207046622Y-127497951D01*
X207040312Y-127511391D01*
X207034058Y-127524711D01*
X207025737Y-127539691D01*
X207014529Y-127556983D01*
X207014527Y-127556988D01*
X207009648Y-127564515D01*
X207007078Y-127573108D01*
X207007076Y-127573113D01*
X207002289Y-127589120D01*
X206995628Y-127606564D01*
X206988533Y-127621676D01*
X206984719Y-127629800D01*
X206983338Y-127638667D01*
X206983338Y-127638668D01*
X206980170Y-127659015D01*
X206976387Y-127675732D01*
X206970485Y-127695466D01*
X206970484Y-127695472D01*
X206967914Y-127704066D01*
X206967859Y-127713037D01*
X206967859Y-127713038D01*
X206967704Y-127738497D01*
X206967671Y-127739289D01*
X206967500Y-127740386D01*
X206967500Y-127771377D01*
X206967498Y-127772147D01*
X206967024Y-127849721D01*
X206967408Y-127851065D01*
X206967500Y-127852410D01*
X206967500Y-129745500D01*
X206947498Y-129813621D01*
X206893842Y-129860114D01*
X206841500Y-129871500D01*
X170460500Y-129871500D01*
X170392379Y-129851498D01*
X170345886Y-129797842D01*
X170334500Y-129745500D01*
X170334500Y-127788623D01*
X170334502Y-127787853D01*
X170334800Y-127739102D01*
X170334976Y-127710279D01*
X170326850Y-127681847D01*
X170323272Y-127665085D01*
X170320352Y-127644698D01*
X170319080Y-127635813D01*
X170308451Y-127612436D01*
X170302004Y-127594913D01*
X170297416Y-127578862D01*
X170294949Y-127570229D01*
X170290156Y-127562632D01*
X170279170Y-127545220D01*
X170271030Y-127530135D01*
X170268564Y-127524711D01*
X170258792Y-127503218D01*
X170242030Y-127483765D01*
X170230927Y-127468761D01*
X170217224Y-127447042D01*
X170210499Y-127441103D01*
X170210496Y-127441099D01*
X170195062Y-127427468D01*
X170183018Y-127415276D01*
X170169573Y-127399673D01*
X170169570Y-127399671D01*
X170163713Y-127392873D01*
X170150009Y-127383990D01*
X170142165Y-127378906D01*
X170127291Y-127367615D01*
X170114783Y-127356569D01*
X170114782Y-127356568D01*
X170108049Y-127350622D01*
X170081287Y-127338057D01*
X170066309Y-127329737D01*
X170049017Y-127318529D01*
X170049012Y-127318527D01*
X170041485Y-127313648D01*
X170032892Y-127311078D01*
X170032887Y-127311076D01*
X170016880Y-127306289D01*
X169999436Y-127299628D01*
X169984324Y-127292533D01*
X169984322Y-127292532D01*
X169976200Y-127288719D01*
X169967333Y-127287338D01*
X169967332Y-127287338D01*
X169956478Y-127285648D01*
X169946983Y-127284170D01*
X169930268Y-127280387D01*
X169910534Y-127274485D01*
X169910528Y-127274484D01*
X169901934Y-127271914D01*
X169892963Y-127271859D01*
X169892962Y-127271859D01*
X169882903Y-127271798D01*
X169867494Y-127271704D01*
X169866711Y-127271671D01*
X169865614Y-127271500D01*
X169834623Y-127271500D01*
X169833853Y-127271498D01*
X169760215Y-127271048D01*
X169760214Y-127271048D01*
X169756279Y-127271024D01*
X169754935Y-127271408D01*
X169753590Y-127271500D01*
X167334623Y-127271500D01*
X167333853Y-127271498D01*
X167333037Y-127271493D01*
X167256279Y-127271024D01*
X167233918Y-127277415D01*
X167227847Y-127279150D01*
X167211085Y-127282728D01*
X167181813Y-127286920D01*
X167173645Y-127290634D01*
X167173644Y-127290634D01*
X167158438Y-127297548D01*
X167140914Y-127303996D01*
X167116229Y-127311051D01*
X167108635Y-127315843D01*
X167108632Y-127315844D01*
X167091220Y-127326830D01*
X167076137Y-127334969D01*
X167049218Y-127347208D01*
X167042416Y-127353069D01*
X167029765Y-127363970D01*
X167014761Y-127375073D01*
X166993042Y-127388776D01*
X166987103Y-127395501D01*
X166987099Y-127395504D01*
X166973468Y-127410938D01*
X166961276Y-127422982D01*
X166945673Y-127436427D01*
X166945671Y-127436430D01*
X166938873Y-127442287D01*
X166933993Y-127449816D01*
X166933992Y-127449817D01*
X166924906Y-127463835D01*
X166913615Y-127478709D01*
X166902569Y-127491217D01*
X166896622Y-127497951D01*
X166890312Y-127511391D01*
X166884058Y-127524711D01*
X166875737Y-127539691D01*
X166864529Y-127556983D01*
X166864527Y-127556988D01*
X166859648Y-127564515D01*
X166857078Y-127573108D01*
X166857076Y-127573113D01*
X166852289Y-127589120D01*
X166845628Y-127606564D01*
X166838533Y-127621676D01*
X166834719Y-127629800D01*
X166833338Y-127638667D01*
X166833338Y-127638668D01*
X166830170Y-127659015D01*
X166826387Y-127675732D01*
X166820485Y-127695466D01*
X166820484Y-127695472D01*
X166817914Y-127704066D01*
X166817859Y-127713037D01*
X166817859Y-127713038D01*
X166817704Y-127738497D01*
X166817671Y-127739289D01*
X166817500Y-127740386D01*
X166817500Y-127771377D01*
X166817498Y-127772147D01*
X166817024Y-127849721D01*
X166817408Y-127851065D01*
X166817500Y-127852410D01*
X166817500Y-129745500D01*
X166797498Y-129813621D01*
X166743842Y-129860114D01*
X166691500Y-129871500D01*
X159060500Y-129871500D01*
X158992379Y-129851498D01*
X158945886Y-129797842D01*
X158934500Y-129745500D01*
X158934500Y-122353089D01*
X230770263Y-122353089D01*
X230771822Y-122361265D01*
X230771822Y-122361367D01*
X230772112Y-122365712D01*
X230772127Y-122365817D01*
X230771669Y-122374131D01*
X230773711Y-122382870D01*
X230785271Y-122432354D01*
X230786343Y-122437405D01*
X230791229Y-122463026D01*
X230792866Y-122467613D01*
X230794144Y-122472308D01*
X230793533Y-122472474D01*
X230799330Y-122501388D01*
X230799927Y-122512708D01*
X230800078Y-122516906D01*
X230802227Y-122628253D01*
X230802249Y-122630071D01*
X230803108Y-122806707D01*
X230803109Y-122807512D01*
X230802731Y-123055767D01*
X230802730Y-123056046D01*
X230802301Y-123170784D01*
X230802176Y-123174400D01*
X230801719Y-123177585D01*
X230801777Y-123182459D01*
X230802130Y-123212254D01*
X230802138Y-123214219D01*
X230802020Y-123245776D01*
X230802461Y-123248942D01*
X230802609Y-123252663D01*
X230804367Y-123400927D01*
X230804086Y-123410962D01*
X230803449Y-123420344D01*
X230803117Y-123425228D01*
X230803537Y-123430067D01*
X230803537Y-123430072D01*
X230804492Y-123441071D01*
X230804955Y-123450466D01*
X230805107Y-123463260D01*
X230805793Y-123467678D01*
X230805794Y-123467687D01*
X230807427Y-123478200D01*
X230808448Y-123486641D01*
X230813126Y-123540536D01*
X230813196Y-123543638D01*
X230812627Y-123546705D01*
X230813449Y-123554824D01*
X230819795Y-123617501D01*
X230819961Y-123619267D01*
X230822480Y-123648289D01*
X230823102Y-123650961D01*
X230823356Y-123652915D01*
X230823410Y-123653215D01*
X230823900Y-123658054D01*
X230825129Y-123662761D01*
X230831397Y-123686770D01*
X230832199Y-123690018D01*
X230847005Y-123753592D01*
X230847654Y-123758127D01*
X230847873Y-123758083D01*
X230849635Y-123766885D01*
X230850132Y-123775847D01*
X230853123Y-123784307D01*
X230853124Y-123784310D01*
X230865630Y-123819679D01*
X230868751Y-123829855D01*
X230871075Y-123838757D01*
X230872809Y-123842885D01*
X230872810Y-123842889D01*
X230876171Y-123850891D01*
X230886000Y-123899680D01*
X230886000Y-124714000D01*
X239522000Y-124714000D01*
X239522000Y-120396000D01*
X238545447Y-120396000D01*
X238536693Y-120395605D01*
X238533907Y-120395151D01*
X238529434Y-120395065D01*
X238529430Y-120395065D01*
X238504598Y-120394590D01*
X238501424Y-120394529D01*
X238499173Y-120394465D01*
X238449300Y-120392616D01*
X238443109Y-120392234D01*
X238440238Y-120391986D01*
X238435440Y-120391194D01*
X238422523Y-120391077D01*
X238404750Y-120390916D01*
X238401223Y-120390835D01*
X238383610Y-120390182D01*
X238373572Y-120389810D01*
X238369110Y-120390281D01*
X238364645Y-120390433D01*
X238364638Y-120390226D01*
X238359195Y-120390503D01*
X238278963Y-120389777D01*
X238274090Y-120389592D01*
X238270156Y-120389021D01*
X238236741Y-120389370D01*
X238234283Y-120389372D01*
X238233941Y-120389369D01*
X238203944Y-120389097D01*
X238200019Y-120389623D01*
X238194978Y-120389806D01*
X238167185Y-120390096D01*
X238134214Y-120390440D01*
X238128120Y-120390356D01*
X238124501Y-120390219D01*
X238119673Y-120389660D01*
X238114816Y-120389851D01*
X238089209Y-120390858D01*
X238085572Y-120390948D01*
X238062729Y-120391186D01*
X238062724Y-120391186D01*
X238058253Y-120391233D01*
X238053831Y-120391913D01*
X238049356Y-120392279D01*
X238049342Y-120392106D01*
X238043765Y-120392645D01*
X238032805Y-120393076D01*
X238028297Y-120393172D01*
X238015136Y-120393218D01*
X238004347Y-120393255D01*
X238004346Y-120393255D01*
X237999473Y-120393272D01*
X237994665Y-120394038D01*
X237994120Y-120394082D01*
X237989900Y-120394652D01*
X237988346Y-120394824D01*
X237983868Y-120395000D01*
X237981710Y-120395396D01*
X237970775Y-120396000D01*
X234677301Y-120396000D01*
X234647020Y-120392307D01*
X234637769Y-120390016D01*
X234626580Y-120389026D01*
X234615409Y-120387531D01*
X234611833Y-120386889D01*
X234611829Y-120386889D01*
X234607416Y-120386096D01*
X234602942Y-120385937D01*
X234602939Y-120385937D01*
X234597492Y-120385744D01*
X234587465Y-120385388D01*
X234580850Y-120384978D01*
X234502476Y-120378042D01*
X234489407Y-120376191D01*
X234488111Y-120375938D01*
X234488109Y-120375938D01*
X234483333Y-120375004D01*
X234478476Y-120374816D01*
X234478475Y-120374816D01*
X234460967Y-120374139D01*
X234459492Y-120374082D01*
X234453257Y-120373686D01*
X234437032Y-120372250D01*
X234437027Y-120372250D01*
X234432564Y-120371855D01*
X234428087Y-120372097D01*
X234428084Y-120372097D01*
X234426576Y-120372179D01*
X234425590Y-120372232D01*
X234413931Y-120372321D01*
X234338639Y-120369410D01*
X234310693Y-120368330D01*
X234304240Y-120367914D01*
X234303023Y-120367804D01*
X234298216Y-120366993D01*
X234266793Y-120366591D01*
X234263579Y-120366509D01*
X234235265Y-120365414D01*
X234230810Y-120365877D01*
X234228057Y-120365967D01*
X234222364Y-120366024D01*
X234073109Y-120364116D01*
X234070405Y-120363993D01*
X234067850Y-120363595D01*
X234062994Y-120363593D01*
X234062989Y-120363593D01*
X234032215Y-120363583D01*
X234030649Y-120363573D01*
X234002525Y-120363214D01*
X233998060Y-120363157D01*
X233995508Y-120363489D01*
X233992715Y-120363570D01*
X233781820Y-120363502D01*
X233780864Y-120363467D01*
X233779828Y-120363311D01*
X233776948Y-120363324D01*
X233776937Y-120363324D01*
X233749441Y-120363452D01*
X233741788Y-120363488D01*
X233741265Y-120363489D01*
X233706238Y-120363478D01*
X233705195Y-120363627D01*
X233704231Y-120363663D01*
X233423363Y-120364974D01*
X233423188Y-120364968D01*
X233422980Y-120364937D01*
X233398789Y-120365073D01*
X233383211Y-120365161D01*
X233383090Y-120365162D01*
X233347953Y-120365326D01*
X233347948Y-120365326D01*
X233347351Y-120365329D01*
X233347147Y-120365359D01*
X233346979Y-120365366D01*
X233193635Y-120366232D01*
X233193631Y-120366232D01*
X231786981Y-120374139D01*
X231772866Y-120373426D01*
X231744458Y-120370386D01*
X231744457Y-120370386D01*
X231735533Y-120369431D01*
X231726700Y-120371019D01*
X231726697Y-120371019D01*
X231673246Y-120380628D01*
X231669517Y-120381241D01*
X231631602Y-120386889D01*
X231606877Y-120390572D01*
X231604554Y-120391644D01*
X231574738Y-120396000D01*
X230886000Y-120396000D01*
X230886000Y-121035113D01*
X230876513Y-121080667D01*
X230877093Y-121080868D01*
X230877093Y-121080869D01*
X230875502Y-121085463D01*
X230875500Y-121085468D01*
X230870997Y-121098473D01*
X230868108Y-121106023D01*
X230851031Y-121146695D01*
X230851030Y-121146700D01*
X230847555Y-121154976D01*
X230846543Y-121163894D01*
X230846542Y-121163897D01*
X230842212Y-121202051D01*
X230840676Y-121212009D01*
X230830088Y-121266184D01*
X230828686Y-121272494D01*
X230822978Y-121295381D01*
X230822540Y-121300233D01*
X230822539Y-121300240D01*
X230822356Y-121302266D01*
X230820880Y-121312632D01*
X230820661Y-121314420D01*
X230819801Y-121318821D01*
X230819574Y-121323293D01*
X230818555Y-121343343D01*
X230818210Y-121348236D01*
X230809207Y-121448041D01*
X230807259Y-121461474D01*
X230806242Y-121466545D01*
X230806031Y-121471397D01*
X230806030Y-121471403D01*
X230805160Y-121491387D01*
X230804770Y-121497220D01*
X230803316Y-121513352D01*
X230802814Y-121518914D01*
X230803048Y-121523389D01*
X230803048Y-121523400D01*
X230803125Y-121524870D01*
X230803178Y-121536927D01*
X230798522Y-121643890D01*
X230797840Y-121650457D01*
X230797979Y-121650469D01*
X230797558Y-121655311D01*
X230796762Y-121660123D01*
X230796716Y-121665001D01*
X230796488Y-121688925D01*
X230796375Y-121693202D01*
X230795451Y-121714444D01*
X230795256Y-121718926D01*
X230795698Y-121723391D01*
X230795822Y-121727865D01*
X230795761Y-121727867D01*
X230796056Y-121734484D01*
X230795021Y-121843549D01*
X230794527Y-121850794D01*
X230794590Y-121850797D01*
X230794350Y-121855660D01*
X230793735Y-121860489D01*
X230793871Y-121865351D01*
X230794509Y-121888246D01*
X230794552Y-121892934D01*
X230794318Y-121917602D01*
X230794913Y-121922054D01*
X230795164Y-121926129D01*
X230795778Y-121933767D01*
X230798565Y-122033716D01*
X230798366Y-122045122D01*
X230797691Y-122055875D01*
X230798137Y-122060719D01*
X230798137Y-122060730D01*
X230799462Y-122075125D01*
X230799943Y-122083155D01*
X230800396Y-122099388D01*
X230802362Y-122110836D01*
X230803651Y-122120630D01*
X230803787Y-122122112D01*
X230795301Y-122180423D01*
X230784229Y-122208102D01*
X230783431Y-122216392D01*
X230783397Y-122216505D01*
X230782462Y-122220732D01*
X230782446Y-122220838D01*
X230779672Y-122228694D01*
X230779179Y-122237655D01*
X230776385Y-122288421D01*
X230775995Y-122293577D01*
X230770263Y-122353089D01*
X158934500Y-122353089D01*
X158934500Y-115248761D01*
X163514170Y-115248761D01*
X163515554Y-115324270D01*
X163522345Y-115694803D01*
X163522644Y-115697578D01*
X163564838Y-116089162D01*
X163570138Y-116138353D01*
X163570683Y-116141094D01*
X163570684Y-116141099D01*
X163646472Y-116522105D01*
X163657172Y-116575899D01*
X163657959Y-116578580D01*
X163657960Y-116578586D01*
X163727111Y-116814300D01*
X163782756Y-117003976D01*
X163783776Y-117006572D01*
X163783777Y-117006575D01*
X163927008Y-117371120D01*
X163945896Y-117419194D01*
X164145301Y-117818266D01*
X164379392Y-118198032D01*
X164646315Y-118555485D01*
X164648176Y-118557563D01*
X164648177Y-118557564D01*
X164934096Y-118876786D01*
X164943957Y-118887796D01*
X164945994Y-118889699D01*
X164946001Y-118889706D01*
X165150455Y-119080696D01*
X165269961Y-119192332D01*
X165272157Y-119194045D01*
X165272161Y-119194048D01*
X165498577Y-119370625D01*
X165621746Y-119466682D01*
X165782588Y-119570536D01*
X165994183Y-119707162D01*
X165994191Y-119707167D01*
X165996527Y-119708675D01*
X166391335Y-119916394D01*
X166393928Y-119917476D01*
X166800462Y-120087116D01*
X166800467Y-120087118D01*
X166803046Y-120088194D01*
X166805711Y-120089037D01*
X166805717Y-120089039D01*
X167037317Y-120162284D01*
X167228398Y-120222715D01*
X167231128Y-120223318D01*
X167231129Y-120223318D01*
X167623664Y-120309982D01*
X167664025Y-120318893D01*
X167666799Y-120319251D01*
X167666800Y-120319251D01*
X168103707Y-120375608D01*
X168103714Y-120375609D01*
X168106477Y-120375965D01*
X168109264Y-120376075D01*
X168109270Y-120376075D01*
X168360289Y-120385937D01*
X168552251Y-120393479D01*
X168555043Y-120393340D01*
X168555048Y-120393340D01*
X168995013Y-120371438D01*
X168995022Y-120371437D01*
X168997817Y-120371298D01*
X169000594Y-120370910D01*
X169000596Y-120370910D01*
X169078542Y-120360025D01*
X169439647Y-120309596D01*
X169442357Y-120308968D01*
X169442367Y-120308966D01*
X169871515Y-120209494D01*
X169874242Y-120208862D01*
X170096990Y-120135842D01*
X170295510Y-120070764D01*
X170295516Y-120070762D01*
X170298163Y-120069894D01*
X170708052Y-119893791D01*
X171100664Y-119681950D01*
X171472890Y-119436046D01*
X171821782Y-119158026D01*
X172144580Y-118850093D01*
X172359168Y-118605402D01*
X172436874Y-118516795D01*
X172436877Y-118516791D01*
X172438725Y-118514684D01*
X172508131Y-118419680D01*
X172700242Y-118156712D01*
X172701891Y-118154455D01*
X172879582Y-117859311D01*
X172930541Y-117774669D01*
X172930546Y-117774660D01*
X172931992Y-117772258D01*
X173127207Y-117371120D01*
X173227601Y-117107523D01*
X173284994Y-116956832D01*
X173284996Y-116956825D01*
X173285990Y-116954216D01*
X173407085Y-116524848D01*
X173452009Y-116285950D01*
X173489015Y-116089162D01*
X173489017Y-116089150D01*
X173489531Y-116086415D01*
X173498192Y-115997282D01*
X173532462Y-115644606D01*
X173532463Y-115644594D01*
X173532677Y-115642389D01*
X173537329Y-115464749D01*
X173539490Y-115382233D01*
X173539490Y-115382220D01*
X173539548Y-115380000D01*
X173519700Y-114934324D01*
X173511553Y-114873665D01*
X173499799Y-114786161D01*
X173460312Y-114492177D01*
X173444942Y-114424249D01*
X173362472Y-114059788D01*
X173361855Y-114057060D01*
X173331791Y-113963700D01*
X173225961Y-113635067D01*
X173225108Y-113632417D01*
X173200252Y-113573716D01*
X173052245Y-113224186D01*
X173052245Y-113224185D01*
X173051155Y-113221612D01*
X173025534Y-113173526D01*
X172842679Y-112830351D01*
X172841371Y-112827896D01*
X172835886Y-112819498D01*
X172598944Y-112456721D01*
X172598941Y-112456717D01*
X172597420Y-112454388D01*
X172586730Y-112440827D01*
X172322960Y-112106237D01*
X172322958Y-112106235D01*
X172321231Y-112104044D01*
X172014992Y-111779639D01*
X171756902Y-111550898D01*
X171683234Y-111485607D01*
X171683227Y-111485602D01*
X171681128Y-111483741D01*
X171322282Y-111218694D01*
X171007529Y-111026944D01*
X170943684Y-110988049D01*
X170943677Y-110988045D01*
X170941295Y-110986594D01*
X170818964Y-110926267D01*
X170674121Y-110854839D01*
X170541184Y-110789282D01*
X170125118Y-110628318D01*
X170122414Y-110627540D01*
X169699071Y-110505748D01*
X169699065Y-110505746D01*
X169696390Y-110504977D01*
X169693653Y-110504448D01*
X169693647Y-110504446D01*
X169536663Y-110474074D01*
X169258394Y-110420236D01*
X169255617Y-110419951D01*
X169255607Y-110419950D01*
X168953708Y-110389018D01*
X168814600Y-110374765D01*
X168811810Y-110374728D01*
X168811802Y-110374728D01*
X168533276Y-110371083D01*
X168368521Y-110368926D01*
X168365721Y-110369139D01*
X168365720Y-110369139D01*
X167926475Y-110402551D01*
X167923688Y-110402763D01*
X167483625Y-110476010D01*
X167429724Y-110490000D01*
X167054533Y-110587380D01*
X167054522Y-110587383D01*
X167051815Y-110588086D01*
X166794602Y-110679928D01*
X166634320Y-110737159D01*
X166634315Y-110737161D01*
X166631677Y-110738103D01*
X166629137Y-110739274D01*
X166629132Y-110739276D01*
X166520661Y-110789282D01*
X166226538Y-110924875D01*
X165839607Y-111146921D01*
X165837315Y-111148523D01*
X165837307Y-111148528D01*
X165652183Y-111277913D01*
X165473945Y-111402485D01*
X165471804Y-111404285D01*
X165471801Y-111404287D01*
X165144818Y-111679146D01*
X165132450Y-111689542D01*
X165130476Y-111691526D01*
X165130472Y-111691530D01*
X165042823Y-111779639D01*
X164817824Y-112005819D01*
X164532559Y-112348813D01*
X164530965Y-112351120D01*
X164530963Y-112351122D01*
X164408590Y-112528182D01*
X164278914Y-112715808D01*
X164058896Y-113103897D01*
X164057737Y-113106446D01*
X164057735Y-113106450D01*
X163875405Y-113507462D01*
X163875400Y-113507473D01*
X163874248Y-113510008D01*
X163873326Y-113512634D01*
X163873321Y-113512646D01*
X163816787Y-113673634D01*
X163726433Y-113930925D01*
X163725742Y-113933645D01*
X163725741Y-113933649D01*
X163627093Y-114322073D01*
X163616619Y-114363316D01*
X163616176Y-114366066D01*
X163616174Y-114366076D01*
X163558683Y-114723015D01*
X163545678Y-114803757D01*
X163545480Y-114806558D01*
X163545479Y-114806564D01*
X163535896Y-114941913D01*
X163514170Y-115248761D01*
X158934500Y-115248761D01*
X158934500Y-99568000D01*
X163450000Y-99568000D01*
X163518121Y-99588002D01*
X163564614Y-99641658D01*
X163576000Y-99694000D01*
X163576000Y-105410000D01*
X168597188Y-105410000D01*
X168665309Y-105430002D01*
X168693769Y-105455079D01*
X176530000Y-114808000D01*
X178995202Y-114808000D01*
X179063323Y-114828002D01*
X179105817Y-114873665D01*
X179528067Y-115647789D01*
X180594000Y-117602000D01*
X191463810Y-117602000D01*
X191531931Y-117622002D01*
X191552905Y-117638905D01*
X192241095Y-118327095D01*
X192275121Y-118389407D01*
X192278000Y-118416190D01*
X192278000Y-120650000D01*
X192871532Y-120650000D01*
X192939653Y-120670002D01*
X192986146Y-120723658D01*
X192989513Y-120731768D01*
X193005385Y-120774106D01*
X193010765Y-120781285D01*
X193010767Y-120781288D01*
X193074981Y-120866968D01*
X193092739Y-120890662D01*
X193209295Y-120978016D01*
X193345684Y-121029146D01*
X193407866Y-121035901D01*
X194704134Y-121035901D01*
X194766316Y-121029146D01*
X194902705Y-120978016D01*
X195019261Y-120890662D01*
X195037019Y-120866968D01*
X195101233Y-120781288D01*
X195101235Y-120781285D01*
X195106615Y-120774106D01*
X195122486Y-120731770D01*
X195165128Y-120675005D01*
X195231690Y-120650306D01*
X195240468Y-120650000D01*
X195580000Y-120650000D01*
X195580000Y-115111969D01*
X195600002Y-115043848D01*
X195614247Y-115025613D01*
X195819059Y-114808000D01*
X218142502Y-114808000D01*
X218162457Y-115036087D01*
X218163881Y-115041400D01*
X218163881Y-115041402D01*
X218164537Y-115043848D01*
X218221716Y-115257243D01*
X218224039Y-115262224D01*
X218224039Y-115262225D01*
X218316151Y-115459762D01*
X218316154Y-115459767D01*
X218318477Y-115464749D01*
X218321634Y-115469257D01*
X218444415Y-115644606D01*
X218449802Y-115652300D01*
X218611700Y-115814198D01*
X218616208Y-115817355D01*
X218616211Y-115817357D01*
X218694389Y-115872098D01*
X218799251Y-115945523D01*
X218804233Y-115947846D01*
X218804238Y-115947849D01*
X218974252Y-116027127D01*
X219006757Y-116042284D01*
X219012065Y-116043706D01*
X219012067Y-116043707D01*
X219222598Y-116100119D01*
X219222600Y-116100119D01*
X219227913Y-116101543D01*
X219456000Y-116121498D01*
X219684087Y-116101543D01*
X219689400Y-116100119D01*
X219689402Y-116100119D01*
X219899933Y-116043707D01*
X219899935Y-116043706D01*
X219905243Y-116042284D01*
X219937748Y-116027127D01*
X220107762Y-115947849D01*
X220107767Y-115947846D01*
X220112749Y-115945523D01*
X220217611Y-115872098D01*
X220295789Y-115817357D01*
X220295792Y-115817355D01*
X220300300Y-115814198D01*
X220462198Y-115652300D01*
X220467586Y-115644606D01*
X220590366Y-115469257D01*
X220593523Y-115464749D01*
X220595846Y-115459767D01*
X220595849Y-115459762D01*
X220687961Y-115262225D01*
X220687961Y-115262224D01*
X220690284Y-115257243D01*
X220747464Y-115043848D01*
X220748119Y-115041402D01*
X220748119Y-115041400D01*
X220749543Y-115036087D01*
X220769498Y-114808000D01*
X233596502Y-114808000D01*
X233616457Y-115036087D01*
X233617881Y-115041400D01*
X233617881Y-115041402D01*
X233618537Y-115043848D01*
X233675716Y-115257243D01*
X233678039Y-115262224D01*
X233678039Y-115262225D01*
X233770151Y-115459762D01*
X233770154Y-115459767D01*
X233772477Y-115464749D01*
X233775634Y-115469257D01*
X233898415Y-115644606D01*
X233903802Y-115652300D01*
X234065700Y-115814198D01*
X234070208Y-115817355D01*
X234070211Y-115817357D01*
X234148389Y-115872098D01*
X234253251Y-115945523D01*
X234258233Y-115947846D01*
X234258238Y-115947849D01*
X234428252Y-116027127D01*
X234460757Y-116042284D01*
X234466065Y-116043706D01*
X234466067Y-116043707D01*
X234676598Y-116100119D01*
X234676600Y-116100119D01*
X234681913Y-116101543D01*
X234910000Y-116121498D01*
X235138087Y-116101543D01*
X235143400Y-116100119D01*
X235143402Y-116100119D01*
X235353933Y-116043707D01*
X235353935Y-116043706D01*
X235359243Y-116042284D01*
X235391748Y-116027127D01*
X235561762Y-115947849D01*
X235561767Y-115947846D01*
X235566749Y-115945523D01*
X235671611Y-115872098D01*
X235749789Y-115817357D01*
X235749792Y-115817355D01*
X235754300Y-115814198D01*
X235916198Y-115652300D01*
X235921586Y-115644606D01*
X236044366Y-115469257D01*
X236047523Y-115464749D01*
X236049846Y-115459767D01*
X236049849Y-115459762D01*
X236141961Y-115262225D01*
X236141961Y-115262224D01*
X236144284Y-115257243D01*
X236201464Y-115043848D01*
X236202119Y-115041402D01*
X236202119Y-115041400D01*
X236203543Y-115036087D01*
X236223498Y-114808000D01*
X236203543Y-114579913D01*
X236161833Y-114424249D01*
X236145707Y-114364067D01*
X236145706Y-114364065D01*
X236144284Y-114358757D01*
X236140924Y-114351552D01*
X236049849Y-114156238D01*
X236049846Y-114156233D01*
X236047523Y-114151251D01*
X235916198Y-113963700D01*
X235754300Y-113801802D01*
X235749792Y-113798645D01*
X235749789Y-113798643D01*
X235671611Y-113743902D01*
X235566749Y-113670477D01*
X235561767Y-113668154D01*
X235561762Y-113668151D01*
X235364225Y-113576039D01*
X235364224Y-113576039D01*
X235359243Y-113573716D01*
X235353935Y-113572294D01*
X235353933Y-113572293D01*
X235143402Y-113515881D01*
X235143400Y-113515881D01*
X235138087Y-113514457D01*
X234910000Y-113494502D01*
X234681913Y-113514457D01*
X234676600Y-113515881D01*
X234676598Y-113515881D01*
X234466067Y-113572293D01*
X234466065Y-113572294D01*
X234460757Y-113573716D01*
X234455776Y-113576039D01*
X234455775Y-113576039D01*
X234258238Y-113668151D01*
X234258233Y-113668154D01*
X234253251Y-113670477D01*
X234148389Y-113743902D01*
X234070211Y-113798643D01*
X234070208Y-113798645D01*
X234065700Y-113801802D01*
X233903802Y-113963700D01*
X233772477Y-114151251D01*
X233770154Y-114156233D01*
X233770151Y-114156238D01*
X233679076Y-114351552D01*
X233675716Y-114358757D01*
X233674294Y-114364065D01*
X233674293Y-114364067D01*
X233658167Y-114424249D01*
X233616457Y-114579913D01*
X233596502Y-114808000D01*
X220769498Y-114808000D01*
X220749543Y-114579913D01*
X220707833Y-114424249D01*
X220691707Y-114364067D01*
X220691706Y-114364065D01*
X220690284Y-114358757D01*
X220686924Y-114351552D01*
X220595849Y-114156238D01*
X220595846Y-114156233D01*
X220593523Y-114151251D01*
X220462198Y-113963700D01*
X220300300Y-113801802D01*
X220295792Y-113798645D01*
X220295789Y-113798643D01*
X220217611Y-113743902D01*
X220112749Y-113670477D01*
X220107767Y-113668154D01*
X220107762Y-113668151D01*
X219910225Y-113576039D01*
X219910224Y-113576039D01*
X219905243Y-113573716D01*
X219899935Y-113572294D01*
X219899933Y-113572293D01*
X219689402Y-113515881D01*
X219689400Y-113515881D01*
X219684087Y-113514457D01*
X219456000Y-113494502D01*
X219227913Y-113514457D01*
X219222600Y-113515881D01*
X219222598Y-113515881D01*
X219012067Y-113572293D01*
X219012065Y-113572294D01*
X219006757Y-113573716D01*
X219001776Y-113576039D01*
X219001775Y-113576039D01*
X218804238Y-113668151D01*
X218804233Y-113668154D01*
X218799251Y-113670477D01*
X218694389Y-113743902D01*
X218616211Y-113798643D01*
X218616208Y-113798645D01*
X218611700Y-113801802D01*
X218449802Y-113963700D01*
X218318477Y-114151251D01*
X218316154Y-114156233D01*
X218316151Y-114156238D01*
X218225076Y-114351552D01*
X218221716Y-114358757D01*
X218220294Y-114364065D01*
X218220293Y-114364067D01*
X218204167Y-114424249D01*
X218162457Y-114579913D01*
X218142502Y-114808000D01*
X195819059Y-114808000D01*
X199606688Y-110783644D01*
X199667941Y-110747747D01*
X199698441Y-110744000D01*
X207707159Y-110744000D01*
X207775280Y-110764002D01*
X207809688Y-110796763D01*
X209042000Y-112522000D01*
X210752567Y-112522000D01*
X210820688Y-112542002D01*
X210857405Y-112578108D01*
X210947666Y-112713499D01*
X211328000Y-113284000D01*
X225390243Y-113161720D01*
X240519886Y-113030158D01*
X240519888Y-113030157D01*
X240538000Y-113030000D01*
X242789959Y-110778041D01*
X242852271Y-110744015D01*
X242872065Y-110741330D01*
X246933244Y-110515709D01*
X247002369Y-110531902D01*
X247051767Y-110582896D01*
X247065753Y-110652501D01*
X247039888Y-110718618D01*
X246992985Y-110755940D01*
X246626538Y-110924875D01*
X246239607Y-111146921D01*
X246237315Y-111148523D01*
X246237307Y-111148528D01*
X246052183Y-111277913D01*
X245873945Y-111402485D01*
X245871804Y-111404285D01*
X245871801Y-111404287D01*
X245544818Y-111679146D01*
X245532450Y-111689542D01*
X245530476Y-111691526D01*
X245530472Y-111691530D01*
X245442823Y-111779639D01*
X245217824Y-112005819D01*
X244932559Y-112348813D01*
X244930965Y-112351120D01*
X244930963Y-112351122D01*
X244808590Y-112528182D01*
X244678914Y-112715808D01*
X244458896Y-113103897D01*
X244457737Y-113106446D01*
X244457735Y-113106450D01*
X244275405Y-113507462D01*
X244275400Y-113507473D01*
X244274248Y-113510008D01*
X244273326Y-113512634D01*
X244273321Y-113512646D01*
X244216787Y-113673634D01*
X244126433Y-113930925D01*
X244125742Y-113933645D01*
X244125741Y-113933649D01*
X244027093Y-114322073D01*
X244016619Y-114363316D01*
X244016176Y-114366066D01*
X244016174Y-114366076D01*
X243958683Y-114723015D01*
X243945678Y-114803757D01*
X243945480Y-114806558D01*
X243945479Y-114806564D01*
X243935896Y-114941913D01*
X243914170Y-115248761D01*
X243915554Y-115324270D01*
X243922345Y-115694803D01*
X243922644Y-115697578D01*
X243964838Y-116089162D01*
X243970138Y-116138353D01*
X243970683Y-116141094D01*
X243970684Y-116141099D01*
X244046472Y-116522105D01*
X244057172Y-116575899D01*
X244057959Y-116578580D01*
X244057960Y-116578586D01*
X244127111Y-116814300D01*
X244182756Y-117003976D01*
X244183776Y-117006572D01*
X244183777Y-117006575D01*
X244327008Y-117371120D01*
X244345896Y-117419194D01*
X244545301Y-117818266D01*
X244779392Y-118198032D01*
X245046315Y-118555485D01*
X245048176Y-118557563D01*
X245048177Y-118557564D01*
X245334096Y-118876786D01*
X245343957Y-118887796D01*
X245345994Y-118889699D01*
X245346001Y-118889706D01*
X245550455Y-119080696D01*
X245669961Y-119192332D01*
X245672157Y-119194045D01*
X245672161Y-119194048D01*
X245898577Y-119370625D01*
X246021746Y-119466682D01*
X246182588Y-119570536D01*
X246394183Y-119707162D01*
X246394191Y-119707167D01*
X246396527Y-119708675D01*
X246791335Y-119916394D01*
X246793928Y-119917476D01*
X247200462Y-120087116D01*
X247200467Y-120087118D01*
X247203046Y-120088194D01*
X247205711Y-120089037D01*
X247205717Y-120089039D01*
X247437317Y-120162284D01*
X247628398Y-120222715D01*
X247631128Y-120223318D01*
X247631129Y-120223318D01*
X248023664Y-120309982D01*
X248064025Y-120318893D01*
X248066799Y-120319251D01*
X248066800Y-120319251D01*
X248503707Y-120375608D01*
X248503714Y-120375609D01*
X248506477Y-120375965D01*
X248509264Y-120376075D01*
X248509270Y-120376075D01*
X248760289Y-120385937D01*
X248952251Y-120393479D01*
X248955043Y-120393340D01*
X248955048Y-120393340D01*
X249395013Y-120371438D01*
X249395022Y-120371437D01*
X249397817Y-120371298D01*
X249400594Y-120370910D01*
X249400596Y-120370910D01*
X249478542Y-120360025D01*
X249839647Y-120309596D01*
X249842357Y-120308968D01*
X249842367Y-120308966D01*
X250271515Y-120209494D01*
X250274242Y-120208862D01*
X250496990Y-120135842D01*
X250695510Y-120070764D01*
X250695516Y-120070762D01*
X250698163Y-120069894D01*
X251108052Y-119893791D01*
X251500664Y-119681950D01*
X251872890Y-119436046D01*
X252221782Y-119158026D01*
X252544580Y-118850093D01*
X252759168Y-118605402D01*
X252836874Y-118516795D01*
X252836877Y-118516791D01*
X252838725Y-118514684D01*
X252908131Y-118419680D01*
X253100242Y-118156712D01*
X253101891Y-118154455D01*
X253279582Y-117859311D01*
X253330541Y-117774669D01*
X253330546Y-117774660D01*
X253331992Y-117772258D01*
X253527207Y-117371120D01*
X253627601Y-117107523D01*
X253684994Y-116956832D01*
X253684996Y-116956825D01*
X253685990Y-116954216D01*
X253807085Y-116524848D01*
X253852009Y-116285950D01*
X253889015Y-116089162D01*
X253889017Y-116089150D01*
X253889531Y-116086415D01*
X253898192Y-115997282D01*
X253932462Y-115644606D01*
X253932463Y-115644594D01*
X253932677Y-115642389D01*
X253937329Y-115464749D01*
X253939490Y-115382233D01*
X253939490Y-115382220D01*
X253939548Y-115380000D01*
X253919700Y-114934324D01*
X253911553Y-114873665D01*
X253899799Y-114786161D01*
X253860312Y-114492177D01*
X253844942Y-114424249D01*
X253762472Y-114059788D01*
X253761855Y-114057060D01*
X253731791Y-113963700D01*
X253625961Y-113635067D01*
X253625108Y-113632417D01*
X253600252Y-113573716D01*
X253452245Y-113224186D01*
X253452245Y-113224185D01*
X253451155Y-113221612D01*
X253425534Y-113173526D01*
X253242679Y-112830351D01*
X253241371Y-112827896D01*
X253235886Y-112819498D01*
X252998944Y-112456721D01*
X252998941Y-112456717D01*
X252997420Y-112454388D01*
X252986730Y-112440827D01*
X252722960Y-112106237D01*
X252722958Y-112106235D01*
X252721231Y-112104044D01*
X252414992Y-111779639D01*
X252156902Y-111550898D01*
X252083234Y-111485607D01*
X252083227Y-111485602D01*
X252081128Y-111483741D01*
X251722282Y-111218694D01*
X251407529Y-111026944D01*
X251343684Y-110988049D01*
X251343677Y-110988045D01*
X251341295Y-110986594D01*
X251218964Y-110926267D01*
X251074121Y-110854839D01*
X250941184Y-110789282D01*
X250525118Y-110628318D01*
X250522414Y-110627540D01*
X250099071Y-110505748D01*
X250099065Y-110505746D01*
X250096390Y-110504977D01*
X250093653Y-110504448D01*
X250093647Y-110504446D01*
X249936663Y-110474074D01*
X249658394Y-110420236D01*
X249655617Y-110419951D01*
X249655607Y-110419950D01*
X249353708Y-110389018D01*
X249214600Y-110374765D01*
X249211810Y-110374728D01*
X249211802Y-110374728D01*
X248933276Y-110371083D01*
X248768521Y-110368926D01*
X248765721Y-110369139D01*
X248765720Y-110369139D01*
X248326475Y-110402551D01*
X248323688Y-110402763D01*
X247883625Y-110476010D01*
X247863147Y-110481325D01*
X247792186Y-110479078D01*
X247733705Y-110438823D01*
X247706270Y-110373341D01*
X247718593Y-110303422D01*
X247759648Y-110259210D01*
X247758273Y-110257437D01*
X247764534Y-110252580D01*
X247771362Y-110248542D01*
X247785683Y-110234221D01*
X247800717Y-110221380D01*
X247810693Y-110214132D01*
X247817107Y-110209472D01*
X247845288Y-110175407D01*
X247853278Y-110166626D01*
X248296258Y-109723647D01*
X248304537Y-109716113D01*
X248311018Y-109712000D01*
X248357644Y-109662348D01*
X248360398Y-109659507D01*
X248380135Y-109639770D01*
X248382615Y-109636573D01*
X248390320Y-109627551D01*
X248415159Y-109601100D01*
X248420586Y-109595321D01*
X248424405Y-109588375D01*
X248424407Y-109588372D01*
X248430348Y-109577566D01*
X248441199Y-109561047D01*
X248448758Y-109551301D01*
X248453614Y-109545041D01*
X248456759Y-109537772D01*
X248456762Y-109537768D01*
X248471174Y-109504463D01*
X248476391Y-109493813D01*
X248497695Y-109455060D01*
X248502733Y-109435437D01*
X248509137Y-109416734D01*
X248514032Y-109405422D01*
X248517181Y-109398145D01*
X248518421Y-109390317D01*
X248518708Y-109389329D01*
X248550609Y-109335391D01*
X248920000Y-108966000D01*
X248920000Y-104078134D01*
X253067500Y-104078134D01*
X253074255Y-104140316D01*
X253125385Y-104276705D01*
X253212739Y-104393261D01*
X253329295Y-104480615D01*
X253465684Y-104531745D01*
X253527866Y-104538500D01*
X255324134Y-104538500D01*
X255386316Y-104531745D01*
X255522705Y-104480615D01*
X255639261Y-104393261D01*
X255726615Y-104276705D01*
X255777745Y-104140316D01*
X255784500Y-104078134D01*
X255784500Y-102281866D01*
X255777745Y-102219684D01*
X255726615Y-102083295D01*
X255639261Y-101966739D01*
X255522705Y-101879385D01*
X255386316Y-101828255D01*
X255324134Y-101821500D01*
X253527866Y-101821500D01*
X253465684Y-101828255D01*
X253329295Y-101879385D01*
X253212739Y-101966739D01*
X253125385Y-102083295D01*
X253074255Y-102219684D01*
X253067500Y-102281866D01*
X253067500Y-104078134D01*
X248920000Y-104078134D01*
X248920000Y-101910583D01*
X248940002Y-101842462D01*
X248962290Y-101816409D01*
X251170196Y-99853826D01*
X251234399Y-99823519D01*
X251253906Y-99822000D01*
X255524000Y-99822000D01*
X256286000Y-98806000D01*
X256286000Y-79502000D01*
X255016000Y-78232000D01*
X249734190Y-78232000D01*
X249666069Y-78211998D01*
X249645095Y-78195095D01*
X248448905Y-76998905D01*
X248414879Y-76936593D01*
X248412000Y-76909810D01*
X248412000Y-71882000D01*
X248403994Y-71875595D01*
X248403993Y-71875594D01*
X247725606Y-71332885D01*
X247142000Y-70866000D01*
X239077000Y-70866000D01*
X239008879Y-70845998D01*
X238976200Y-70815600D01*
X238262871Y-69864495D01*
X238262872Y-69864495D01*
X238252000Y-69850000D01*
X236728000Y-69850000D01*
X236382405Y-70195595D01*
X236320093Y-70229621D01*
X236293310Y-70232500D01*
X233270767Y-70232500D01*
X233259584Y-70231973D01*
X233252091Y-70230298D01*
X233244165Y-70230547D01*
X233244164Y-70230547D01*
X233184014Y-70232438D01*
X233180055Y-70232500D01*
X233152144Y-70232500D01*
X233148210Y-70232997D01*
X233148209Y-70232997D01*
X233148144Y-70233005D01*
X233136307Y-70233938D01*
X233104490Y-70234938D01*
X233100029Y-70235078D01*
X233092110Y-70235327D01*
X233074454Y-70240456D01*
X233072658Y-70240978D01*
X233053306Y-70244986D01*
X233046235Y-70245880D01*
X233033203Y-70247526D01*
X233025834Y-70250443D01*
X233025832Y-70250444D01*
X232992097Y-70263800D01*
X232980869Y-70267645D01*
X232938407Y-70279982D01*
X232931585Y-70284016D01*
X232931579Y-70284019D01*
X232920968Y-70290294D01*
X232903218Y-70298990D01*
X232891756Y-70303528D01*
X232891751Y-70303531D01*
X232884383Y-70306448D01*
X232877970Y-70311108D01*
X232877967Y-70311109D01*
X232848627Y-70332426D01*
X232838711Y-70338941D01*
X232836158Y-70340451D01*
X232772014Y-70358000D01*
X231394000Y-70358000D01*
X230492792Y-71349329D01*
X230444793Y-71402128D01*
X230423832Y-71420584D01*
X230305211Y-71503643D01*
X230305208Y-71503645D01*
X230300700Y-71506802D01*
X230138802Y-71668700D01*
X230007477Y-71856251D01*
X230005153Y-71861236D01*
X230005149Y-71861242D01*
X229989788Y-71894185D01*
X229968825Y-71925693D01*
X228856010Y-73149789D01*
X228851873Y-73154127D01*
X228128905Y-73877095D01*
X228066593Y-73911121D01*
X228039810Y-73914000D01*
X223823664Y-73914000D01*
X223755543Y-73893998D01*
X223737692Y-73880113D01*
X223734459Y-73877095D01*
X220394411Y-70759717D01*
X219977244Y-70370361D01*
X219964000Y-70358000D01*
X201422000Y-70358000D01*
X201415519Y-70366209D01*
X201415518Y-70366210D01*
X200242729Y-71851743D01*
X198616905Y-73911121D01*
X197649836Y-75136075D01*
X197591926Y-75177148D01*
X197550941Y-75184000D01*
X179324000Y-75184000D01*
X179316525Y-75196459D01*
X178598704Y-76392826D01*
X178546505Y-76440949D01*
X178490660Y-76454000D01*
X173736000Y-76454000D01*
X173100278Y-76998905D01*
X171993390Y-77947666D01*
X171928651Y-77976812D01*
X171911390Y-77978000D01*
X162052000Y-77978000D01*
X160528000Y-79502000D01*
X160528000Y-91948000D01*
X158934500Y-91948000D01*
X158934500Y-71120000D01*
X169164000Y-71120000D01*
X169171793Y-71120000D01*
X169181107Y-71128071D01*
X169219491Y-71187797D01*
X169224595Y-71223295D01*
X169224595Y-71351000D01*
X188915405Y-71351000D01*
X188915405Y-71226795D01*
X188935407Y-71158674D01*
X188950915Y-71145236D01*
X188948896Y-71143486D01*
X188969247Y-71120000D01*
X188976000Y-71120000D01*
X188976000Y-69280000D01*
X252312372Y-69280000D01*
X252332854Y-69540249D01*
X252334008Y-69545056D01*
X252334009Y-69545062D01*
X252340293Y-69571235D01*
X252393796Y-69794089D01*
X252395689Y-69798660D01*
X252395690Y-69798662D01*
X252402176Y-69814319D01*
X252493697Y-70035271D01*
X252630097Y-70257856D01*
X252799637Y-70456363D01*
X252998144Y-70625903D01*
X253220729Y-70762303D01*
X253225299Y-70764196D01*
X253225303Y-70764198D01*
X253422786Y-70845998D01*
X253461911Y-70862204D01*
X253550931Y-70883576D01*
X253710938Y-70921991D01*
X253710944Y-70921992D01*
X253715751Y-70923146D01*
X253976000Y-70943628D01*
X254236249Y-70923146D01*
X254241056Y-70921992D01*
X254241062Y-70921991D01*
X254401069Y-70883576D01*
X254490089Y-70862204D01*
X254529214Y-70845998D01*
X254726697Y-70764198D01*
X254726701Y-70764196D01*
X254731271Y-70762303D01*
X254953856Y-70625903D01*
X255152363Y-70456363D01*
X255321903Y-70257856D01*
X255458303Y-70035271D01*
X255549825Y-69814319D01*
X255556310Y-69798662D01*
X255556311Y-69798660D01*
X255558204Y-69794089D01*
X255611707Y-69571235D01*
X255617991Y-69545062D01*
X255617992Y-69545056D01*
X255619146Y-69540249D01*
X255639628Y-69280000D01*
X255619146Y-69019751D01*
X255617992Y-69014944D01*
X255617991Y-69014938D01*
X255559359Y-68770723D01*
X255558204Y-68765911D01*
X255551377Y-68749428D01*
X255460198Y-68529303D01*
X255460196Y-68529299D01*
X255458303Y-68524729D01*
X255321903Y-68302144D01*
X255152363Y-68103637D01*
X254953856Y-67934097D01*
X254731271Y-67797697D01*
X254726701Y-67795804D01*
X254726697Y-67795802D01*
X254494662Y-67699690D01*
X254494660Y-67699689D01*
X254490089Y-67697796D01*
X254401069Y-67676424D01*
X254241062Y-67638009D01*
X254241056Y-67638008D01*
X254236249Y-67636854D01*
X253976000Y-67616372D01*
X253715751Y-67636854D01*
X253710944Y-67638008D01*
X253710938Y-67638009D01*
X253550931Y-67676424D01*
X253461911Y-67697796D01*
X253457340Y-67699689D01*
X253457338Y-67699690D01*
X253225303Y-67795802D01*
X253225299Y-67795804D01*
X253220729Y-67797697D01*
X252998144Y-67934097D01*
X252799637Y-68103637D01*
X252630097Y-68302144D01*
X252493697Y-68524729D01*
X252491804Y-68529299D01*
X252491802Y-68529303D01*
X252400623Y-68749428D01*
X252393796Y-68765911D01*
X252392641Y-68770723D01*
X252334009Y-69014938D01*
X252334008Y-69014944D01*
X252332854Y-69019751D01*
X252332466Y-69024685D01*
X252312901Y-69273282D01*
X252312899Y-69273282D01*
X252312900Y-69273290D01*
X252312372Y-69280000D01*
X188976000Y-69280000D01*
X188976000Y-68326000D01*
X169164000Y-68326000D01*
X169164000Y-71120000D01*
X158934500Y-71120000D01*
X158934500Y-69280000D01*
X161812372Y-69280000D01*
X161832854Y-69540249D01*
X161834008Y-69545056D01*
X161834009Y-69545062D01*
X161840293Y-69571235D01*
X161893796Y-69794089D01*
X161895689Y-69798660D01*
X161895690Y-69798662D01*
X161902176Y-69814319D01*
X161993697Y-70035271D01*
X162130097Y-70257856D01*
X162299637Y-70456363D01*
X162498144Y-70625903D01*
X162720729Y-70762303D01*
X162725299Y-70764196D01*
X162725303Y-70764198D01*
X162922786Y-70845998D01*
X162961911Y-70862204D01*
X163050931Y-70883576D01*
X163210938Y-70921991D01*
X163210944Y-70921992D01*
X163215751Y-70923146D01*
X163476000Y-70943628D01*
X163736249Y-70923146D01*
X163741056Y-70921992D01*
X163741062Y-70921991D01*
X163901069Y-70883576D01*
X163990089Y-70862204D01*
X164029214Y-70845998D01*
X164226697Y-70764198D01*
X164226701Y-70764196D01*
X164231271Y-70762303D01*
X164453856Y-70625903D01*
X164652363Y-70456363D01*
X164821903Y-70257856D01*
X164958303Y-70035271D01*
X165049825Y-69814319D01*
X165056310Y-69798662D01*
X165056311Y-69798660D01*
X165058204Y-69794089D01*
X165111707Y-69571235D01*
X165117991Y-69545062D01*
X165117992Y-69545056D01*
X165119146Y-69540249D01*
X165139628Y-69280000D01*
X165119146Y-69019751D01*
X165117992Y-69014944D01*
X165117991Y-69014938D01*
X165059359Y-68770723D01*
X165058204Y-68765911D01*
X165051377Y-68749428D01*
X164960198Y-68529303D01*
X164960196Y-68529299D01*
X164958303Y-68524729D01*
X164821903Y-68302144D01*
X164652363Y-68103637D01*
X164453856Y-67934097D01*
X164231271Y-67797697D01*
X164226701Y-67795804D01*
X164226697Y-67795802D01*
X163994662Y-67699690D01*
X163994660Y-67699689D01*
X163990089Y-67697796D01*
X163901069Y-67676424D01*
X163741062Y-67638009D01*
X163741056Y-67638008D01*
X163736249Y-67636854D01*
X163476000Y-67616372D01*
X163215751Y-67636854D01*
X163210944Y-67638008D01*
X163210938Y-67638009D01*
X163050931Y-67676424D01*
X162961911Y-67697796D01*
X162957340Y-67699689D01*
X162957338Y-67699690D01*
X162725303Y-67795802D01*
X162725299Y-67795804D01*
X162720729Y-67797697D01*
X162498144Y-67934097D01*
X162299637Y-68103637D01*
X162130097Y-68302144D01*
X161993697Y-68524729D01*
X161991804Y-68529299D01*
X161991802Y-68529303D01*
X161900623Y-68749428D01*
X161893796Y-68765911D01*
X161892641Y-68770723D01*
X161834009Y-69014938D01*
X161834008Y-69014944D01*
X161832854Y-69019751D01*
X161832466Y-69024685D01*
X161812901Y-69273282D01*
X161812899Y-69273282D01*
X161812900Y-69273290D01*
X161812372Y-69280000D01*
X158934500Y-69280000D01*
X158934500Y-65514500D01*
X158954502Y-65446379D01*
X159008158Y-65399886D01*
X159060500Y-65388500D01*
X258391500Y-65388500D01*
X258459621Y-65408502D01*
G37*
%TD.AperFunction*%
%TD*%
%TA.AperFunction,Conductor*%
%TO.N,+5V*%
G36*
X222034250Y-76771025D02*
G01*
X222067791Y-76801329D01*
X224524955Y-79995642D01*
X224536000Y-80010000D01*
X228029000Y-80010000D01*
X228097121Y-80030002D01*
X228129800Y-80060400D01*
X229616000Y-82042000D01*
X230407788Y-82042000D01*
X230480058Y-82064786D01*
X230488251Y-82070523D01*
X230493233Y-82072846D01*
X230493238Y-82072849D01*
X230690775Y-82164961D01*
X230695757Y-82167284D01*
X230701065Y-82168706D01*
X230701067Y-82168707D01*
X230911598Y-82225119D01*
X230911600Y-82225119D01*
X230916913Y-82226543D01*
X231145000Y-82246498D01*
X231373087Y-82226543D01*
X231378400Y-82225119D01*
X231378402Y-82225119D01*
X231588933Y-82168707D01*
X231588935Y-82168706D01*
X231594243Y-82167284D01*
X231599225Y-82164961D01*
X231796762Y-82072849D01*
X231796767Y-82072846D01*
X231801749Y-82070523D01*
X231809942Y-82064786D01*
X231882212Y-82042000D01*
X232947788Y-82042000D01*
X233020058Y-82064786D01*
X233028251Y-82070523D01*
X233033233Y-82072846D01*
X233033238Y-82072849D01*
X233230775Y-82164961D01*
X233235757Y-82167284D01*
X233241065Y-82168706D01*
X233241067Y-82168707D01*
X233451598Y-82225119D01*
X233451600Y-82225119D01*
X233456913Y-82226543D01*
X233685000Y-82246498D01*
X233913087Y-82226543D01*
X233918400Y-82225119D01*
X233918402Y-82225119D01*
X233993749Y-82204930D01*
X234064726Y-82206620D01*
X234118692Y-82240900D01*
X235802284Y-84053998D01*
X237042125Y-85389211D01*
X237202332Y-85561742D01*
X237234027Y-85625271D01*
X237236000Y-85647479D01*
X237236000Y-86234000D01*
X237215998Y-86302121D01*
X237162342Y-86348614D01*
X237110000Y-86360000D01*
X235330000Y-86360000D01*
X235261879Y-86339998D01*
X235215386Y-86286342D01*
X235204000Y-86234000D01*
X235204000Y-86106000D01*
X234931933Y-85795066D01*
X234912563Y-85765344D01*
X234824848Y-85577238D01*
X234822523Y-85572251D01*
X234691198Y-85384700D01*
X234529300Y-85222802D01*
X234524792Y-85219645D01*
X234524789Y-85219643D01*
X234373262Y-85113543D01*
X234341749Y-85091477D01*
X234322827Y-85082654D01*
X234281252Y-85051431D01*
X233437928Y-84087632D01*
X233426000Y-84074000D01*
X228915625Y-84074000D01*
X228847504Y-84053998D01*
X228816167Y-84025357D01*
X227087121Y-81802298D01*
X227087120Y-81802297D01*
X227076000Y-81788000D01*
X223583000Y-81788000D01*
X223514879Y-81767998D01*
X223482200Y-81737600D01*
X220551916Y-77830555D01*
X220527045Y-77764057D01*
X220542074Y-77694669D01*
X220582823Y-77650118D01*
X221898027Y-76773315D01*
X221965803Y-76752171D01*
X222034250Y-76771025D01*
G37*
%TD.AperFunction*%
%TD*%
%TA.AperFunction,Conductor*%
%TO.N,+5V*%
G36*
X165231785Y-99326370D02*
G01*
X165232540Y-99326732D01*
X165237000Y-99329338D01*
X165241820Y-99331179D01*
X165241825Y-99331181D01*
X165345214Y-99370661D01*
X165445692Y-99409030D01*
X165450760Y-99410061D01*
X165450763Y-99410062D01*
X165558017Y-99431883D01*
X165664597Y-99453567D01*
X165669772Y-99453757D01*
X165669774Y-99453757D01*
X165882673Y-99461564D01*
X165882677Y-99461564D01*
X165887837Y-99461753D01*
X165892957Y-99461097D01*
X165892959Y-99461097D01*
X166104288Y-99434025D01*
X166104289Y-99434025D01*
X166109416Y-99433368D01*
X166114366Y-99431883D01*
X166318429Y-99370661D01*
X166318434Y-99370659D01*
X166323384Y-99369174D01*
X166409780Y-99326849D01*
X166465212Y-99314000D01*
X168852824Y-99314000D01*
X168920945Y-99334002D01*
X168947649Y-99357028D01*
X173589504Y-104662005D01*
X176022000Y-107442000D01*
X176753742Y-107432372D01*
X177379842Y-107424134D01*
X177448220Y-107443238D01*
X177495415Y-107496277D01*
X177507500Y-107550123D01*
X177507500Y-108407127D01*
X177522457Y-108578087D01*
X177581716Y-108799243D01*
X177584039Y-108804224D01*
X177584039Y-108804225D01*
X177676151Y-109001762D01*
X177676154Y-109001767D01*
X177678477Y-109006749D01*
X177809802Y-109194300D01*
X177971700Y-109356198D01*
X177976208Y-109359355D01*
X177976211Y-109359357D01*
X178054389Y-109414098D01*
X178159251Y-109487523D01*
X178164233Y-109489846D01*
X178164238Y-109489849D01*
X178361775Y-109581961D01*
X178366757Y-109584284D01*
X178372065Y-109585706D01*
X178372067Y-109585707D01*
X178582598Y-109642119D01*
X178582600Y-109642119D01*
X178587913Y-109643543D01*
X178816000Y-109663498D01*
X179044087Y-109643543D01*
X179049400Y-109642119D01*
X179049402Y-109642119D01*
X179259933Y-109585707D01*
X179259935Y-109585706D01*
X179265243Y-109584284D01*
X179270225Y-109581961D01*
X179467762Y-109489849D01*
X179467767Y-109489846D01*
X179472749Y-109487523D01*
X179577611Y-109414098D01*
X179655789Y-109359357D01*
X179655792Y-109359355D01*
X179660300Y-109356198D01*
X179822198Y-109194300D01*
X179953523Y-109006749D01*
X179955846Y-109001767D01*
X179955849Y-109001762D01*
X179971805Y-108967543D01*
X180018722Y-108914258D01*
X180086999Y-108894797D01*
X180154959Y-108915339D01*
X180200195Y-108967543D01*
X180216151Y-109001762D01*
X180216154Y-109001767D01*
X180218477Y-109006749D01*
X180349802Y-109194300D01*
X180511700Y-109356198D01*
X180516208Y-109359355D01*
X180516211Y-109359357D01*
X180594389Y-109414098D01*
X180699251Y-109487523D01*
X180704233Y-109489846D01*
X180704238Y-109489849D01*
X180901775Y-109581961D01*
X180906757Y-109584284D01*
X180912065Y-109585706D01*
X180912067Y-109585707D01*
X181122598Y-109642119D01*
X181122600Y-109642119D01*
X181127913Y-109643543D01*
X181356000Y-109663498D01*
X181584087Y-109643543D01*
X181589400Y-109642119D01*
X181589402Y-109642119D01*
X181799933Y-109585707D01*
X181799935Y-109585706D01*
X181805243Y-109584284D01*
X181810225Y-109581961D01*
X182007762Y-109489849D01*
X182007767Y-109489846D01*
X182012749Y-109487523D01*
X182117611Y-109414098D01*
X182195789Y-109359357D01*
X182195792Y-109359355D01*
X182200300Y-109356198D01*
X182362198Y-109194300D01*
X182493523Y-109006749D01*
X182495846Y-109001767D01*
X182495849Y-109001762D01*
X182587961Y-108804225D01*
X182587961Y-108804224D01*
X182590284Y-108799243D01*
X182649543Y-108578087D01*
X182664500Y-108407127D01*
X182664500Y-107492873D01*
X182664261Y-107490136D01*
X182664243Y-107489929D01*
X182664250Y-107489892D01*
X182664141Y-107487383D01*
X182664760Y-107487356D01*
X182678240Y-107420326D01*
X182727645Y-107369339D01*
X182788107Y-107352973D01*
X184391082Y-107331880D01*
X185003128Y-107323827D01*
X185071505Y-107342931D01*
X185118700Y-107395970D01*
X185130306Y-107460797D01*
X185127758Y-107489929D01*
X185127500Y-107492873D01*
X185127500Y-108407127D01*
X185142457Y-108578087D01*
X185201716Y-108799243D01*
X185204039Y-108804224D01*
X185204039Y-108804225D01*
X185296151Y-109001762D01*
X185296154Y-109001767D01*
X185298477Y-109006749D01*
X185429802Y-109194300D01*
X185591700Y-109356198D01*
X185596208Y-109359355D01*
X185596211Y-109359357D01*
X185674389Y-109414098D01*
X185779251Y-109487523D01*
X185784233Y-109489846D01*
X185784238Y-109489849D01*
X185981775Y-109581961D01*
X185986757Y-109584284D01*
X185992065Y-109585706D01*
X185992067Y-109585707D01*
X186202598Y-109642119D01*
X186202600Y-109642119D01*
X186207913Y-109643543D01*
X186436000Y-109663498D01*
X186664087Y-109643543D01*
X186669400Y-109642119D01*
X186669402Y-109642119D01*
X186879933Y-109585707D01*
X186879935Y-109585706D01*
X186885243Y-109584284D01*
X186890225Y-109581961D01*
X187087762Y-109489849D01*
X187087767Y-109489846D01*
X187092749Y-109487523D01*
X187197611Y-109414098D01*
X187275789Y-109359357D01*
X187275792Y-109359355D01*
X187280300Y-109356198D01*
X187442198Y-109194300D01*
X187573523Y-109006749D01*
X187575846Y-109001767D01*
X187575849Y-109001762D01*
X187591805Y-108967543D01*
X187638722Y-108914258D01*
X187706999Y-108894797D01*
X187774959Y-108915339D01*
X187820195Y-108967543D01*
X187836151Y-109001762D01*
X187836154Y-109001767D01*
X187838477Y-109006749D01*
X187969802Y-109194300D01*
X188131700Y-109356198D01*
X188136208Y-109359355D01*
X188136211Y-109359357D01*
X188214389Y-109414098D01*
X188319251Y-109487523D01*
X188324233Y-109489846D01*
X188324238Y-109489849D01*
X188521775Y-109581961D01*
X188526757Y-109584284D01*
X188532065Y-109585706D01*
X188532067Y-109585707D01*
X188742598Y-109642119D01*
X188742600Y-109642119D01*
X188747913Y-109643543D01*
X188976000Y-109663498D01*
X189204087Y-109643543D01*
X189209400Y-109642119D01*
X189209402Y-109642119D01*
X189419933Y-109585707D01*
X189419935Y-109585706D01*
X189425243Y-109584284D01*
X189430225Y-109581961D01*
X189627762Y-109489849D01*
X189627767Y-109489846D01*
X189632749Y-109487523D01*
X189737611Y-109414098D01*
X189815789Y-109359357D01*
X189815792Y-109359355D01*
X189820300Y-109356198D01*
X189982198Y-109194300D01*
X190113523Y-109006749D01*
X190115846Y-109001767D01*
X190115849Y-109001762D01*
X190207961Y-108804225D01*
X190207961Y-108804224D01*
X190210284Y-108799243D01*
X190269543Y-108578087D01*
X190284500Y-108407127D01*
X190284500Y-107492873D01*
X190284243Y-107489929D01*
X190275482Y-107389794D01*
X190289471Y-107320190D01*
X190338871Y-107269197D01*
X190399343Y-107252824D01*
X195277713Y-107188635D01*
X195346090Y-107207739D01*
X195362340Y-107219798D01*
X195671062Y-107489929D01*
X197314972Y-108928351D01*
X197353066Y-108988262D01*
X197358000Y-109023176D01*
X197358000Y-110811906D01*
X197337998Y-110880027D01*
X197321097Y-110900999D01*
X196182040Y-112040055D01*
X195100500Y-113121595D01*
X195038188Y-113155621D01*
X195011405Y-113158500D01*
X190324767Y-113158500D01*
X190313584Y-113157973D01*
X190306091Y-113156298D01*
X190298165Y-113156547D01*
X190298164Y-113156547D01*
X190238014Y-113158438D01*
X190234055Y-113158500D01*
X190206144Y-113158500D01*
X190202210Y-113158997D01*
X190202209Y-113158997D01*
X190202144Y-113159005D01*
X190190307Y-113159938D01*
X190158490Y-113160938D01*
X190154029Y-113161078D01*
X190146110Y-113161327D01*
X190128454Y-113166456D01*
X190126658Y-113166978D01*
X190107306Y-113170986D01*
X190100235Y-113171880D01*
X190087203Y-113173526D01*
X190079834Y-113176443D01*
X190079832Y-113176444D01*
X190046097Y-113189800D01*
X190034869Y-113193645D01*
X189992407Y-113205982D01*
X189985585Y-113210016D01*
X189985579Y-113210019D01*
X189974968Y-113216294D01*
X189957218Y-113224990D01*
X189945756Y-113229528D01*
X189945751Y-113229531D01*
X189938383Y-113232448D01*
X189931968Y-113237109D01*
X189902625Y-113258427D01*
X189892707Y-113264943D01*
X189874019Y-113275995D01*
X189854637Y-113287458D01*
X189840313Y-113301782D01*
X189825281Y-113314621D01*
X189808893Y-113326528D01*
X189780712Y-113360593D01*
X189772722Y-113369373D01*
X189302233Y-113839862D01*
X189239921Y-113873888D01*
X189202156Y-113876288D01*
X188981475Y-113856981D01*
X188976000Y-113856502D01*
X188747913Y-113876457D01*
X188742600Y-113877881D01*
X188742598Y-113877881D01*
X188532067Y-113934293D01*
X188532065Y-113934294D01*
X188526757Y-113935716D01*
X188521776Y-113938039D01*
X188521775Y-113938039D01*
X188324238Y-114030151D01*
X188324233Y-114030154D01*
X188319251Y-114032477D01*
X188284143Y-114057060D01*
X188136211Y-114160643D01*
X188136208Y-114160645D01*
X188131700Y-114163802D01*
X187969802Y-114325700D01*
X187966645Y-114330208D01*
X187966643Y-114330211D01*
X187847566Y-114500271D01*
X187792109Y-114544599D01*
X187744353Y-114554000D01*
X187667647Y-114554000D01*
X187599526Y-114533998D01*
X187564434Y-114500271D01*
X187445357Y-114330211D01*
X187445355Y-114330208D01*
X187442198Y-114325700D01*
X187280300Y-114163802D01*
X187275792Y-114160645D01*
X187275789Y-114160643D01*
X187127857Y-114057060D01*
X187092749Y-114032477D01*
X187087767Y-114030154D01*
X187087762Y-114030151D01*
X186890225Y-113938039D01*
X186890224Y-113938039D01*
X186885243Y-113935716D01*
X186879935Y-113934294D01*
X186879933Y-113934293D01*
X186669402Y-113877881D01*
X186669400Y-113877881D01*
X186664087Y-113876457D01*
X186436000Y-113856502D01*
X186207913Y-113876457D01*
X186202600Y-113877881D01*
X186202598Y-113877881D01*
X185992067Y-113934293D01*
X185992065Y-113934294D01*
X185986757Y-113935716D01*
X185981776Y-113938039D01*
X185981775Y-113938039D01*
X185784238Y-114030151D01*
X185784233Y-114030154D01*
X185779251Y-114032477D01*
X185744143Y-114057060D01*
X185596211Y-114160643D01*
X185596208Y-114160645D01*
X185591700Y-114163802D01*
X185429802Y-114325700D01*
X185426645Y-114330208D01*
X185426643Y-114330211D01*
X185307566Y-114500271D01*
X185252109Y-114544599D01*
X185204353Y-114554000D01*
X185127647Y-114554000D01*
X185059526Y-114533998D01*
X185024434Y-114500271D01*
X184905357Y-114330211D01*
X184905355Y-114330208D01*
X184902198Y-114325700D01*
X184740300Y-114163802D01*
X184735792Y-114160645D01*
X184735789Y-114160643D01*
X184587857Y-114057060D01*
X184552749Y-114032477D01*
X184547767Y-114030154D01*
X184547762Y-114030151D01*
X184350225Y-113938039D01*
X184350224Y-113938039D01*
X184345243Y-113935716D01*
X184339935Y-113934294D01*
X184339933Y-113934293D01*
X184129402Y-113877881D01*
X184129400Y-113877881D01*
X184124087Y-113876457D01*
X183896000Y-113856502D01*
X183667913Y-113876457D01*
X183662600Y-113877881D01*
X183662598Y-113877881D01*
X183452067Y-113934293D01*
X183452065Y-113934294D01*
X183446757Y-113935716D01*
X183441776Y-113938039D01*
X183441775Y-113938039D01*
X183244238Y-114030151D01*
X183244233Y-114030154D01*
X183239251Y-114032477D01*
X183204143Y-114057060D01*
X183056211Y-114160643D01*
X183056208Y-114160645D01*
X183051700Y-114163802D01*
X182889802Y-114325700D01*
X182886645Y-114330208D01*
X182886643Y-114330211D01*
X182767566Y-114500271D01*
X182712109Y-114544599D01*
X182664353Y-114554000D01*
X182587647Y-114554000D01*
X182519526Y-114533998D01*
X182484434Y-114500271D01*
X182365357Y-114330211D01*
X182365355Y-114330208D01*
X182362198Y-114325700D01*
X182200300Y-114163802D01*
X182195792Y-114160645D01*
X182195789Y-114160643D01*
X182047857Y-114057060D01*
X182012749Y-114032477D01*
X182007767Y-114030154D01*
X182007762Y-114030151D01*
X181810225Y-113938039D01*
X181810224Y-113938039D01*
X181805243Y-113935716D01*
X181799935Y-113934294D01*
X181799933Y-113934293D01*
X181589402Y-113877881D01*
X181589400Y-113877881D01*
X181584087Y-113876457D01*
X181356000Y-113856502D01*
X181127913Y-113876457D01*
X181122600Y-113877881D01*
X181122598Y-113877881D01*
X180912067Y-113934293D01*
X180912065Y-113934294D01*
X180906757Y-113935716D01*
X180901776Y-113938039D01*
X180901775Y-113938039D01*
X180704238Y-114030151D01*
X180704233Y-114030154D01*
X180699251Y-114032477D01*
X180664143Y-114057060D01*
X180516211Y-114160643D01*
X180516208Y-114160645D01*
X180511700Y-114163802D01*
X180349802Y-114325700D01*
X180346645Y-114330208D01*
X180346643Y-114330211D01*
X180227566Y-114500271D01*
X180172109Y-114544599D01*
X180124353Y-114554000D01*
X180047647Y-114554000D01*
X179979526Y-114533998D01*
X179944434Y-114500271D01*
X179825357Y-114330211D01*
X179825355Y-114330208D01*
X179822198Y-114325700D01*
X179660300Y-114163802D01*
X179655792Y-114160645D01*
X179655789Y-114160643D01*
X179507857Y-114057060D01*
X179472749Y-114032477D01*
X179467767Y-114030154D01*
X179467762Y-114030151D01*
X179270225Y-113938039D01*
X179270224Y-113938039D01*
X179265243Y-113935716D01*
X179259935Y-113934294D01*
X179259933Y-113934293D01*
X179049402Y-113877881D01*
X179049400Y-113877881D01*
X179044087Y-113876457D01*
X178816000Y-113856502D01*
X178587913Y-113876457D01*
X178582600Y-113877881D01*
X178582598Y-113877881D01*
X178372067Y-113934293D01*
X178372065Y-113934294D01*
X178366757Y-113935716D01*
X178361776Y-113938039D01*
X178361775Y-113938039D01*
X178164238Y-114030151D01*
X178164233Y-114030154D01*
X178159251Y-114032477D01*
X178124143Y-114057060D01*
X177976211Y-114160643D01*
X177976208Y-114160645D01*
X177971700Y-114163802D01*
X177809802Y-114325700D01*
X177807614Y-114328825D01*
X177748940Y-114367859D01*
X177677952Y-114368983D01*
X177614124Y-114327464D01*
X177609478Y-114321801D01*
X175090667Y-111252000D01*
X169683492Y-104662005D01*
X169683490Y-104662004D01*
X169672000Y-104648000D01*
X164464000Y-104648000D01*
X164395879Y-104627998D01*
X164349386Y-104574342D01*
X164338000Y-104522000D01*
X164338000Y-99440000D01*
X164358002Y-99371879D01*
X164411658Y-99325386D01*
X164464000Y-99314000D01*
X165177341Y-99314000D01*
X165231785Y-99326370D01*
G37*
%TD.AperFunction*%
%TD*%
M02*
