%TF.GenerationSoftware,KiCad,Pcbnew,(6.0.7-1)-1*%
%TF.CreationDate,2022-10-12T18:16:15+11:00*%
%TF.ProjectId,CAT emulator B,43415420-656d-4756-9c61-746f7220422e,rev?*%
%TF.SameCoordinates,Original*%
%TF.FileFunction,Drillmap*%
%TF.FilePolarity,Positive*%
%FSLAX45Y45*%
G04 Gerber Fmt 4.5, Leading zero omitted, Abs format (unit mm)*
G04 Created by KiCad (PCBNEW (6.0.7-1)-1) date 2022-10-12 18:16:15*
%MOMM*%
%LPD*%
G01*
G04 APERTURE LIST*
%ADD10C,0.100000*%
%ADD11C,0.200000*%
G04 APERTURE END LIST*
D10*
X20997600Y-13038000D02*
X20997600Y-12778000D01*
X16462600Y-6928000D02*
G75*
G03*
X16462600Y-6928000I-115000J0D01*
G01*
X20997600Y-12778000D02*
X20747600Y-12778000D01*
X25342600Y-11538000D02*
G75*
G03*
X25342600Y-11538000I-450000J0D01*
G01*
X16732600Y-12778000D02*
X16732600Y-13038000D01*
X25012600Y-12778000D02*
X24762600Y-12778000D01*
X16982600Y-13038000D02*
X16982600Y-12778000D01*
X16982600Y-13038000D02*
X20747600Y-13038000D01*
X20747600Y-12778000D02*
X20747600Y-13038000D01*
X17302600Y-11538000D02*
G75*
G03*
X17302600Y-11538000I-450000J0D01*
G01*
X25012600Y-13038000D02*
X25012600Y-12778000D01*
X16982600Y-12778000D02*
X16732600Y-12778000D01*
X20997600Y-13038000D02*
X24762600Y-13038000D01*
X25902600Y-6488000D02*
X15842600Y-6488000D01*
X15842600Y-6488000D02*
X15842600Y-13038000D01*
X25902600Y-13038000D02*
X25902600Y-6488000D01*
X25512600Y-6928000D02*
G75*
G03*
X25512600Y-6928000I-115000J0D01*
G01*
X24762600Y-12778000D02*
X24762600Y-13038000D01*
X25012600Y-13038000D02*
X25902600Y-13038000D01*
X15842600Y-13038000D02*
X16732600Y-13038000D01*
D11*
X16095219Y-13353476D02*
X16095219Y-13153476D01*
X16142838Y-13153476D01*
X16171409Y-13163000D01*
X16190457Y-13182048D01*
X16199981Y-13201095D01*
X16209505Y-13239190D01*
X16209505Y-13267762D01*
X16199981Y-13305857D01*
X16190457Y-13324905D01*
X16171409Y-13343952D01*
X16142838Y-13353476D01*
X16095219Y-13353476D01*
X16295219Y-13353476D02*
X16295219Y-13220143D01*
X16295219Y-13258238D02*
X16304743Y-13239190D01*
X16314267Y-13229667D01*
X16333314Y-13220143D01*
X16352362Y-13220143D01*
X16419028Y-13353476D02*
X16419028Y-13220143D01*
X16419028Y-13153476D02*
X16409505Y-13163000D01*
X16419028Y-13172524D01*
X16428552Y-13163000D01*
X16419028Y-13153476D01*
X16419028Y-13172524D01*
X16542838Y-13353476D02*
X16523790Y-13343952D01*
X16514267Y-13324905D01*
X16514267Y-13153476D01*
X16647600Y-13353476D02*
X16628552Y-13343952D01*
X16619028Y-13324905D01*
X16619028Y-13153476D01*
X16876171Y-13353476D02*
X16876171Y-13153476D01*
X16942838Y-13296333D01*
X17009505Y-13153476D01*
X17009505Y-13353476D01*
X17190457Y-13353476D02*
X17190457Y-13248714D01*
X17180933Y-13229667D01*
X17161886Y-13220143D01*
X17123790Y-13220143D01*
X17104743Y-13229667D01*
X17190457Y-13343952D02*
X17171410Y-13353476D01*
X17123790Y-13353476D01*
X17104743Y-13343952D01*
X17095219Y-13324905D01*
X17095219Y-13305857D01*
X17104743Y-13286809D01*
X17123790Y-13277286D01*
X17171410Y-13277286D01*
X17190457Y-13267762D01*
X17285695Y-13220143D02*
X17285695Y-13420143D01*
X17285695Y-13229667D02*
X17304743Y-13220143D01*
X17342838Y-13220143D01*
X17361886Y-13229667D01*
X17371410Y-13239190D01*
X17380933Y-13258238D01*
X17380933Y-13315381D01*
X17371410Y-13334428D01*
X17361886Y-13343952D01*
X17342838Y-13353476D01*
X17304743Y-13353476D01*
X17285695Y-13343952D01*
X17466648Y-13334428D02*
X17476171Y-13343952D01*
X17466648Y-13353476D01*
X17457124Y-13343952D01*
X17466648Y-13334428D01*
X17466648Y-13353476D01*
X17466648Y-13229667D02*
X17476171Y-13239190D01*
X17466648Y-13248714D01*
X17457124Y-13239190D01*
X17466648Y-13229667D01*
X17466648Y-13248714D01*
M02*
