%TF.GenerationSoftware,KiCad,Pcbnew,(6.0.7-1)-1*%
%TF.CreationDate,2022-10-12T18:14:04+11:00*%
%TF.ProjectId,CAT emulator,43415420-656d-4756-9c61-746f722e6b69,rev?*%
%TF.SameCoordinates,Original*%
%TF.FileFunction,Drillmap*%
%TF.FilePolarity,Positive*%
%FSLAX45Y45*%
G04 Gerber Fmt 4.5, Leading zero omitted, Abs format (unit mm)*
G04 Created by KiCad (PCBNEW (6.0.7-1)-1) date 2022-10-12 18:14:04*
%MOMM*%
%LPD*%
G01*
G04 APERTURE LIST*
%ADD10C,0.100000*%
%ADD11C,0.200000*%
%ADD12C,0.040000*%
%ADD13C,0.060000*%
%ADD14C,0.080000*%
G04 APERTURE END LIST*
D10*
X26125000Y-4980000D02*
X26125000Y-3980000D01*
X25525000Y-10090000D02*
G75*
G03*
X25525000Y-10090000I-115000J0D01*
G01*
X16190000Y-11530000D02*
X16190000Y-13040000D01*
X17315000Y-5480000D02*
G75*
G03*
X17315000Y-5480000I-450000J0D01*
G01*
X25900000Y-5230000D02*
X26125000Y-5230000D01*
X15645000Y-5230000D02*
X15870000Y-5230000D01*
X25900000Y-4980000D02*
X25900000Y-5230000D01*
X15870000Y-4980000D02*
X15645000Y-4980000D01*
X15645000Y-3980000D02*
X15645000Y-4980000D01*
X25355000Y-5480000D02*
G75*
G03*
X25355000Y-5480000I-450000J0D01*
G01*
X26125000Y-4980000D02*
X25900000Y-4980000D01*
X15645000Y-11530000D02*
X16190000Y-11530000D01*
X26125000Y-3980000D02*
X15645000Y-3980000D01*
X16190000Y-13040000D02*
X25590000Y-13040000D01*
X26125000Y-11530000D02*
X26125000Y-5230000D01*
X15870000Y-5230000D02*
X15870000Y-4980000D01*
X15645000Y-5230000D02*
X15645000Y-11530000D01*
X16475000Y-10090000D02*
G75*
G03*
X16475000Y-10090000I-115000J0D01*
G01*
X25590000Y-11530000D02*
X26125000Y-11530000D01*
X25590000Y-13040000D02*
X25590000Y-11530000D01*
D11*
D12*
X17252000Y-10114600D02*
X17292000Y-10154600D01*
X17292000Y-10114600D02*
X17252000Y-10154600D01*
X17302800Y-11727500D02*
X17342800Y-11767500D01*
X17342800Y-11727500D02*
X17302800Y-11767500D01*
X17328200Y-8565200D02*
X17368200Y-8605200D01*
X17368200Y-8565200D02*
X17328200Y-8605200D01*
X17429800Y-10444800D02*
X17469800Y-10484800D01*
X17469800Y-10444800D02*
X17429800Y-10484800D01*
X17480600Y-9301800D02*
X17520600Y-9341800D01*
X17520600Y-9301800D02*
X17480600Y-9341800D01*
X17531400Y-9073200D02*
X17571400Y-9113200D01*
X17571400Y-9073200D02*
X17531400Y-9113200D01*
X17633000Y-8565200D02*
X17673000Y-8605200D01*
X17673000Y-8565200D02*
X17633000Y-8605200D01*
X17658400Y-10546400D02*
X17698400Y-10586400D01*
X17698400Y-10546400D02*
X17658400Y-10586400D01*
X18077500Y-5949000D02*
X18117500Y-5989000D01*
X18117500Y-5949000D02*
X18077500Y-5989000D01*
X18204500Y-8920800D02*
X18244500Y-8960800D01*
X18244500Y-8920800D02*
X18204500Y-8960800D01*
X18395000Y-6711000D02*
X18435000Y-6751000D01*
X18435000Y-6711000D02*
X18395000Y-6751000D01*
X18572800Y-10673400D02*
X18612800Y-10713400D01*
X18612800Y-10673400D02*
X18572800Y-10713400D01*
X18801400Y-9555800D02*
X18841400Y-9595800D01*
X18841400Y-9555800D02*
X18801400Y-9595800D01*
X18839500Y-6520500D02*
X18879500Y-6560500D01*
X18879500Y-6520500D02*
X18839500Y-6560500D01*
X18852200Y-10368600D02*
X18892200Y-10408600D01*
X18892200Y-10368600D02*
X18852200Y-10408600D01*
X18953800Y-9327200D02*
X18993800Y-9367200D01*
X18993800Y-9327200D02*
X18953800Y-9367200D01*
X18966500Y-5695000D02*
X19006500Y-5735000D01*
X19006500Y-5695000D02*
X18966500Y-5735000D01*
X19080800Y-10495600D02*
X19120800Y-10535600D01*
X19120800Y-10495600D02*
X19080800Y-10535600D01*
X19436400Y-8819200D02*
X19476400Y-8859200D01*
X19476400Y-8819200D02*
X19436400Y-8859200D01*
X19436400Y-10216200D02*
X19476400Y-10256200D01*
X19476400Y-10216200D02*
X19436400Y-10256200D01*
X19538000Y-6203000D02*
X19578000Y-6243000D01*
X19578000Y-6203000D02*
X19538000Y-6243000D01*
X19538000Y-9047800D02*
X19578000Y-9087800D01*
X19578000Y-9047800D02*
X19538000Y-9087800D01*
X19601500Y-6457000D02*
X19641500Y-6497000D01*
X19641500Y-6457000D02*
X19601500Y-6497000D01*
X19842800Y-11257600D02*
X19882800Y-11297600D01*
X19882800Y-11257600D02*
X19842800Y-11297600D01*
X20020600Y-10597200D02*
X20060600Y-10637200D01*
X20060600Y-10597200D02*
X20020600Y-10637200D01*
X20096800Y-11029000D02*
X20136800Y-11069000D01*
X20136800Y-11029000D02*
X20096800Y-11069000D01*
X20325400Y-10622600D02*
X20365400Y-10662600D01*
X20365400Y-10622600D02*
X20325400Y-10662600D01*
X20401600Y-11283000D02*
X20441600Y-11323000D01*
X20441600Y-11283000D02*
X20401600Y-11323000D01*
X20744500Y-6520500D02*
X20784500Y-6560500D01*
X20784500Y-6520500D02*
X20744500Y-6560500D01*
X20871500Y-7092000D02*
X20911500Y-7132000D01*
X20911500Y-7092000D02*
X20871500Y-7132000D01*
X20942176Y-6901500D02*
X20982176Y-6941500D01*
X20982176Y-6901500D02*
X20942176Y-6941500D01*
X21316000Y-10698800D02*
X21356000Y-10738800D01*
X21356000Y-10698800D02*
X21316000Y-10738800D01*
X21595400Y-10698800D02*
X21635400Y-10738800D01*
X21635400Y-10698800D02*
X21595400Y-10738800D01*
X22128800Y-6279200D02*
X22168800Y-6319200D01*
X22168800Y-6279200D02*
X22128800Y-6319200D01*
X22230400Y-5949000D02*
X22270400Y-5989000D01*
X22270400Y-5949000D02*
X22230400Y-5989000D01*
X22636800Y-11384600D02*
X22676800Y-11424600D01*
X22676800Y-11384600D02*
X22636800Y-11424600D01*
X22890800Y-10013000D02*
X22930800Y-10053000D01*
X22930800Y-10013000D02*
X22890800Y-10053000D01*
X22916200Y-11384600D02*
X22956200Y-11424600D01*
X22956200Y-11384600D02*
X22916200Y-11424600D01*
X22992400Y-10190800D02*
X23032400Y-10230800D01*
X23032400Y-10190800D02*
X22992400Y-10230800D01*
X23906800Y-11232200D02*
X23946800Y-11272200D01*
X23946800Y-11232200D02*
X23906800Y-11272200D01*
X24046500Y-8870000D02*
X24086500Y-8910000D01*
X24086500Y-8870000D02*
X24046500Y-8910000D01*
X24059200Y-11029000D02*
X24099200Y-11069000D01*
X24099200Y-11029000D02*
X24059200Y-11069000D01*
X24110000Y-9187500D02*
X24150000Y-9227500D01*
X24150000Y-9187500D02*
X24110000Y-9227500D01*
X24237000Y-9441500D02*
X24277000Y-9481500D01*
X24277000Y-9441500D02*
X24237000Y-9481500D01*
X24300500Y-11029000D02*
X24340500Y-11069000D01*
X24340500Y-11029000D02*
X24300500Y-11069000D01*
X24745000Y-7155500D02*
X24785000Y-7195500D01*
X24785000Y-7155500D02*
X24745000Y-7195500D01*
X24935500Y-11346500D02*
X24975500Y-11386500D01*
X24975500Y-11346500D02*
X24935500Y-11386500D01*
D13*
X15981200Y-10896600D02*
G75*
G03*
X15981200Y-10896600I-30000J0D01*
G01*
X15981200Y-11046600D02*
G75*
G03*
X15981200Y-11046600I-30000J0D01*
G01*
D14*
X15900400Y-4201800D02*
X15900400Y-4281800D01*
X15860400Y-4241800D02*
X15940400Y-4241800D01*
X16383000Y-10780400D02*
X16383000Y-10860400D01*
X16343000Y-10820400D02*
X16423000Y-10820400D01*
X16383000Y-11034400D02*
X16383000Y-11114400D01*
X16343000Y-11074400D02*
X16423000Y-11074400D01*
X17094200Y-10780400D02*
X17094200Y-10860400D01*
X17054200Y-10820400D02*
X17134200Y-10820400D01*
X17322800Y-10983600D02*
X17322800Y-11063600D01*
X17282800Y-11023600D02*
X17362800Y-11023600D01*
X17856200Y-10221600D02*
X17856200Y-10301600D01*
X17816200Y-10261600D02*
X17896200Y-10261600D01*
X17932400Y-4201800D02*
X17932400Y-4281800D01*
X17892400Y-4241800D02*
X17972400Y-4241800D01*
X17983200Y-10221600D02*
X17983200Y-10301600D01*
X17943200Y-10261600D02*
X18023200Y-10261600D01*
X19202400Y-10247000D02*
X19202400Y-10327000D01*
X19162400Y-10287000D02*
X19242400Y-10287000D01*
X19304000Y-10348600D02*
X19304000Y-10428600D01*
X19264000Y-10388600D02*
X19344000Y-10388600D01*
X19939000Y-4201800D02*
X19939000Y-4281800D01*
X19899000Y-4241800D02*
X19979000Y-4241800D01*
X20574000Y-10297800D02*
X20574000Y-10377800D01*
X20534000Y-10337800D02*
X20614000Y-10337800D01*
X20599400Y-10450200D02*
X20599400Y-10530200D01*
X20559400Y-10490200D02*
X20639400Y-10490200D01*
X21793200Y-4201800D02*
X21793200Y-4281800D01*
X21753200Y-4241800D02*
X21833200Y-4241800D01*
X21818600Y-10399400D02*
X21818600Y-10479400D01*
X21778600Y-10439400D02*
X21858600Y-10439400D01*
X21945600Y-10475600D02*
X21945600Y-10555600D01*
X21905600Y-10515600D02*
X21985600Y-10515600D01*
X23926800Y-4201800D02*
X23926800Y-4281800D01*
X23886800Y-4241800D02*
X23966800Y-4241800D01*
X24409400Y-10018400D02*
X24409400Y-10098400D01*
X24369400Y-10058400D02*
X24449400Y-10058400D01*
X25146000Y-10628000D02*
X25146000Y-10708000D01*
X25106000Y-10668000D02*
X25186000Y-10668000D01*
X25146000Y-11136000D02*
X25146000Y-11216000D01*
X25106000Y-11176000D02*
X25186000Y-11176000D01*
X25844500Y-10501000D02*
X25844500Y-10581000D01*
X25804500Y-10541000D02*
X25884500Y-10541000D01*
X25844500Y-11199500D02*
X25844500Y-11279500D01*
X25804500Y-11239500D02*
X25884500Y-11239500D01*
X25882600Y-4176400D02*
X25882600Y-4256400D01*
X25842600Y-4216400D02*
X25922600Y-4216400D01*
X17173285Y-7965784D02*
X17173285Y-7909215D01*
X17116716Y-7909215D01*
X17116716Y-7965784D01*
X17173285Y-7965784D01*
X17173285Y-8219784D02*
X17173285Y-8163215D01*
X17116716Y-8163215D01*
X17116716Y-8219784D01*
X17173285Y-8219784D01*
X17173285Y-8473785D02*
X17173285Y-8417216D01*
X17116716Y-8417216D01*
X17116716Y-8473785D01*
X17173285Y-8473785D01*
X17173285Y-8727785D02*
X17173285Y-8671216D01*
X17116716Y-8671216D01*
X17116716Y-8727785D01*
X17173285Y-8727785D01*
X17173285Y-8981785D02*
X17173285Y-8925216D01*
X17116716Y-8925216D01*
X17116716Y-8981785D01*
X17173285Y-8981785D01*
X17173285Y-9235785D02*
X17173285Y-9179216D01*
X17116716Y-9179216D01*
X17116716Y-9235785D01*
X17173285Y-9235785D01*
X17173285Y-9489785D02*
X17173285Y-9433216D01*
X17116716Y-9433216D01*
X17116716Y-9489785D01*
X17173285Y-9489785D01*
X17173285Y-9743785D02*
X17173285Y-9687216D01*
X17116716Y-9687216D01*
X17116716Y-9743785D01*
X17173285Y-9743785D01*
X17873285Y-5617784D02*
X17873285Y-5561216D01*
X17816716Y-5561216D01*
X17816716Y-5617784D01*
X17873285Y-5617784D01*
X17873285Y-5871784D02*
X17873285Y-5815215D01*
X17816716Y-5815215D01*
X17816716Y-5871784D01*
X17873285Y-5871784D01*
X17873285Y-6125784D02*
X17873285Y-6069215D01*
X17816716Y-6069215D01*
X17816716Y-6125784D01*
X17873285Y-6125784D01*
X17873285Y-6379784D02*
X17873285Y-6323215D01*
X17816716Y-6323215D01*
X17816716Y-6379784D01*
X17873285Y-6379784D01*
X17873285Y-6633784D02*
X17873285Y-6577215D01*
X17816716Y-6577215D01*
X17816716Y-6633784D01*
X17873285Y-6633784D01*
X17873285Y-6887784D02*
X17873285Y-6831215D01*
X17816716Y-6831215D01*
X17816716Y-6887784D01*
X17873285Y-6887784D01*
X17873285Y-7141784D02*
X17873285Y-7085215D01*
X17816716Y-7085215D01*
X17816716Y-7141784D01*
X17873285Y-7141784D01*
X17873285Y-7395784D02*
X17873285Y-7339215D01*
X17816716Y-7339215D01*
X17816716Y-7395784D01*
X17873285Y-7395784D01*
X17935285Y-7965784D02*
X17935285Y-7909215D01*
X17878716Y-7909215D01*
X17878716Y-7965784D01*
X17935285Y-7965784D01*
X17935285Y-8219784D02*
X17935285Y-8163215D01*
X17878716Y-8163215D01*
X17878716Y-8219784D01*
X17935285Y-8219784D01*
X17935285Y-8473785D02*
X17935285Y-8417216D01*
X17878716Y-8417216D01*
X17878716Y-8473785D01*
X17935285Y-8473785D01*
X17935285Y-8727785D02*
X17935285Y-8671216D01*
X17878716Y-8671216D01*
X17878716Y-8727785D01*
X17935285Y-8727785D01*
X17935285Y-8981785D02*
X17935285Y-8925216D01*
X17878716Y-8925216D01*
X17878716Y-8981785D01*
X17935285Y-8981785D01*
X17935285Y-9235785D02*
X17935285Y-9179216D01*
X17878716Y-9179216D01*
X17878716Y-9235785D01*
X17935285Y-9235785D01*
X17935285Y-9489785D02*
X17935285Y-9433216D01*
X17878716Y-9433216D01*
X17878716Y-9489785D01*
X17935285Y-9489785D01*
X17935285Y-9743785D02*
X17935285Y-9687216D01*
X17878716Y-9687216D01*
X17878716Y-9743785D01*
X17935285Y-9743785D01*
X18189285Y-5260685D02*
X18189285Y-5204116D01*
X18132716Y-5204116D01*
X18132716Y-5260685D01*
X18189285Y-5260685D01*
X18508285Y-7967284D02*
X18508285Y-7910715D01*
X18451716Y-7910715D01*
X18451716Y-7967284D01*
X18508285Y-7967284D01*
X18508285Y-8221284D02*
X18508285Y-8164715D01*
X18451716Y-8164715D01*
X18451716Y-8221284D01*
X18508285Y-8221284D01*
X18508285Y-8475285D02*
X18508285Y-8418716D01*
X18451716Y-8418716D01*
X18451716Y-8475285D01*
X18508285Y-8475285D01*
X18508285Y-8729285D02*
X18508285Y-8672716D01*
X18451716Y-8672716D01*
X18451716Y-8729285D01*
X18508285Y-8729285D01*
X18508285Y-8983285D02*
X18508285Y-8926716D01*
X18451716Y-8926716D01*
X18451716Y-8983285D01*
X18508285Y-8983285D01*
X18508285Y-9237285D02*
X18508285Y-9180716D01*
X18451716Y-9180716D01*
X18451716Y-9237285D01*
X18508285Y-9237285D01*
X18508285Y-9491285D02*
X18508285Y-9434716D01*
X18451716Y-9434716D01*
X18451716Y-9491285D01*
X18508285Y-9491285D01*
X18508285Y-9745285D02*
X18508285Y-9688716D01*
X18451716Y-9688716D01*
X18451716Y-9745285D01*
X18508285Y-9745285D01*
X18635285Y-5617784D02*
X18635285Y-5561216D01*
X18578716Y-5561216D01*
X18578716Y-5617784D01*
X18635285Y-5617784D01*
X18635285Y-5871784D02*
X18635285Y-5815215D01*
X18578716Y-5815215D01*
X18578716Y-5871784D01*
X18635285Y-5871784D01*
X18635285Y-6125784D02*
X18635285Y-6069215D01*
X18578716Y-6069215D01*
X18578716Y-6125784D01*
X18635285Y-6125784D01*
X18635285Y-6379784D02*
X18635285Y-6323215D01*
X18578716Y-6323215D01*
X18578716Y-6379784D01*
X18635285Y-6379784D01*
X18635285Y-6633784D02*
X18635285Y-6577215D01*
X18578716Y-6577215D01*
X18578716Y-6633784D01*
X18635285Y-6633784D01*
X18635285Y-6887784D02*
X18635285Y-6831215D01*
X18578716Y-6831215D01*
X18578716Y-6887784D01*
X18635285Y-6887784D01*
X18635285Y-7141784D02*
X18635285Y-7085215D01*
X18578716Y-7085215D01*
X18578716Y-7141784D01*
X18635285Y-7141784D01*
X18635285Y-7395784D02*
X18635285Y-7339215D01*
X18578716Y-7339215D01*
X18578716Y-7395784D01*
X18635285Y-7395784D01*
X18689285Y-5260685D02*
X18689285Y-5204116D01*
X18632716Y-5204116D01*
X18632716Y-5260685D01*
X18689285Y-5260685D01*
X19206785Y-5617784D02*
X19206785Y-5561216D01*
X19150216Y-5561216D01*
X19150216Y-5617784D01*
X19206785Y-5617784D01*
X19206785Y-5871784D02*
X19206785Y-5815215D01*
X19150216Y-5815215D01*
X19150216Y-5871784D01*
X19206785Y-5871784D01*
X19206785Y-6125784D02*
X19206785Y-6069215D01*
X19150216Y-6069215D01*
X19150216Y-6125784D01*
X19206785Y-6125784D01*
X19206785Y-6379784D02*
X19206785Y-6323215D01*
X19150216Y-6323215D01*
X19150216Y-6379784D01*
X19206785Y-6379784D01*
X19206785Y-6633784D02*
X19206785Y-6577215D01*
X19150216Y-6577215D01*
X19150216Y-6633784D01*
X19206785Y-6633784D01*
X19206785Y-6887784D02*
X19206785Y-6831215D01*
X19150216Y-6831215D01*
X19150216Y-6887784D01*
X19206785Y-6887784D01*
X19206785Y-7141784D02*
X19206785Y-7085215D01*
X19150216Y-7085215D01*
X19150216Y-7141784D01*
X19206785Y-7141784D01*
X19206785Y-7395784D02*
X19206785Y-7339215D01*
X19150216Y-7339215D01*
X19150216Y-7395784D01*
X19206785Y-7395784D01*
X19270285Y-7967284D02*
X19270285Y-7910715D01*
X19213716Y-7910715D01*
X19213716Y-7967284D01*
X19270285Y-7967284D01*
X19270285Y-8221284D02*
X19270285Y-8164715D01*
X19213716Y-8164715D01*
X19213716Y-8221284D01*
X19270285Y-8221284D01*
X19270285Y-8475285D02*
X19270285Y-8418716D01*
X19213716Y-8418716D01*
X19213716Y-8475285D01*
X19270285Y-8475285D01*
X19270285Y-8729285D02*
X19270285Y-8672716D01*
X19213716Y-8672716D01*
X19213716Y-8729285D01*
X19270285Y-8729285D01*
X19270285Y-8983285D02*
X19270285Y-8926716D01*
X19213716Y-8926716D01*
X19213716Y-8983285D01*
X19270285Y-8983285D01*
X19270285Y-9237285D02*
X19270285Y-9180716D01*
X19213716Y-9180716D01*
X19213716Y-9237285D01*
X19270285Y-9237285D01*
X19270285Y-9491285D02*
X19270285Y-9434716D01*
X19213716Y-9434716D01*
X19213716Y-9491285D01*
X19270285Y-9491285D01*
X19270285Y-9745285D02*
X19270285Y-9688716D01*
X19213716Y-9688716D01*
X19213716Y-9745285D01*
X19270285Y-9745285D01*
X19416485Y-5260685D02*
X19416485Y-5204116D01*
X19359916Y-5204116D01*
X19359916Y-5260685D01*
X19416485Y-5260685D01*
X19840285Y-7965784D02*
X19840285Y-7909215D01*
X19783716Y-7909215D01*
X19783716Y-7965784D01*
X19840285Y-7965784D01*
X19840285Y-8219784D02*
X19840285Y-8163215D01*
X19783716Y-8163215D01*
X19783716Y-8219784D01*
X19840285Y-8219784D01*
X19840285Y-8473785D02*
X19840285Y-8417216D01*
X19783716Y-8417216D01*
X19783716Y-8473785D01*
X19840285Y-8473785D01*
X19840285Y-8727785D02*
X19840285Y-8671216D01*
X19783716Y-8671216D01*
X19783716Y-8727785D01*
X19840285Y-8727785D01*
X19840285Y-8981785D02*
X19840285Y-8925216D01*
X19783716Y-8925216D01*
X19783716Y-8981785D01*
X19840285Y-8981785D01*
X19840285Y-9235785D02*
X19840285Y-9179216D01*
X19783716Y-9179216D01*
X19783716Y-9235785D01*
X19840285Y-9235785D01*
X19840285Y-9489785D02*
X19840285Y-9433216D01*
X19783716Y-9433216D01*
X19783716Y-9489785D01*
X19840285Y-9489785D01*
X19840285Y-9743785D02*
X19840285Y-9687216D01*
X19783716Y-9687216D01*
X19783716Y-9743785D01*
X19840285Y-9743785D01*
X19916485Y-5260685D02*
X19916485Y-5204116D01*
X19859916Y-5204116D01*
X19859916Y-5260685D01*
X19916485Y-5260685D01*
X19968785Y-5617784D02*
X19968785Y-5561216D01*
X19912216Y-5561216D01*
X19912216Y-5617784D01*
X19968785Y-5617784D01*
X19968785Y-5871784D02*
X19968785Y-5815215D01*
X19912216Y-5815215D01*
X19912216Y-5871784D01*
X19968785Y-5871784D01*
X19968785Y-6125784D02*
X19968785Y-6069215D01*
X19912216Y-6069215D01*
X19912216Y-6125784D01*
X19968785Y-6125784D01*
X19968785Y-6379784D02*
X19968785Y-6323215D01*
X19912216Y-6323215D01*
X19912216Y-6379784D01*
X19968785Y-6379784D01*
X19968785Y-6633784D02*
X19968785Y-6577215D01*
X19912216Y-6577215D01*
X19912216Y-6633784D01*
X19968785Y-6633784D01*
X19968785Y-6887784D02*
X19968785Y-6831215D01*
X19912216Y-6831215D01*
X19912216Y-6887784D01*
X19968785Y-6887784D01*
X19968785Y-7141784D02*
X19968785Y-7085215D01*
X19912216Y-7085215D01*
X19912216Y-7141784D01*
X19968785Y-7141784D01*
X19968785Y-7395784D02*
X19968785Y-7339215D01*
X19912216Y-7339215D01*
X19912216Y-7395784D01*
X19968785Y-7395784D01*
X20540285Y-5617784D02*
X20540285Y-5561216D01*
X20483716Y-5561216D01*
X20483716Y-5617784D01*
X20540285Y-5617784D01*
X20540285Y-5871784D02*
X20540285Y-5815215D01*
X20483716Y-5815215D01*
X20483716Y-5871784D01*
X20540285Y-5871784D01*
X20540285Y-6125784D02*
X20540285Y-6069215D01*
X20483716Y-6069215D01*
X20483716Y-6125784D01*
X20540285Y-6125784D01*
X20540285Y-6379784D02*
X20540285Y-6323215D01*
X20483716Y-6323215D01*
X20483716Y-6379784D01*
X20540285Y-6379784D01*
X20540285Y-6633784D02*
X20540285Y-6577215D01*
X20483716Y-6577215D01*
X20483716Y-6633784D01*
X20540285Y-6633784D01*
X20540285Y-6887784D02*
X20540285Y-6831215D01*
X20483716Y-6831215D01*
X20483716Y-6887784D01*
X20540285Y-6887784D01*
X20540285Y-7141784D02*
X20540285Y-7085215D01*
X20483716Y-7085215D01*
X20483716Y-7141784D01*
X20540285Y-7141784D01*
X20540285Y-7395784D02*
X20540285Y-7339215D01*
X20483716Y-7339215D01*
X20483716Y-7395784D01*
X20540285Y-7395784D01*
X20602285Y-7965784D02*
X20602285Y-7909215D01*
X20545716Y-7909215D01*
X20545716Y-7965784D01*
X20602285Y-7965784D01*
X20602285Y-8219784D02*
X20602285Y-8163215D01*
X20545716Y-8163215D01*
X20545716Y-8219784D01*
X20602285Y-8219784D01*
X20602285Y-8473785D02*
X20602285Y-8417216D01*
X20545716Y-8417216D01*
X20545716Y-8473785D01*
X20602285Y-8473785D01*
X20602285Y-8727785D02*
X20602285Y-8671216D01*
X20545716Y-8671216D01*
X20545716Y-8727785D01*
X20602285Y-8727785D01*
X20602285Y-8981785D02*
X20602285Y-8925216D01*
X20545716Y-8925216D01*
X20545716Y-8981785D01*
X20602285Y-8981785D01*
X20602285Y-9235785D02*
X20602285Y-9179216D01*
X20545716Y-9179216D01*
X20545716Y-9235785D01*
X20602285Y-9235785D01*
X20602285Y-9489785D02*
X20602285Y-9433216D01*
X20545716Y-9433216D01*
X20545716Y-9489785D01*
X20602285Y-9489785D01*
X20602285Y-9743785D02*
X20602285Y-9687216D01*
X20545716Y-9687216D01*
X20545716Y-9743785D01*
X20602285Y-9743785D01*
X21110285Y-7965784D02*
X21110285Y-7909215D01*
X21053716Y-7909215D01*
X21053716Y-7965784D01*
X21110285Y-7965784D01*
X21110285Y-8219784D02*
X21110285Y-8163215D01*
X21053716Y-8163215D01*
X21053716Y-8219784D01*
X21110285Y-8219784D01*
X21110285Y-8473785D02*
X21110285Y-8417216D01*
X21053716Y-8417216D01*
X21053716Y-8473785D01*
X21110285Y-8473785D01*
X21110285Y-8727785D02*
X21110285Y-8671216D01*
X21053716Y-8671216D01*
X21053716Y-8727785D01*
X21110285Y-8727785D01*
X21110285Y-8981785D02*
X21110285Y-8925216D01*
X21053716Y-8925216D01*
X21053716Y-8981785D01*
X21110285Y-8981785D01*
X21110285Y-9235785D02*
X21110285Y-9179216D01*
X21053716Y-9179216D01*
X21053716Y-9235785D01*
X21110285Y-9235785D01*
X21110285Y-9489785D02*
X21110285Y-9433216D01*
X21053716Y-9433216D01*
X21053716Y-9489785D01*
X21110285Y-9489785D01*
X21110285Y-9743785D02*
X21110285Y-9687216D01*
X21053716Y-9687216D01*
X21053716Y-9743785D01*
X21110285Y-9743785D01*
X21302285Y-5617784D02*
X21302285Y-5561216D01*
X21245716Y-5561216D01*
X21245716Y-5617784D01*
X21302285Y-5617784D01*
X21302285Y-5871784D02*
X21302285Y-5815215D01*
X21245716Y-5815215D01*
X21245716Y-5871784D01*
X21302285Y-5871784D01*
X21302285Y-6125784D02*
X21302285Y-6069215D01*
X21245716Y-6069215D01*
X21245716Y-6125784D01*
X21302285Y-6125784D01*
X21302285Y-6379784D02*
X21302285Y-6323215D01*
X21245716Y-6323215D01*
X21245716Y-6379784D01*
X21302285Y-6379784D01*
X21302285Y-6633784D02*
X21302285Y-6577215D01*
X21245716Y-6577215D01*
X21245716Y-6633784D01*
X21302285Y-6633784D01*
X21302285Y-6887784D02*
X21302285Y-6831215D01*
X21245716Y-6831215D01*
X21245716Y-6887784D01*
X21302285Y-6887784D01*
X21302285Y-7141784D02*
X21302285Y-7085215D01*
X21245716Y-7085215D01*
X21245716Y-7141784D01*
X21302285Y-7141784D01*
X21302285Y-7395784D02*
X21302285Y-7339215D01*
X21245716Y-7339215D01*
X21245716Y-7395784D01*
X21302285Y-7395784D01*
X21647685Y-5259285D02*
X21647685Y-5202716D01*
X21591116Y-5202716D01*
X21591116Y-5259285D01*
X21647685Y-5259285D01*
X21872285Y-7965784D02*
X21872285Y-7909215D01*
X21815716Y-7909215D01*
X21815716Y-7965784D01*
X21872285Y-7965784D01*
X21872285Y-8219784D02*
X21872285Y-8163215D01*
X21815716Y-8163215D01*
X21815716Y-8219784D01*
X21872285Y-8219784D01*
X21872285Y-8473785D02*
X21872285Y-8417216D01*
X21815716Y-8417216D01*
X21815716Y-8473785D01*
X21872285Y-8473785D01*
X21872285Y-8727785D02*
X21872285Y-8671216D01*
X21815716Y-8671216D01*
X21815716Y-8727785D01*
X21872285Y-8727785D01*
X21872285Y-8981785D02*
X21872285Y-8925216D01*
X21815716Y-8925216D01*
X21815716Y-8981785D01*
X21872285Y-8981785D01*
X21872285Y-9235785D02*
X21872285Y-9179216D01*
X21815716Y-9179216D01*
X21815716Y-9235785D01*
X21872285Y-9235785D01*
X21872285Y-9489785D02*
X21872285Y-9433216D01*
X21815716Y-9433216D01*
X21815716Y-9489785D01*
X21872285Y-9489785D01*
X21872285Y-9743785D02*
X21872285Y-9687216D01*
X21815716Y-9687216D01*
X21815716Y-9743785D01*
X21872285Y-9743785D01*
X21873785Y-5617784D02*
X21873785Y-5561216D01*
X21817216Y-5561216D01*
X21817216Y-5617784D01*
X21873785Y-5617784D01*
X21873785Y-5871784D02*
X21873785Y-5815215D01*
X21817216Y-5815215D01*
X21817216Y-5871784D01*
X21873785Y-5871784D01*
X21873785Y-6125784D02*
X21873785Y-6069215D01*
X21817216Y-6069215D01*
X21817216Y-6125784D01*
X21873785Y-6125784D01*
X21873785Y-6379784D02*
X21873785Y-6323215D01*
X21817216Y-6323215D01*
X21817216Y-6379784D01*
X21873785Y-6379784D01*
X21873785Y-6633784D02*
X21873785Y-6577215D01*
X21817216Y-6577215D01*
X21817216Y-6633784D01*
X21873785Y-6633784D01*
X21873785Y-6887784D02*
X21873785Y-6831215D01*
X21817216Y-6831215D01*
X21817216Y-6887784D01*
X21873785Y-6887784D01*
X21873785Y-7141784D02*
X21873785Y-7085215D01*
X21817216Y-7085215D01*
X21817216Y-7141784D01*
X21873785Y-7141784D01*
X21873785Y-7395784D02*
X21873785Y-7339215D01*
X21817216Y-7339215D01*
X21817216Y-7395784D01*
X21873785Y-7395784D01*
X22147685Y-5259285D02*
X22147685Y-5202716D01*
X22091116Y-5202716D01*
X22091116Y-5259285D01*
X22147685Y-5259285D01*
X22508784Y-7965784D02*
X22508784Y-7909215D01*
X22452215Y-7909215D01*
X22452215Y-7965784D01*
X22508784Y-7965784D01*
X22508784Y-8219784D02*
X22508784Y-8163215D01*
X22452215Y-8163215D01*
X22452215Y-8219784D01*
X22508784Y-8219784D01*
X22508784Y-8473785D02*
X22508784Y-8417216D01*
X22452215Y-8417216D01*
X22452215Y-8473785D01*
X22508784Y-8473785D01*
X22508784Y-8727785D02*
X22508784Y-8671216D01*
X22452215Y-8671216D01*
X22452215Y-8727785D01*
X22508784Y-8727785D01*
X22508784Y-8981785D02*
X22508784Y-8925216D01*
X22452215Y-8925216D01*
X22452215Y-8981785D01*
X22508784Y-8981785D01*
X22508784Y-9235785D02*
X22508784Y-9179216D01*
X22452215Y-9179216D01*
X22452215Y-9235785D01*
X22508784Y-9235785D01*
X22508784Y-9489785D02*
X22508784Y-9433216D01*
X22452215Y-9433216D01*
X22452215Y-9489785D01*
X22508784Y-9489785D01*
X22508784Y-9743785D02*
X22508784Y-9687216D01*
X22452215Y-9687216D01*
X22452215Y-9743785D01*
X22508784Y-9743785D01*
X22508784Y-9997785D02*
X22508784Y-9941216D01*
X22452215Y-9941216D01*
X22452215Y-9997785D01*
X22508784Y-9997785D01*
X22635784Y-5617784D02*
X22635784Y-5561216D01*
X22579215Y-5561216D01*
X22579215Y-5617784D01*
X22635784Y-5617784D01*
X22635784Y-5871784D02*
X22635784Y-5815215D01*
X22579215Y-5815215D01*
X22579215Y-5871784D01*
X22635784Y-5871784D01*
X22635784Y-6125784D02*
X22635784Y-6069215D01*
X22579215Y-6069215D01*
X22579215Y-6125784D01*
X22635784Y-6125784D01*
X22635784Y-6379784D02*
X22635784Y-6323215D01*
X22579215Y-6323215D01*
X22579215Y-6379784D01*
X22635784Y-6379784D01*
X22635784Y-6633784D02*
X22635784Y-6577215D01*
X22579215Y-6577215D01*
X22579215Y-6633784D01*
X22635784Y-6633784D01*
X22635784Y-6887784D02*
X22635784Y-6831215D01*
X22579215Y-6831215D01*
X22579215Y-6887784D01*
X22635784Y-6887784D01*
X22635784Y-7141784D02*
X22635784Y-7085215D01*
X22579215Y-7085215D01*
X22579215Y-7141784D01*
X22635784Y-7141784D01*
X22635784Y-7395784D02*
X22635784Y-7339215D01*
X22579215Y-7339215D01*
X22579215Y-7395784D01*
X22635784Y-7395784D01*
X22862884Y-5260685D02*
X22862884Y-5204116D01*
X22806315Y-5204116D01*
X22806315Y-5260685D01*
X22862884Y-5260685D01*
X23270784Y-7965784D02*
X23270784Y-7909215D01*
X23214215Y-7909215D01*
X23214215Y-7965784D01*
X23270784Y-7965784D01*
X23270784Y-8219784D02*
X23270784Y-8163215D01*
X23214215Y-8163215D01*
X23214215Y-8219784D01*
X23270784Y-8219784D01*
X23270784Y-8473785D02*
X23270784Y-8417216D01*
X23214215Y-8417216D01*
X23214215Y-8473785D01*
X23270784Y-8473785D01*
X23270784Y-8727785D02*
X23270784Y-8671216D01*
X23214215Y-8671216D01*
X23214215Y-8727785D01*
X23270784Y-8727785D01*
X23270784Y-8981785D02*
X23270784Y-8925216D01*
X23214215Y-8925216D01*
X23214215Y-8981785D01*
X23270784Y-8981785D01*
X23270784Y-9235785D02*
X23270784Y-9179216D01*
X23214215Y-9179216D01*
X23214215Y-9235785D01*
X23270784Y-9235785D01*
X23270784Y-9489785D02*
X23270784Y-9433216D01*
X23214215Y-9433216D01*
X23214215Y-9489785D01*
X23270784Y-9489785D01*
X23270784Y-9743785D02*
X23270784Y-9687216D01*
X23214215Y-9687216D01*
X23214215Y-9743785D01*
X23270784Y-9743785D01*
X23270784Y-9997785D02*
X23270784Y-9941216D01*
X23214215Y-9941216D01*
X23214215Y-9997785D01*
X23270784Y-9997785D01*
X23362884Y-5260685D02*
X23362884Y-5204116D01*
X23306315Y-5204116D01*
X23306315Y-5260685D01*
X23362884Y-5260685D01*
X23842284Y-7966784D02*
X23842284Y-7910215D01*
X23785715Y-7910215D01*
X23785715Y-7966784D01*
X23842284Y-7966784D01*
X23842284Y-8220784D02*
X23842284Y-8164215D01*
X23785715Y-8164215D01*
X23785715Y-8220784D01*
X23842284Y-8220784D01*
X23842284Y-8474785D02*
X23842284Y-8418216D01*
X23785715Y-8418216D01*
X23785715Y-8474785D01*
X23842284Y-8474785D01*
X23842284Y-8728785D02*
X23842284Y-8672216D01*
X23785715Y-8672216D01*
X23785715Y-8728785D01*
X23842284Y-8728785D01*
X23842284Y-8982785D02*
X23842284Y-8926216D01*
X23785715Y-8926216D01*
X23785715Y-8982785D01*
X23842284Y-8982785D01*
X23842284Y-9236785D02*
X23842284Y-9180216D01*
X23785715Y-9180216D01*
X23785715Y-9236785D01*
X23842284Y-9236785D01*
X23842284Y-9490785D02*
X23842284Y-9434216D01*
X23785715Y-9434216D01*
X23785715Y-9490785D01*
X23842284Y-9490785D01*
X23842284Y-9744785D02*
X23842284Y-9688216D01*
X23785715Y-9688216D01*
X23785715Y-9744785D01*
X23842284Y-9744785D01*
X23842284Y-9998785D02*
X23842284Y-9942216D01*
X23785715Y-9942216D01*
X23785715Y-9998785D01*
X23842284Y-9998785D01*
X24158284Y-5671084D02*
X24158284Y-5614515D01*
X24101715Y-5614515D01*
X24101715Y-5671084D01*
X24158284Y-5671084D01*
X24158284Y-6171084D02*
X24158284Y-6114515D01*
X24101715Y-6114515D01*
X24101715Y-6171084D01*
X24158284Y-6171084D01*
X24158284Y-6868884D02*
X24158284Y-6812315D01*
X24101715Y-6812315D01*
X24101715Y-6868884D01*
X24158284Y-6868884D01*
X24158284Y-7368884D02*
X24158284Y-7312315D01*
X24101715Y-7312315D01*
X24101715Y-7368884D01*
X24158284Y-7368884D01*
X24604284Y-7966784D02*
X24604284Y-7910215D01*
X24547715Y-7910215D01*
X24547715Y-7966784D01*
X24604284Y-7966784D01*
X24604284Y-8220784D02*
X24604284Y-8164215D01*
X24547715Y-8164215D01*
X24547715Y-8220784D01*
X24604284Y-8220784D01*
X24604284Y-8474785D02*
X24604284Y-8418216D01*
X24547715Y-8418216D01*
X24547715Y-8474785D01*
X24604284Y-8474785D01*
X24604284Y-8728785D02*
X24604284Y-8672216D01*
X24547715Y-8672216D01*
X24547715Y-8728785D01*
X24604284Y-8728785D01*
X24604284Y-8982785D02*
X24604284Y-8926216D01*
X24547715Y-8926216D01*
X24547715Y-8982785D01*
X24604284Y-8982785D01*
X24604284Y-9236785D02*
X24604284Y-9180216D01*
X24547715Y-9180216D01*
X24547715Y-9236785D01*
X24604284Y-9236785D01*
X24604284Y-9490785D02*
X24604284Y-9434216D01*
X24547715Y-9434216D01*
X24547715Y-9490785D01*
X24604284Y-9490785D01*
X24604284Y-9744785D02*
X24604284Y-9688216D01*
X24547715Y-9688216D01*
X24547715Y-9744785D01*
X24604284Y-9744785D01*
X24604284Y-9998785D02*
X24604284Y-9942216D01*
X24547715Y-9942216D01*
X24547715Y-9998785D01*
X24604284Y-9998785D01*
D10*
X16315000Y-6750000D02*
X16365000Y-6700000D01*
X16315000Y-6650000D01*
X16265000Y-6700000D01*
X16315000Y-6750000D01*
X16315000Y-7004000D02*
X16365000Y-6954000D01*
X16315000Y-6904000D01*
X16265000Y-6954000D01*
X16315000Y-7004000D01*
X16315000Y-7258000D02*
X16365000Y-7208000D01*
X16315000Y-7158000D01*
X16265000Y-7208000D01*
X16315000Y-7258000D01*
X16315000Y-7512000D02*
X16365000Y-7462000D01*
X16315000Y-7412000D01*
X16265000Y-7462000D01*
X16315000Y-7512000D01*
X16315000Y-7766000D02*
X16365000Y-7716000D01*
X16315000Y-7666000D01*
X16265000Y-7716000D01*
X16315000Y-7766000D01*
X16315000Y-8020000D02*
X16365000Y-7970000D01*
X16315000Y-7920000D01*
X16265000Y-7970000D01*
X16315000Y-8020000D01*
X16315000Y-8274000D02*
X16365000Y-8224000D01*
X16315000Y-8174000D01*
X16265000Y-8224000D01*
X16315000Y-8274000D01*
X16315000Y-8528000D02*
X16365000Y-8478000D01*
X16315000Y-8428000D01*
X16265000Y-8478000D01*
X16315000Y-8528000D01*
X16315000Y-8782000D02*
X16365000Y-8732000D01*
X16315000Y-8682000D01*
X16265000Y-8732000D01*
X16315000Y-8782000D01*
X16315000Y-9036000D02*
X16365000Y-8986000D01*
X16315000Y-8936000D01*
X16265000Y-8986000D01*
X16315000Y-9036000D01*
X25175000Y-6750000D02*
X25225000Y-6700000D01*
X25175000Y-6650000D01*
X25125000Y-6700000D01*
X25175000Y-6750000D01*
X25175000Y-7004000D02*
X25225000Y-6954000D01*
X25175000Y-6904000D01*
X25125000Y-6954000D01*
X25175000Y-7004000D01*
X25175000Y-7258000D02*
X25225000Y-7208000D01*
X25175000Y-7158000D01*
X25125000Y-7208000D01*
X25175000Y-7258000D01*
X25175000Y-7512000D02*
X25225000Y-7462000D01*
X25175000Y-7412000D01*
X25125000Y-7462000D01*
X25175000Y-7512000D01*
X25175000Y-7766000D02*
X25225000Y-7716000D01*
X25175000Y-7666000D01*
X25125000Y-7716000D01*
X25175000Y-7766000D01*
X25175000Y-8020000D02*
X25225000Y-7970000D01*
X25175000Y-7920000D01*
X25125000Y-7970000D01*
X25175000Y-8020000D01*
X25175000Y-8274000D02*
X25225000Y-8224000D01*
X25175000Y-8174000D01*
X25125000Y-8224000D01*
X25175000Y-8274000D01*
X25175000Y-8528000D02*
X25225000Y-8478000D01*
X25175000Y-8428000D01*
X25125000Y-8478000D01*
X25175000Y-8528000D01*
X25175000Y-8782000D02*
X25225000Y-8732000D01*
X25175000Y-8682000D01*
X25125000Y-8732000D01*
X25175000Y-8782000D01*
X25175000Y-9036000D02*
X25225000Y-8986000D01*
X25175000Y-8936000D01*
X25125000Y-8986000D01*
X25175000Y-9036000D01*
X25555000Y-6750000D02*
X25605000Y-6700000D01*
X25555000Y-6650000D01*
X25505000Y-6700000D01*
X25555000Y-6750000D01*
X25555000Y-7004000D02*
X25605000Y-6954000D01*
X25555000Y-6904000D01*
X25505000Y-6954000D01*
X25555000Y-7004000D01*
X25555000Y-7258000D02*
X25605000Y-7208000D01*
X25555000Y-7158000D01*
X25505000Y-7208000D01*
X25555000Y-7258000D01*
X25555000Y-7512000D02*
X25605000Y-7462000D01*
X25555000Y-7412000D01*
X25505000Y-7462000D01*
X25555000Y-7512000D01*
X25555000Y-7766000D02*
X25605000Y-7716000D01*
X25555000Y-7666000D01*
X25505000Y-7716000D01*
X25555000Y-7766000D01*
X25555000Y-8020000D02*
X25605000Y-7970000D01*
X25555000Y-7920000D01*
X25505000Y-7970000D01*
X25555000Y-8020000D01*
X25555000Y-8274000D02*
X25605000Y-8224000D01*
X25555000Y-8174000D01*
X25505000Y-8224000D01*
X25555000Y-8274000D01*
X25555000Y-8528000D02*
X25605000Y-8478000D01*
X25555000Y-8428000D01*
X25505000Y-8478000D01*
X25555000Y-8528000D01*
X25555000Y-8782000D02*
X25605000Y-8732000D01*
X25555000Y-8682000D01*
X25505000Y-8732000D01*
X25555000Y-8782000D01*
X25555000Y-9036000D02*
X25605000Y-8986000D01*
X25555000Y-8936000D01*
X25505000Y-8986000D01*
X25555000Y-9036000D01*
D11*
X15897619Y-13355476D02*
X15897619Y-13155476D01*
X15945238Y-13155476D01*
X15973809Y-13165000D01*
X15992857Y-13184048D01*
X16002381Y-13203095D01*
X16011905Y-13241190D01*
X16011905Y-13269762D01*
X16002381Y-13307857D01*
X15992857Y-13326905D01*
X15973809Y-13345952D01*
X15945238Y-13355476D01*
X15897619Y-13355476D01*
X16097619Y-13355476D02*
X16097619Y-13222143D01*
X16097619Y-13260238D02*
X16107143Y-13241190D01*
X16116667Y-13231667D01*
X16135714Y-13222143D01*
X16154762Y-13222143D01*
X16221428Y-13355476D02*
X16221428Y-13222143D01*
X16221428Y-13155476D02*
X16211905Y-13165000D01*
X16221428Y-13174524D01*
X16230952Y-13165000D01*
X16221428Y-13155476D01*
X16221428Y-13174524D01*
X16345238Y-13355476D02*
X16326190Y-13345952D01*
X16316667Y-13326905D01*
X16316667Y-13155476D01*
X16450000Y-13355476D02*
X16430952Y-13345952D01*
X16421428Y-13326905D01*
X16421428Y-13155476D01*
X16678571Y-13355476D02*
X16678571Y-13155476D01*
X16745238Y-13298333D01*
X16811905Y-13155476D01*
X16811905Y-13355476D01*
X16992857Y-13355476D02*
X16992857Y-13250714D01*
X16983333Y-13231667D01*
X16964286Y-13222143D01*
X16926190Y-13222143D01*
X16907143Y-13231667D01*
X16992857Y-13345952D02*
X16973810Y-13355476D01*
X16926190Y-13355476D01*
X16907143Y-13345952D01*
X16897619Y-13326905D01*
X16897619Y-13307857D01*
X16907143Y-13288809D01*
X16926190Y-13279286D01*
X16973810Y-13279286D01*
X16992857Y-13269762D01*
X17088095Y-13222143D02*
X17088095Y-13422143D01*
X17088095Y-13231667D02*
X17107143Y-13222143D01*
X17145238Y-13222143D01*
X17164286Y-13231667D01*
X17173810Y-13241190D01*
X17183333Y-13260238D01*
X17183333Y-13317381D01*
X17173810Y-13336428D01*
X17164286Y-13345952D01*
X17145238Y-13355476D01*
X17107143Y-13355476D01*
X17088095Y-13345952D01*
X17269048Y-13336428D02*
X17278571Y-13345952D01*
X17269048Y-13355476D01*
X17259524Y-13345952D01*
X17269048Y-13336428D01*
X17269048Y-13355476D01*
X17269048Y-13231667D02*
X17278571Y-13241190D01*
X17269048Y-13250714D01*
X17259524Y-13241190D01*
X17269048Y-13231667D01*
X17269048Y-13250714D01*
D12*
X15600000Y-13665000D02*
X15640000Y-13705000D01*
X15640000Y-13665000D02*
X15600000Y-13705000D01*
D11*
X15935714Y-13575476D02*
X15954762Y-13575476D01*
X15973809Y-13585000D01*
X15983333Y-13594524D01*
X15992857Y-13613571D01*
X16002381Y-13651667D01*
X16002381Y-13699286D01*
X15992857Y-13737381D01*
X15983333Y-13756428D01*
X15973809Y-13765952D01*
X15954762Y-13775476D01*
X15935714Y-13775476D01*
X15916667Y-13765952D01*
X15907143Y-13756428D01*
X15897619Y-13737381D01*
X15888095Y-13699286D01*
X15888095Y-13651667D01*
X15897619Y-13613571D01*
X15907143Y-13594524D01*
X15916667Y-13585000D01*
X15935714Y-13575476D01*
X16088095Y-13756428D02*
X16097619Y-13765952D01*
X16088095Y-13775476D01*
X16078571Y-13765952D01*
X16088095Y-13756428D01*
X16088095Y-13775476D01*
X16269048Y-13642143D02*
X16269048Y-13775476D01*
X16221428Y-13565952D02*
X16173809Y-13708809D01*
X16297619Y-13708809D01*
X16411905Y-13575476D02*
X16430952Y-13575476D01*
X16450000Y-13585000D01*
X16459524Y-13594524D01*
X16469048Y-13613571D01*
X16478571Y-13651667D01*
X16478571Y-13699286D01*
X16469048Y-13737381D01*
X16459524Y-13756428D01*
X16450000Y-13765952D01*
X16430952Y-13775476D01*
X16411905Y-13775476D01*
X16392857Y-13765952D01*
X16383333Y-13756428D01*
X16373809Y-13737381D01*
X16364286Y-13699286D01*
X16364286Y-13651667D01*
X16373809Y-13613571D01*
X16383333Y-13594524D01*
X16392857Y-13585000D01*
X16411905Y-13575476D01*
X16602381Y-13575476D02*
X16621428Y-13575476D01*
X16640476Y-13585000D01*
X16650000Y-13594524D01*
X16659524Y-13613571D01*
X16669048Y-13651667D01*
X16669048Y-13699286D01*
X16659524Y-13737381D01*
X16650000Y-13756428D01*
X16640476Y-13765952D01*
X16621428Y-13775476D01*
X16602381Y-13775476D01*
X16583333Y-13765952D01*
X16573809Y-13756428D01*
X16564286Y-13737381D01*
X16554762Y-13699286D01*
X16554762Y-13651667D01*
X16564286Y-13613571D01*
X16573809Y-13594524D01*
X16583333Y-13585000D01*
X16602381Y-13575476D01*
X16754762Y-13775476D02*
X16754762Y-13642143D01*
X16754762Y-13661190D02*
X16764286Y-13651667D01*
X16783333Y-13642143D01*
X16811905Y-13642143D01*
X16830952Y-13651667D01*
X16840476Y-13670714D01*
X16840476Y-13775476D01*
X16840476Y-13670714D02*
X16850000Y-13651667D01*
X16869048Y-13642143D01*
X16897619Y-13642143D01*
X16916667Y-13651667D01*
X16926190Y-13670714D01*
X16926190Y-13775476D01*
X17021429Y-13775476D02*
X17021429Y-13642143D01*
X17021429Y-13661190D02*
X17030952Y-13651667D01*
X17050000Y-13642143D01*
X17078571Y-13642143D01*
X17097619Y-13651667D01*
X17107143Y-13670714D01*
X17107143Y-13775476D01*
X17107143Y-13670714D02*
X17116667Y-13651667D01*
X17135714Y-13642143D01*
X17164286Y-13642143D01*
X17183333Y-13651667D01*
X17192857Y-13670714D01*
X17192857Y-13775476D01*
X17583333Y-13565952D02*
X17411905Y-13823095D01*
X17840476Y-13575476D02*
X17859524Y-13575476D01*
X17878571Y-13585000D01*
X17888095Y-13594524D01*
X17897619Y-13613571D01*
X17907143Y-13651667D01*
X17907143Y-13699286D01*
X17897619Y-13737381D01*
X17888095Y-13756428D01*
X17878571Y-13765952D01*
X17859524Y-13775476D01*
X17840476Y-13775476D01*
X17821429Y-13765952D01*
X17811905Y-13756428D01*
X17802381Y-13737381D01*
X17792857Y-13699286D01*
X17792857Y-13651667D01*
X17802381Y-13613571D01*
X17811905Y-13594524D01*
X17821429Y-13585000D01*
X17840476Y-13575476D01*
X17992857Y-13756428D02*
X18002381Y-13765952D01*
X17992857Y-13775476D01*
X17983333Y-13765952D01*
X17992857Y-13756428D01*
X17992857Y-13775476D01*
X18126190Y-13575476D02*
X18145238Y-13575476D01*
X18164286Y-13585000D01*
X18173810Y-13594524D01*
X18183333Y-13613571D01*
X18192857Y-13651667D01*
X18192857Y-13699286D01*
X18183333Y-13737381D01*
X18173810Y-13756428D01*
X18164286Y-13765952D01*
X18145238Y-13775476D01*
X18126190Y-13775476D01*
X18107143Y-13765952D01*
X18097619Y-13756428D01*
X18088095Y-13737381D01*
X18078571Y-13699286D01*
X18078571Y-13651667D01*
X18088095Y-13613571D01*
X18097619Y-13594524D01*
X18107143Y-13585000D01*
X18126190Y-13575476D01*
X18383333Y-13775476D02*
X18269048Y-13775476D01*
X18326190Y-13775476D02*
X18326190Y-13575476D01*
X18307143Y-13604048D01*
X18288095Y-13623095D01*
X18269048Y-13632619D01*
X18564286Y-13575476D02*
X18469048Y-13575476D01*
X18459524Y-13670714D01*
X18469048Y-13661190D01*
X18488095Y-13651667D01*
X18535714Y-13651667D01*
X18554762Y-13661190D01*
X18564286Y-13670714D01*
X18573810Y-13689762D01*
X18573810Y-13737381D01*
X18564286Y-13756428D01*
X18554762Y-13765952D01*
X18535714Y-13775476D01*
X18488095Y-13775476D01*
X18469048Y-13765952D01*
X18459524Y-13756428D01*
X18640476Y-13575476D02*
X18773810Y-13575476D01*
X18688095Y-13775476D01*
X18840476Y-13575476D02*
X18840476Y-13613571D01*
X18916667Y-13575476D02*
X18916667Y-13613571D01*
X19211905Y-13851667D02*
X19202381Y-13842143D01*
X19183333Y-13813571D01*
X19173810Y-13794524D01*
X19164286Y-13765952D01*
X19154762Y-13718333D01*
X19154762Y-13680238D01*
X19164286Y-13632619D01*
X19173810Y-13604048D01*
X19183333Y-13585000D01*
X19202381Y-13556428D01*
X19211905Y-13546905D01*
X19373810Y-13642143D02*
X19373810Y-13775476D01*
X19326190Y-13565952D02*
X19278571Y-13708809D01*
X19402381Y-13708809D01*
X19459524Y-13575476D02*
X19592857Y-13575476D01*
X19507143Y-13775476D01*
X19821429Y-13775476D02*
X19821429Y-13575476D01*
X19907143Y-13775476D02*
X19907143Y-13670714D01*
X19897619Y-13651667D01*
X19878571Y-13642143D01*
X19850000Y-13642143D01*
X19830952Y-13651667D01*
X19821429Y-13661190D01*
X20030952Y-13775476D02*
X20011905Y-13765952D01*
X20002381Y-13756428D01*
X19992857Y-13737381D01*
X19992857Y-13680238D01*
X20002381Y-13661190D01*
X20011905Y-13651667D01*
X20030952Y-13642143D01*
X20059524Y-13642143D01*
X20078571Y-13651667D01*
X20088095Y-13661190D01*
X20097619Y-13680238D01*
X20097619Y-13737381D01*
X20088095Y-13756428D01*
X20078571Y-13765952D01*
X20059524Y-13775476D01*
X20030952Y-13775476D01*
X20211905Y-13775476D02*
X20192857Y-13765952D01*
X20183333Y-13746905D01*
X20183333Y-13575476D01*
X20364286Y-13765952D02*
X20345238Y-13775476D01*
X20307143Y-13775476D01*
X20288095Y-13765952D01*
X20278571Y-13746905D01*
X20278571Y-13670714D01*
X20288095Y-13651667D01*
X20307143Y-13642143D01*
X20345238Y-13642143D01*
X20364286Y-13651667D01*
X20373810Y-13670714D01*
X20373810Y-13689762D01*
X20278571Y-13708809D01*
X20450000Y-13765952D02*
X20469048Y-13775476D01*
X20507143Y-13775476D01*
X20526190Y-13765952D01*
X20535714Y-13746905D01*
X20535714Y-13737381D01*
X20526190Y-13718333D01*
X20507143Y-13708809D01*
X20478571Y-13708809D01*
X20459524Y-13699286D01*
X20450000Y-13680238D01*
X20450000Y-13670714D01*
X20459524Y-13651667D01*
X20478571Y-13642143D01*
X20507143Y-13642143D01*
X20526190Y-13651667D01*
X20602381Y-13851667D02*
X20611905Y-13842143D01*
X20630952Y-13813571D01*
X20640476Y-13794524D01*
X20650000Y-13765952D01*
X20659524Y-13718333D01*
X20659524Y-13680238D01*
X20650000Y-13632619D01*
X20640476Y-13604048D01*
X20630952Y-13585000D01*
X20611905Y-13556428D01*
X20602381Y-13546905D01*
D13*
X15640000Y-13949000D02*
G75*
G03*
X15640000Y-13949000I-30000J0D01*
G01*
D11*
X15935714Y-13839476D02*
X15954762Y-13839476D01*
X15973809Y-13849000D01*
X15983333Y-13858524D01*
X15992857Y-13877571D01*
X16002381Y-13915667D01*
X16002381Y-13963286D01*
X15992857Y-14001381D01*
X15983333Y-14020428D01*
X15973809Y-14029952D01*
X15954762Y-14039476D01*
X15935714Y-14039476D01*
X15916667Y-14029952D01*
X15907143Y-14020428D01*
X15897619Y-14001381D01*
X15888095Y-13963286D01*
X15888095Y-13915667D01*
X15897619Y-13877571D01*
X15907143Y-13858524D01*
X15916667Y-13849000D01*
X15935714Y-13839476D01*
X16088095Y-14020428D02*
X16097619Y-14029952D01*
X16088095Y-14039476D01*
X16078571Y-14029952D01*
X16088095Y-14020428D01*
X16088095Y-14039476D01*
X16269048Y-13839476D02*
X16230952Y-13839476D01*
X16211905Y-13849000D01*
X16202381Y-13858524D01*
X16183333Y-13887095D01*
X16173809Y-13925190D01*
X16173809Y-14001381D01*
X16183333Y-14020428D01*
X16192857Y-14029952D01*
X16211905Y-14039476D01*
X16250000Y-14039476D01*
X16269048Y-14029952D01*
X16278571Y-14020428D01*
X16288095Y-14001381D01*
X16288095Y-13953762D01*
X16278571Y-13934714D01*
X16269048Y-13925190D01*
X16250000Y-13915667D01*
X16211905Y-13915667D01*
X16192857Y-13925190D01*
X16183333Y-13934714D01*
X16173809Y-13953762D01*
X16411905Y-13839476D02*
X16430952Y-13839476D01*
X16450000Y-13849000D01*
X16459524Y-13858524D01*
X16469048Y-13877571D01*
X16478571Y-13915667D01*
X16478571Y-13963286D01*
X16469048Y-14001381D01*
X16459524Y-14020428D01*
X16450000Y-14029952D01*
X16430952Y-14039476D01*
X16411905Y-14039476D01*
X16392857Y-14029952D01*
X16383333Y-14020428D01*
X16373809Y-14001381D01*
X16364286Y-13963286D01*
X16364286Y-13915667D01*
X16373809Y-13877571D01*
X16383333Y-13858524D01*
X16392857Y-13849000D01*
X16411905Y-13839476D01*
X16602381Y-13839476D02*
X16621428Y-13839476D01*
X16640476Y-13849000D01*
X16650000Y-13858524D01*
X16659524Y-13877571D01*
X16669048Y-13915667D01*
X16669048Y-13963286D01*
X16659524Y-14001381D01*
X16650000Y-14020428D01*
X16640476Y-14029952D01*
X16621428Y-14039476D01*
X16602381Y-14039476D01*
X16583333Y-14029952D01*
X16573809Y-14020428D01*
X16564286Y-14001381D01*
X16554762Y-13963286D01*
X16554762Y-13915667D01*
X16564286Y-13877571D01*
X16573809Y-13858524D01*
X16583333Y-13849000D01*
X16602381Y-13839476D01*
X16754762Y-14039476D02*
X16754762Y-13906143D01*
X16754762Y-13925190D02*
X16764286Y-13915667D01*
X16783333Y-13906143D01*
X16811905Y-13906143D01*
X16830952Y-13915667D01*
X16840476Y-13934714D01*
X16840476Y-14039476D01*
X16840476Y-13934714D02*
X16850000Y-13915667D01*
X16869048Y-13906143D01*
X16897619Y-13906143D01*
X16916667Y-13915667D01*
X16926190Y-13934714D01*
X16926190Y-14039476D01*
X17021429Y-14039476D02*
X17021429Y-13906143D01*
X17021429Y-13925190D02*
X17030952Y-13915667D01*
X17050000Y-13906143D01*
X17078571Y-13906143D01*
X17097619Y-13915667D01*
X17107143Y-13934714D01*
X17107143Y-14039476D01*
X17107143Y-13934714D02*
X17116667Y-13915667D01*
X17135714Y-13906143D01*
X17164286Y-13906143D01*
X17183333Y-13915667D01*
X17192857Y-13934714D01*
X17192857Y-14039476D01*
X17583333Y-13829952D02*
X17411905Y-14087095D01*
X17840476Y-13839476D02*
X17859524Y-13839476D01*
X17878571Y-13849000D01*
X17888095Y-13858524D01*
X17897619Y-13877571D01*
X17907143Y-13915667D01*
X17907143Y-13963286D01*
X17897619Y-14001381D01*
X17888095Y-14020428D01*
X17878571Y-14029952D01*
X17859524Y-14039476D01*
X17840476Y-14039476D01*
X17821429Y-14029952D01*
X17811905Y-14020428D01*
X17802381Y-14001381D01*
X17792857Y-13963286D01*
X17792857Y-13915667D01*
X17802381Y-13877571D01*
X17811905Y-13858524D01*
X17821429Y-13849000D01*
X17840476Y-13839476D01*
X17992857Y-14020428D02*
X18002381Y-14029952D01*
X17992857Y-14039476D01*
X17983333Y-14029952D01*
X17992857Y-14020428D01*
X17992857Y-14039476D01*
X18126190Y-13839476D02*
X18145238Y-13839476D01*
X18164286Y-13849000D01*
X18173810Y-13858524D01*
X18183333Y-13877571D01*
X18192857Y-13915667D01*
X18192857Y-13963286D01*
X18183333Y-14001381D01*
X18173810Y-14020428D01*
X18164286Y-14029952D01*
X18145238Y-14039476D01*
X18126190Y-14039476D01*
X18107143Y-14029952D01*
X18097619Y-14020428D01*
X18088095Y-14001381D01*
X18078571Y-13963286D01*
X18078571Y-13915667D01*
X18088095Y-13877571D01*
X18097619Y-13858524D01*
X18107143Y-13849000D01*
X18126190Y-13839476D01*
X18269048Y-13858524D02*
X18278571Y-13849000D01*
X18297619Y-13839476D01*
X18345238Y-13839476D01*
X18364286Y-13849000D01*
X18373810Y-13858524D01*
X18383333Y-13877571D01*
X18383333Y-13896619D01*
X18373810Y-13925190D01*
X18259524Y-14039476D01*
X18383333Y-14039476D01*
X18450000Y-13839476D02*
X18573810Y-13839476D01*
X18507143Y-13915667D01*
X18535714Y-13915667D01*
X18554762Y-13925190D01*
X18564286Y-13934714D01*
X18573810Y-13953762D01*
X18573810Y-14001381D01*
X18564286Y-14020428D01*
X18554762Y-14029952D01*
X18535714Y-14039476D01*
X18478571Y-14039476D01*
X18459524Y-14029952D01*
X18450000Y-14020428D01*
X18745238Y-13839476D02*
X18707143Y-13839476D01*
X18688095Y-13849000D01*
X18678571Y-13858524D01*
X18659524Y-13887095D01*
X18650000Y-13925190D01*
X18650000Y-14001381D01*
X18659524Y-14020428D01*
X18669048Y-14029952D01*
X18688095Y-14039476D01*
X18726190Y-14039476D01*
X18745238Y-14029952D01*
X18754762Y-14020428D01*
X18764286Y-14001381D01*
X18764286Y-13953762D01*
X18754762Y-13934714D01*
X18745238Y-13925190D01*
X18726190Y-13915667D01*
X18688095Y-13915667D01*
X18669048Y-13925190D01*
X18659524Y-13934714D01*
X18650000Y-13953762D01*
X18840476Y-13839476D02*
X18840476Y-13877571D01*
X18916667Y-13839476D02*
X18916667Y-13877571D01*
X19211905Y-14115667D02*
X19202381Y-14106143D01*
X19183333Y-14077571D01*
X19173810Y-14058524D01*
X19164286Y-14029952D01*
X19154762Y-13982333D01*
X19154762Y-13944238D01*
X19164286Y-13896619D01*
X19173810Y-13868048D01*
X19183333Y-13849000D01*
X19202381Y-13820428D01*
X19211905Y-13810905D01*
X19278571Y-13858524D02*
X19288095Y-13849000D01*
X19307143Y-13839476D01*
X19354762Y-13839476D01*
X19373810Y-13849000D01*
X19383333Y-13858524D01*
X19392857Y-13877571D01*
X19392857Y-13896619D01*
X19383333Y-13925190D01*
X19269048Y-14039476D01*
X19392857Y-14039476D01*
X19630952Y-14039476D02*
X19630952Y-13839476D01*
X19716667Y-14039476D02*
X19716667Y-13934714D01*
X19707143Y-13915667D01*
X19688095Y-13906143D01*
X19659524Y-13906143D01*
X19640476Y-13915667D01*
X19630952Y-13925190D01*
X19840476Y-14039476D02*
X19821429Y-14029952D01*
X19811905Y-14020428D01*
X19802381Y-14001381D01*
X19802381Y-13944238D01*
X19811905Y-13925190D01*
X19821429Y-13915667D01*
X19840476Y-13906143D01*
X19869048Y-13906143D01*
X19888095Y-13915667D01*
X19897619Y-13925190D01*
X19907143Y-13944238D01*
X19907143Y-14001381D01*
X19897619Y-14020428D01*
X19888095Y-14029952D01*
X19869048Y-14039476D01*
X19840476Y-14039476D01*
X20021429Y-14039476D02*
X20002381Y-14029952D01*
X19992857Y-14010905D01*
X19992857Y-13839476D01*
X20173810Y-14029952D02*
X20154762Y-14039476D01*
X20116667Y-14039476D01*
X20097619Y-14029952D01*
X20088095Y-14010905D01*
X20088095Y-13934714D01*
X20097619Y-13915667D01*
X20116667Y-13906143D01*
X20154762Y-13906143D01*
X20173810Y-13915667D01*
X20183333Y-13934714D01*
X20183333Y-13953762D01*
X20088095Y-13972809D01*
X20259524Y-14029952D02*
X20278571Y-14039476D01*
X20316667Y-14039476D01*
X20335714Y-14029952D01*
X20345238Y-14010905D01*
X20345238Y-14001381D01*
X20335714Y-13982333D01*
X20316667Y-13972809D01*
X20288095Y-13972809D01*
X20269048Y-13963286D01*
X20259524Y-13944238D01*
X20259524Y-13934714D01*
X20269048Y-13915667D01*
X20288095Y-13906143D01*
X20316667Y-13906143D01*
X20335714Y-13915667D01*
X20411905Y-14115667D02*
X20421429Y-14106143D01*
X20440476Y-14077571D01*
X20450000Y-14058524D01*
X20459524Y-14029952D01*
X20469048Y-13982333D01*
X20469048Y-13944238D01*
X20459524Y-13896619D01*
X20450000Y-13868048D01*
X20440476Y-13849000D01*
X20421429Y-13820428D01*
X20411905Y-13810905D01*
D14*
X15600000Y-14173000D02*
X15600000Y-14253000D01*
X15560000Y-14213000D02*
X15640000Y-14213000D01*
D11*
X15935714Y-14103476D02*
X15954762Y-14103476D01*
X15973809Y-14113000D01*
X15983333Y-14122524D01*
X15992857Y-14141571D01*
X16002381Y-14179667D01*
X16002381Y-14227286D01*
X15992857Y-14265381D01*
X15983333Y-14284428D01*
X15973809Y-14293952D01*
X15954762Y-14303476D01*
X15935714Y-14303476D01*
X15916667Y-14293952D01*
X15907143Y-14284428D01*
X15897619Y-14265381D01*
X15888095Y-14227286D01*
X15888095Y-14179667D01*
X15897619Y-14141571D01*
X15907143Y-14122524D01*
X15916667Y-14113000D01*
X15935714Y-14103476D01*
X16088095Y-14284428D02*
X16097619Y-14293952D01*
X16088095Y-14303476D01*
X16078571Y-14293952D01*
X16088095Y-14284428D01*
X16088095Y-14303476D01*
X16211905Y-14189190D02*
X16192857Y-14179667D01*
X16183333Y-14170143D01*
X16173809Y-14151095D01*
X16173809Y-14141571D01*
X16183333Y-14122524D01*
X16192857Y-14113000D01*
X16211905Y-14103476D01*
X16250000Y-14103476D01*
X16269048Y-14113000D01*
X16278571Y-14122524D01*
X16288095Y-14141571D01*
X16288095Y-14151095D01*
X16278571Y-14170143D01*
X16269048Y-14179667D01*
X16250000Y-14189190D01*
X16211905Y-14189190D01*
X16192857Y-14198714D01*
X16183333Y-14208238D01*
X16173809Y-14227286D01*
X16173809Y-14265381D01*
X16183333Y-14284428D01*
X16192857Y-14293952D01*
X16211905Y-14303476D01*
X16250000Y-14303476D01*
X16269048Y-14293952D01*
X16278571Y-14284428D01*
X16288095Y-14265381D01*
X16288095Y-14227286D01*
X16278571Y-14208238D01*
X16269048Y-14198714D01*
X16250000Y-14189190D01*
X16411905Y-14103476D02*
X16430952Y-14103476D01*
X16450000Y-14113000D01*
X16459524Y-14122524D01*
X16469048Y-14141571D01*
X16478571Y-14179667D01*
X16478571Y-14227286D01*
X16469048Y-14265381D01*
X16459524Y-14284428D01*
X16450000Y-14293952D01*
X16430952Y-14303476D01*
X16411905Y-14303476D01*
X16392857Y-14293952D01*
X16383333Y-14284428D01*
X16373809Y-14265381D01*
X16364286Y-14227286D01*
X16364286Y-14179667D01*
X16373809Y-14141571D01*
X16383333Y-14122524D01*
X16392857Y-14113000D01*
X16411905Y-14103476D01*
X16602381Y-14103476D02*
X16621428Y-14103476D01*
X16640476Y-14113000D01*
X16650000Y-14122524D01*
X16659524Y-14141571D01*
X16669048Y-14179667D01*
X16669048Y-14227286D01*
X16659524Y-14265381D01*
X16650000Y-14284428D01*
X16640476Y-14293952D01*
X16621428Y-14303476D01*
X16602381Y-14303476D01*
X16583333Y-14293952D01*
X16573809Y-14284428D01*
X16564286Y-14265381D01*
X16554762Y-14227286D01*
X16554762Y-14179667D01*
X16564286Y-14141571D01*
X16573809Y-14122524D01*
X16583333Y-14113000D01*
X16602381Y-14103476D01*
X16754762Y-14303476D02*
X16754762Y-14170143D01*
X16754762Y-14189190D02*
X16764286Y-14179667D01*
X16783333Y-14170143D01*
X16811905Y-14170143D01*
X16830952Y-14179667D01*
X16840476Y-14198714D01*
X16840476Y-14303476D01*
X16840476Y-14198714D02*
X16850000Y-14179667D01*
X16869048Y-14170143D01*
X16897619Y-14170143D01*
X16916667Y-14179667D01*
X16926190Y-14198714D01*
X16926190Y-14303476D01*
X17021429Y-14303476D02*
X17021429Y-14170143D01*
X17021429Y-14189190D02*
X17030952Y-14179667D01*
X17050000Y-14170143D01*
X17078571Y-14170143D01*
X17097619Y-14179667D01*
X17107143Y-14198714D01*
X17107143Y-14303476D01*
X17107143Y-14198714D02*
X17116667Y-14179667D01*
X17135714Y-14170143D01*
X17164286Y-14170143D01*
X17183333Y-14179667D01*
X17192857Y-14198714D01*
X17192857Y-14303476D01*
X17583333Y-14093952D02*
X17411905Y-14351095D01*
X17840476Y-14103476D02*
X17859524Y-14103476D01*
X17878571Y-14113000D01*
X17888095Y-14122524D01*
X17897619Y-14141571D01*
X17907143Y-14179667D01*
X17907143Y-14227286D01*
X17897619Y-14265381D01*
X17888095Y-14284428D01*
X17878571Y-14293952D01*
X17859524Y-14303476D01*
X17840476Y-14303476D01*
X17821429Y-14293952D01*
X17811905Y-14284428D01*
X17802381Y-14265381D01*
X17792857Y-14227286D01*
X17792857Y-14179667D01*
X17802381Y-14141571D01*
X17811905Y-14122524D01*
X17821429Y-14113000D01*
X17840476Y-14103476D01*
X17992857Y-14284428D02*
X18002381Y-14293952D01*
X17992857Y-14303476D01*
X17983333Y-14293952D01*
X17992857Y-14284428D01*
X17992857Y-14303476D01*
X18126190Y-14103476D02*
X18145238Y-14103476D01*
X18164286Y-14113000D01*
X18173810Y-14122524D01*
X18183333Y-14141571D01*
X18192857Y-14179667D01*
X18192857Y-14227286D01*
X18183333Y-14265381D01*
X18173810Y-14284428D01*
X18164286Y-14293952D01*
X18145238Y-14303476D01*
X18126190Y-14303476D01*
X18107143Y-14293952D01*
X18097619Y-14284428D01*
X18088095Y-14265381D01*
X18078571Y-14227286D01*
X18078571Y-14179667D01*
X18088095Y-14141571D01*
X18097619Y-14122524D01*
X18107143Y-14113000D01*
X18126190Y-14103476D01*
X18259524Y-14103476D02*
X18383333Y-14103476D01*
X18316667Y-14179667D01*
X18345238Y-14179667D01*
X18364286Y-14189190D01*
X18373810Y-14198714D01*
X18383333Y-14217762D01*
X18383333Y-14265381D01*
X18373810Y-14284428D01*
X18364286Y-14293952D01*
X18345238Y-14303476D01*
X18288095Y-14303476D01*
X18269048Y-14293952D01*
X18259524Y-14284428D01*
X18573810Y-14303476D02*
X18459524Y-14303476D01*
X18516667Y-14303476D02*
X18516667Y-14103476D01*
X18497619Y-14132048D01*
X18478571Y-14151095D01*
X18459524Y-14160619D01*
X18754762Y-14103476D02*
X18659524Y-14103476D01*
X18650000Y-14198714D01*
X18659524Y-14189190D01*
X18678571Y-14179667D01*
X18726190Y-14179667D01*
X18745238Y-14189190D01*
X18754762Y-14198714D01*
X18764286Y-14217762D01*
X18764286Y-14265381D01*
X18754762Y-14284428D01*
X18745238Y-14293952D01*
X18726190Y-14303476D01*
X18678571Y-14303476D01*
X18659524Y-14293952D01*
X18650000Y-14284428D01*
X18840476Y-14103476D02*
X18840476Y-14141571D01*
X18916667Y-14103476D02*
X18916667Y-14141571D01*
X19211905Y-14379667D02*
X19202381Y-14370143D01*
X19183333Y-14341571D01*
X19173810Y-14322524D01*
X19164286Y-14293952D01*
X19154762Y-14246333D01*
X19154762Y-14208238D01*
X19164286Y-14160619D01*
X19173810Y-14132048D01*
X19183333Y-14113000D01*
X19202381Y-14084428D01*
X19211905Y-14074905D01*
X19278571Y-14122524D02*
X19288095Y-14113000D01*
X19307143Y-14103476D01*
X19354762Y-14103476D01*
X19373810Y-14113000D01*
X19383333Y-14122524D01*
X19392857Y-14141571D01*
X19392857Y-14160619D01*
X19383333Y-14189190D01*
X19269048Y-14303476D01*
X19392857Y-14303476D01*
X19459524Y-14103476D02*
X19583333Y-14103476D01*
X19516667Y-14179667D01*
X19545238Y-14179667D01*
X19564286Y-14189190D01*
X19573810Y-14198714D01*
X19583333Y-14217762D01*
X19583333Y-14265381D01*
X19573810Y-14284428D01*
X19564286Y-14293952D01*
X19545238Y-14303476D01*
X19488095Y-14303476D01*
X19469048Y-14293952D01*
X19459524Y-14284428D01*
X19821429Y-14303476D02*
X19821429Y-14103476D01*
X19907143Y-14303476D02*
X19907143Y-14198714D01*
X19897619Y-14179667D01*
X19878571Y-14170143D01*
X19850000Y-14170143D01*
X19830952Y-14179667D01*
X19821429Y-14189190D01*
X20030952Y-14303476D02*
X20011905Y-14293952D01*
X20002381Y-14284428D01*
X19992857Y-14265381D01*
X19992857Y-14208238D01*
X20002381Y-14189190D01*
X20011905Y-14179667D01*
X20030952Y-14170143D01*
X20059524Y-14170143D01*
X20078571Y-14179667D01*
X20088095Y-14189190D01*
X20097619Y-14208238D01*
X20097619Y-14265381D01*
X20088095Y-14284428D01*
X20078571Y-14293952D01*
X20059524Y-14303476D01*
X20030952Y-14303476D01*
X20211905Y-14303476D02*
X20192857Y-14293952D01*
X20183333Y-14274905D01*
X20183333Y-14103476D01*
X20364286Y-14293952D02*
X20345238Y-14303476D01*
X20307143Y-14303476D01*
X20288095Y-14293952D01*
X20278571Y-14274905D01*
X20278571Y-14198714D01*
X20288095Y-14179667D01*
X20307143Y-14170143D01*
X20345238Y-14170143D01*
X20364286Y-14179667D01*
X20373810Y-14198714D01*
X20373810Y-14217762D01*
X20278571Y-14236809D01*
X20450000Y-14293952D02*
X20469048Y-14303476D01*
X20507143Y-14303476D01*
X20526190Y-14293952D01*
X20535714Y-14274905D01*
X20535714Y-14265381D01*
X20526190Y-14246333D01*
X20507143Y-14236809D01*
X20478571Y-14236809D01*
X20459524Y-14227286D01*
X20450000Y-14208238D01*
X20450000Y-14198714D01*
X20459524Y-14179667D01*
X20478571Y-14170143D01*
X20507143Y-14170143D01*
X20526190Y-14179667D01*
X20602381Y-14379667D02*
X20611905Y-14370143D01*
X20630952Y-14341571D01*
X20640476Y-14322524D01*
X20650000Y-14293952D01*
X20659524Y-14246333D01*
X20659524Y-14208238D01*
X20650000Y-14160619D01*
X20640476Y-14132048D01*
X20630952Y-14113000D01*
X20611905Y-14084428D01*
X20602381Y-14074905D01*
D14*
X15628284Y-14505284D02*
X15628284Y-14448715D01*
X15571715Y-14448715D01*
X15571715Y-14505284D01*
X15628284Y-14505284D01*
D11*
X15935714Y-14367476D02*
X15954762Y-14367476D01*
X15973809Y-14377000D01*
X15983333Y-14386524D01*
X15992857Y-14405571D01*
X16002381Y-14443667D01*
X16002381Y-14491286D01*
X15992857Y-14529381D01*
X15983333Y-14548428D01*
X15973809Y-14557952D01*
X15954762Y-14567476D01*
X15935714Y-14567476D01*
X15916667Y-14557952D01*
X15907143Y-14548428D01*
X15897619Y-14529381D01*
X15888095Y-14491286D01*
X15888095Y-14443667D01*
X15897619Y-14405571D01*
X15907143Y-14386524D01*
X15916667Y-14377000D01*
X15935714Y-14367476D01*
X16088095Y-14548428D02*
X16097619Y-14557952D01*
X16088095Y-14567476D01*
X16078571Y-14557952D01*
X16088095Y-14548428D01*
X16088095Y-14567476D01*
X16211905Y-14453190D02*
X16192857Y-14443667D01*
X16183333Y-14434143D01*
X16173809Y-14415095D01*
X16173809Y-14405571D01*
X16183333Y-14386524D01*
X16192857Y-14377000D01*
X16211905Y-14367476D01*
X16250000Y-14367476D01*
X16269048Y-14377000D01*
X16278571Y-14386524D01*
X16288095Y-14405571D01*
X16288095Y-14415095D01*
X16278571Y-14434143D01*
X16269048Y-14443667D01*
X16250000Y-14453190D01*
X16211905Y-14453190D01*
X16192857Y-14462714D01*
X16183333Y-14472238D01*
X16173809Y-14491286D01*
X16173809Y-14529381D01*
X16183333Y-14548428D01*
X16192857Y-14557952D01*
X16211905Y-14567476D01*
X16250000Y-14567476D01*
X16269048Y-14557952D01*
X16278571Y-14548428D01*
X16288095Y-14529381D01*
X16288095Y-14491286D01*
X16278571Y-14472238D01*
X16269048Y-14462714D01*
X16250000Y-14453190D01*
X16411905Y-14367476D02*
X16430952Y-14367476D01*
X16450000Y-14377000D01*
X16459524Y-14386524D01*
X16469048Y-14405571D01*
X16478571Y-14443667D01*
X16478571Y-14491286D01*
X16469048Y-14529381D01*
X16459524Y-14548428D01*
X16450000Y-14557952D01*
X16430952Y-14567476D01*
X16411905Y-14567476D01*
X16392857Y-14557952D01*
X16383333Y-14548428D01*
X16373809Y-14529381D01*
X16364286Y-14491286D01*
X16364286Y-14443667D01*
X16373809Y-14405571D01*
X16383333Y-14386524D01*
X16392857Y-14377000D01*
X16411905Y-14367476D01*
X16602381Y-14367476D02*
X16621428Y-14367476D01*
X16640476Y-14377000D01*
X16650000Y-14386524D01*
X16659524Y-14405571D01*
X16669048Y-14443667D01*
X16669048Y-14491286D01*
X16659524Y-14529381D01*
X16650000Y-14548428D01*
X16640476Y-14557952D01*
X16621428Y-14567476D01*
X16602381Y-14567476D01*
X16583333Y-14557952D01*
X16573809Y-14548428D01*
X16564286Y-14529381D01*
X16554762Y-14491286D01*
X16554762Y-14443667D01*
X16564286Y-14405571D01*
X16573809Y-14386524D01*
X16583333Y-14377000D01*
X16602381Y-14367476D01*
X16754762Y-14567476D02*
X16754762Y-14434143D01*
X16754762Y-14453190D02*
X16764286Y-14443667D01*
X16783333Y-14434143D01*
X16811905Y-14434143D01*
X16830952Y-14443667D01*
X16840476Y-14462714D01*
X16840476Y-14567476D01*
X16840476Y-14462714D02*
X16850000Y-14443667D01*
X16869048Y-14434143D01*
X16897619Y-14434143D01*
X16916667Y-14443667D01*
X16926190Y-14462714D01*
X16926190Y-14567476D01*
X17021429Y-14567476D02*
X17021429Y-14434143D01*
X17021429Y-14453190D02*
X17030952Y-14443667D01*
X17050000Y-14434143D01*
X17078571Y-14434143D01*
X17097619Y-14443667D01*
X17107143Y-14462714D01*
X17107143Y-14567476D01*
X17107143Y-14462714D02*
X17116667Y-14443667D01*
X17135714Y-14434143D01*
X17164286Y-14434143D01*
X17183333Y-14443667D01*
X17192857Y-14462714D01*
X17192857Y-14567476D01*
X17583333Y-14357952D02*
X17411905Y-14615095D01*
X17840476Y-14367476D02*
X17859524Y-14367476D01*
X17878571Y-14377000D01*
X17888095Y-14386524D01*
X17897619Y-14405571D01*
X17907143Y-14443667D01*
X17907143Y-14491286D01*
X17897619Y-14529381D01*
X17888095Y-14548428D01*
X17878571Y-14557952D01*
X17859524Y-14567476D01*
X17840476Y-14567476D01*
X17821429Y-14557952D01*
X17811905Y-14548428D01*
X17802381Y-14529381D01*
X17792857Y-14491286D01*
X17792857Y-14443667D01*
X17802381Y-14405571D01*
X17811905Y-14386524D01*
X17821429Y-14377000D01*
X17840476Y-14367476D01*
X17992857Y-14548428D02*
X18002381Y-14557952D01*
X17992857Y-14567476D01*
X17983333Y-14557952D01*
X17992857Y-14548428D01*
X17992857Y-14567476D01*
X18126190Y-14367476D02*
X18145238Y-14367476D01*
X18164286Y-14377000D01*
X18173810Y-14386524D01*
X18183333Y-14405571D01*
X18192857Y-14443667D01*
X18192857Y-14491286D01*
X18183333Y-14529381D01*
X18173810Y-14548428D01*
X18164286Y-14557952D01*
X18145238Y-14567476D01*
X18126190Y-14567476D01*
X18107143Y-14557952D01*
X18097619Y-14548428D01*
X18088095Y-14529381D01*
X18078571Y-14491286D01*
X18078571Y-14443667D01*
X18088095Y-14405571D01*
X18097619Y-14386524D01*
X18107143Y-14377000D01*
X18126190Y-14367476D01*
X18259524Y-14367476D02*
X18383333Y-14367476D01*
X18316667Y-14443667D01*
X18345238Y-14443667D01*
X18364286Y-14453190D01*
X18373810Y-14462714D01*
X18383333Y-14481762D01*
X18383333Y-14529381D01*
X18373810Y-14548428D01*
X18364286Y-14557952D01*
X18345238Y-14567476D01*
X18288095Y-14567476D01*
X18269048Y-14557952D01*
X18259524Y-14548428D01*
X18573810Y-14567476D02*
X18459524Y-14567476D01*
X18516667Y-14567476D02*
X18516667Y-14367476D01*
X18497619Y-14396048D01*
X18478571Y-14415095D01*
X18459524Y-14424619D01*
X18754762Y-14367476D02*
X18659524Y-14367476D01*
X18650000Y-14462714D01*
X18659524Y-14453190D01*
X18678571Y-14443667D01*
X18726190Y-14443667D01*
X18745238Y-14453190D01*
X18754762Y-14462714D01*
X18764286Y-14481762D01*
X18764286Y-14529381D01*
X18754762Y-14548428D01*
X18745238Y-14557952D01*
X18726190Y-14567476D01*
X18678571Y-14567476D01*
X18659524Y-14557952D01*
X18650000Y-14548428D01*
X18840476Y-14367476D02*
X18840476Y-14405571D01*
X18916667Y-14367476D02*
X18916667Y-14405571D01*
X19211905Y-14643667D02*
X19202381Y-14634143D01*
X19183333Y-14605571D01*
X19173810Y-14586524D01*
X19164286Y-14557952D01*
X19154762Y-14510333D01*
X19154762Y-14472238D01*
X19164286Y-14424619D01*
X19173810Y-14396048D01*
X19183333Y-14377000D01*
X19202381Y-14348428D01*
X19211905Y-14338905D01*
X19392857Y-14567476D02*
X19278571Y-14567476D01*
X19335714Y-14567476D02*
X19335714Y-14367476D01*
X19316667Y-14396048D01*
X19297619Y-14415095D01*
X19278571Y-14424619D01*
X19459524Y-14367476D02*
X19592857Y-14367476D01*
X19507143Y-14567476D01*
X19754762Y-14367476D02*
X19716667Y-14367476D01*
X19697619Y-14377000D01*
X19688095Y-14386524D01*
X19669048Y-14415095D01*
X19659524Y-14453190D01*
X19659524Y-14529381D01*
X19669048Y-14548428D01*
X19678571Y-14557952D01*
X19697619Y-14567476D01*
X19735714Y-14567476D01*
X19754762Y-14557952D01*
X19764286Y-14548428D01*
X19773810Y-14529381D01*
X19773810Y-14481762D01*
X19764286Y-14462714D01*
X19754762Y-14453190D01*
X19735714Y-14443667D01*
X19697619Y-14443667D01*
X19678571Y-14453190D01*
X19669048Y-14462714D01*
X19659524Y-14481762D01*
X20011905Y-14567476D02*
X20011905Y-14367476D01*
X20097619Y-14567476D02*
X20097619Y-14462714D01*
X20088095Y-14443667D01*
X20069048Y-14434143D01*
X20040476Y-14434143D01*
X20021429Y-14443667D01*
X20011905Y-14453190D01*
X20221429Y-14567476D02*
X20202381Y-14557952D01*
X20192857Y-14548428D01*
X20183333Y-14529381D01*
X20183333Y-14472238D01*
X20192857Y-14453190D01*
X20202381Y-14443667D01*
X20221429Y-14434143D01*
X20250000Y-14434143D01*
X20269048Y-14443667D01*
X20278571Y-14453190D01*
X20288095Y-14472238D01*
X20288095Y-14529381D01*
X20278571Y-14548428D01*
X20269048Y-14557952D01*
X20250000Y-14567476D01*
X20221429Y-14567476D01*
X20402381Y-14567476D02*
X20383333Y-14557952D01*
X20373810Y-14538905D01*
X20373810Y-14367476D01*
X20554762Y-14557952D02*
X20535714Y-14567476D01*
X20497619Y-14567476D01*
X20478571Y-14557952D01*
X20469048Y-14538905D01*
X20469048Y-14462714D01*
X20478571Y-14443667D01*
X20497619Y-14434143D01*
X20535714Y-14434143D01*
X20554762Y-14443667D01*
X20564286Y-14462714D01*
X20564286Y-14481762D01*
X20469048Y-14500809D01*
X20640476Y-14557952D02*
X20659524Y-14567476D01*
X20697619Y-14567476D01*
X20716667Y-14557952D01*
X20726190Y-14538905D01*
X20726190Y-14529381D01*
X20716667Y-14510333D01*
X20697619Y-14500809D01*
X20669048Y-14500809D01*
X20650000Y-14491286D01*
X20640476Y-14472238D01*
X20640476Y-14462714D01*
X20650000Y-14443667D01*
X20669048Y-14434143D01*
X20697619Y-14434143D01*
X20716667Y-14443667D01*
X20792857Y-14643667D02*
X20802381Y-14634143D01*
X20821429Y-14605571D01*
X20830952Y-14586524D01*
X20840476Y-14557952D01*
X20850000Y-14510333D01*
X20850000Y-14472238D01*
X20840476Y-14424619D01*
X20830952Y-14396048D01*
X20821429Y-14377000D01*
X20802381Y-14348428D01*
X20792857Y-14338905D01*
D10*
X15590000Y-14791000D02*
X15640000Y-14741000D01*
X15590000Y-14691000D01*
X15540000Y-14741000D01*
X15590000Y-14791000D01*
D11*
X16002381Y-14831476D02*
X15888095Y-14831476D01*
X15945238Y-14831476D02*
X15945238Y-14631476D01*
X15926190Y-14660048D01*
X15907143Y-14679095D01*
X15888095Y-14688619D01*
X16088095Y-14812428D02*
X16097619Y-14821952D01*
X16088095Y-14831476D01*
X16078571Y-14821952D01*
X16088095Y-14812428D01*
X16088095Y-14831476D01*
X16221428Y-14631476D02*
X16240476Y-14631476D01*
X16259524Y-14641000D01*
X16269048Y-14650524D01*
X16278571Y-14669571D01*
X16288095Y-14707667D01*
X16288095Y-14755286D01*
X16278571Y-14793381D01*
X16269048Y-14812428D01*
X16259524Y-14821952D01*
X16240476Y-14831476D01*
X16221428Y-14831476D01*
X16202381Y-14821952D01*
X16192857Y-14812428D01*
X16183333Y-14793381D01*
X16173809Y-14755286D01*
X16173809Y-14707667D01*
X16183333Y-14669571D01*
X16192857Y-14650524D01*
X16202381Y-14641000D01*
X16221428Y-14631476D01*
X16411905Y-14631476D02*
X16430952Y-14631476D01*
X16450000Y-14641000D01*
X16459524Y-14650524D01*
X16469048Y-14669571D01*
X16478571Y-14707667D01*
X16478571Y-14755286D01*
X16469048Y-14793381D01*
X16459524Y-14812428D01*
X16450000Y-14821952D01*
X16430952Y-14831476D01*
X16411905Y-14831476D01*
X16392857Y-14821952D01*
X16383333Y-14812428D01*
X16373809Y-14793381D01*
X16364286Y-14755286D01*
X16364286Y-14707667D01*
X16373809Y-14669571D01*
X16383333Y-14650524D01*
X16392857Y-14641000D01*
X16411905Y-14631476D01*
X16602381Y-14631476D02*
X16621428Y-14631476D01*
X16640476Y-14641000D01*
X16650000Y-14650524D01*
X16659524Y-14669571D01*
X16669048Y-14707667D01*
X16669048Y-14755286D01*
X16659524Y-14793381D01*
X16650000Y-14812428D01*
X16640476Y-14821952D01*
X16621428Y-14831476D01*
X16602381Y-14831476D01*
X16583333Y-14821952D01*
X16573809Y-14812428D01*
X16564286Y-14793381D01*
X16554762Y-14755286D01*
X16554762Y-14707667D01*
X16564286Y-14669571D01*
X16573809Y-14650524D01*
X16583333Y-14641000D01*
X16602381Y-14631476D01*
X16754762Y-14831476D02*
X16754762Y-14698143D01*
X16754762Y-14717190D02*
X16764286Y-14707667D01*
X16783333Y-14698143D01*
X16811905Y-14698143D01*
X16830952Y-14707667D01*
X16840476Y-14726714D01*
X16840476Y-14831476D01*
X16840476Y-14726714D02*
X16850000Y-14707667D01*
X16869048Y-14698143D01*
X16897619Y-14698143D01*
X16916667Y-14707667D01*
X16926190Y-14726714D01*
X16926190Y-14831476D01*
X17021429Y-14831476D02*
X17021429Y-14698143D01*
X17021429Y-14717190D02*
X17030952Y-14707667D01*
X17050000Y-14698143D01*
X17078571Y-14698143D01*
X17097619Y-14707667D01*
X17107143Y-14726714D01*
X17107143Y-14831476D01*
X17107143Y-14726714D02*
X17116667Y-14707667D01*
X17135714Y-14698143D01*
X17164286Y-14698143D01*
X17183333Y-14707667D01*
X17192857Y-14726714D01*
X17192857Y-14831476D01*
X17583333Y-14621952D02*
X17411905Y-14879095D01*
X17840476Y-14631476D02*
X17859524Y-14631476D01*
X17878571Y-14641000D01*
X17888095Y-14650524D01*
X17897619Y-14669571D01*
X17907143Y-14707667D01*
X17907143Y-14755286D01*
X17897619Y-14793381D01*
X17888095Y-14812428D01*
X17878571Y-14821952D01*
X17859524Y-14831476D01*
X17840476Y-14831476D01*
X17821429Y-14821952D01*
X17811905Y-14812428D01*
X17802381Y-14793381D01*
X17792857Y-14755286D01*
X17792857Y-14707667D01*
X17802381Y-14669571D01*
X17811905Y-14650524D01*
X17821429Y-14641000D01*
X17840476Y-14631476D01*
X17992857Y-14812428D02*
X18002381Y-14821952D01*
X17992857Y-14831476D01*
X17983333Y-14821952D01*
X17992857Y-14812428D01*
X17992857Y-14831476D01*
X18126190Y-14631476D02*
X18145238Y-14631476D01*
X18164286Y-14641000D01*
X18173810Y-14650524D01*
X18183333Y-14669571D01*
X18192857Y-14707667D01*
X18192857Y-14755286D01*
X18183333Y-14793381D01*
X18173810Y-14812428D01*
X18164286Y-14821952D01*
X18145238Y-14831476D01*
X18126190Y-14831476D01*
X18107143Y-14821952D01*
X18097619Y-14812428D01*
X18088095Y-14793381D01*
X18078571Y-14755286D01*
X18078571Y-14707667D01*
X18088095Y-14669571D01*
X18097619Y-14650524D01*
X18107143Y-14641000D01*
X18126190Y-14631476D01*
X18259524Y-14631476D02*
X18383333Y-14631476D01*
X18316667Y-14707667D01*
X18345238Y-14707667D01*
X18364286Y-14717190D01*
X18373810Y-14726714D01*
X18383333Y-14745762D01*
X18383333Y-14793381D01*
X18373810Y-14812428D01*
X18364286Y-14821952D01*
X18345238Y-14831476D01*
X18288095Y-14831476D01*
X18269048Y-14821952D01*
X18259524Y-14812428D01*
X18478571Y-14831476D02*
X18516667Y-14831476D01*
X18535714Y-14821952D01*
X18545238Y-14812428D01*
X18564286Y-14783857D01*
X18573810Y-14745762D01*
X18573810Y-14669571D01*
X18564286Y-14650524D01*
X18554762Y-14641000D01*
X18535714Y-14631476D01*
X18497619Y-14631476D01*
X18478571Y-14641000D01*
X18469048Y-14650524D01*
X18459524Y-14669571D01*
X18459524Y-14717190D01*
X18469048Y-14736238D01*
X18478571Y-14745762D01*
X18497619Y-14755286D01*
X18535714Y-14755286D01*
X18554762Y-14745762D01*
X18564286Y-14736238D01*
X18573810Y-14717190D01*
X18745238Y-14698143D02*
X18745238Y-14831476D01*
X18697619Y-14621952D02*
X18650000Y-14764809D01*
X18773810Y-14764809D01*
X18840476Y-14631476D02*
X18840476Y-14669571D01*
X18916667Y-14631476D02*
X18916667Y-14669571D01*
X19211905Y-14907667D02*
X19202381Y-14898143D01*
X19183333Y-14869571D01*
X19173810Y-14850524D01*
X19164286Y-14821952D01*
X19154762Y-14774333D01*
X19154762Y-14736238D01*
X19164286Y-14688619D01*
X19173810Y-14660048D01*
X19183333Y-14641000D01*
X19202381Y-14612428D01*
X19211905Y-14602905D01*
X19269048Y-14631476D02*
X19392857Y-14631476D01*
X19326190Y-14707667D01*
X19354762Y-14707667D01*
X19373810Y-14717190D01*
X19383333Y-14726714D01*
X19392857Y-14745762D01*
X19392857Y-14793381D01*
X19383333Y-14812428D01*
X19373810Y-14821952D01*
X19354762Y-14831476D01*
X19297619Y-14831476D01*
X19278571Y-14821952D01*
X19269048Y-14812428D01*
X19516667Y-14631476D02*
X19535714Y-14631476D01*
X19554762Y-14641000D01*
X19564286Y-14650524D01*
X19573810Y-14669571D01*
X19583333Y-14707667D01*
X19583333Y-14755286D01*
X19573810Y-14793381D01*
X19564286Y-14812428D01*
X19554762Y-14821952D01*
X19535714Y-14831476D01*
X19516667Y-14831476D01*
X19497619Y-14821952D01*
X19488095Y-14812428D01*
X19478571Y-14793381D01*
X19469048Y-14755286D01*
X19469048Y-14707667D01*
X19478571Y-14669571D01*
X19488095Y-14650524D01*
X19497619Y-14641000D01*
X19516667Y-14631476D01*
X19821429Y-14831476D02*
X19821429Y-14631476D01*
X19907143Y-14831476D02*
X19907143Y-14726714D01*
X19897619Y-14707667D01*
X19878571Y-14698143D01*
X19850000Y-14698143D01*
X19830952Y-14707667D01*
X19821429Y-14717190D01*
X20030952Y-14831476D02*
X20011905Y-14821952D01*
X20002381Y-14812428D01*
X19992857Y-14793381D01*
X19992857Y-14736238D01*
X20002381Y-14717190D01*
X20011905Y-14707667D01*
X20030952Y-14698143D01*
X20059524Y-14698143D01*
X20078571Y-14707667D01*
X20088095Y-14717190D01*
X20097619Y-14736238D01*
X20097619Y-14793381D01*
X20088095Y-14812428D01*
X20078571Y-14821952D01*
X20059524Y-14831476D01*
X20030952Y-14831476D01*
X20211905Y-14831476D02*
X20192857Y-14821952D01*
X20183333Y-14802905D01*
X20183333Y-14631476D01*
X20364286Y-14821952D02*
X20345238Y-14831476D01*
X20307143Y-14831476D01*
X20288095Y-14821952D01*
X20278571Y-14802905D01*
X20278571Y-14726714D01*
X20288095Y-14707667D01*
X20307143Y-14698143D01*
X20345238Y-14698143D01*
X20364286Y-14707667D01*
X20373810Y-14726714D01*
X20373810Y-14745762D01*
X20278571Y-14764809D01*
X20450000Y-14821952D02*
X20469048Y-14831476D01*
X20507143Y-14831476D01*
X20526190Y-14821952D01*
X20535714Y-14802905D01*
X20535714Y-14793381D01*
X20526190Y-14774333D01*
X20507143Y-14764809D01*
X20478571Y-14764809D01*
X20459524Y-14755286D01*
X20450000Y-14736238D01*
X20450000Y-14726714D01*
X20459524Y-14707667D01*
X20478571Y-14698143D01*
X20507143Y-14698143D01*
X20526190Y-14707667D01*
X20602381Y-14907667D02*
X20611905Y-14898143D01*
X20630952Y-14869571D01*
X20640476Y-14850524D01*
X20650000Y-14821952D01*
X20659524Y-14774333D01*
X20659524Y-14736238D01*
X20650000Y-14688619D01*
X20640476Y-14660048D01*
X20630952Y-14641000D01*
X20611905Y-14612428D01*
X20602381Y-14602905D01*
M02*
