%TF.GenerationSoftware,KiCad,Pcbnew,(6.0.7-1)-1*%
%TF.CreationDate,2022-10-12T18:14:04+11:00*%
%TF.ProjectId,CAT emulator,43415420-656d-4756-9c61-746f722e6b69,rev?*%
%TF.SameCoordinates,Original*%
%TF.FileFunction,Drillmap*%
%TF.FilePolarity,Positive*%
%FSLAX45Y45*%
G04 Gerber Fmt 4.5, Leading zero omitted, Abs format (unit mm)*
G04 Created by KiCad (PCBNEW (6.0.7-1)-1) date 2022-10-12 18:14:04*
%MOMM*%
%LPD*%
G01*
G04 APERTURE LIST*
%ADD10C,0.100000*%
%ADD11C,0.200000*%
G04 APERTURE END LIST*
D10*
X26125000Y-4980000D02*
X26125000Y-3980000D01*
X25525000Y-10090000D02*
G75*
G03*
X25525000Y-10090000I-115000J0D01*
G01*
X16190000Y-11530000D02*
X16190000Y-13040000D01*
X17315000Y-5480000D02*
G75*
G03*
X17315000Y-5480000I-450000J0D01*
G01*
X25900000Y-5230000D02*
X26125000Y-5230000D01*
X15645000Y-5230000D02*
X15870000Y-5230000D01*
X25900000Y-4980000D02*
X25900000Y-5230000D01*
X15870000Y-4980000D02*
X15645000Y-4980000D01*
X15645000Y-3980000D02*
X15645000Y-4980000D01*
X25355000Y-5480000D02*
G75*
G03*
X25355000Y-5480000I-450000J0D01*
G01*
X26125000Y-4980000D02*
X25900000Y-4980000D01*
X15645000Y-11530000D02*
X16190000Y-11530000D01*
X26125000Y-3980000D02*
X15645000Y-3980000D01*
X16190000Y-13040000D02*
X25590000Y-13040000D01*
X26125000Y-11530000D02*
X26125000Y-5230000D01*
X15870000Y-5230000D02*
X15870000Y-4980000D01*
X15645000Y-5230000D02*
X15645000Y-11530000D01*
X16475000Y-10090000D02*
G75*
G03*
X16475000Y-10090000I-115000J0D01*
G01*
X25590000Y-11530000D02*
X26125000Y-11530000D01*
X25590000Y-13040000D02*
X25590000Y-11530000D01*
D11*
X15897619Y-13355476D02*
X15897619Y-13155476D01*
X15945238Y-13155476D01*
X15973809Y-13165000D01*
X15992857Y-13184048D01*
X16002381Y-13203095D01*
X16011905Y-13241190D01*
X16011905Y-13269762D01*
X16002381Y-13307857D01*
X15992857Y-13326905D01*
X15973809Y-13345952D01*
X15945238Y-13355476D01*
X15897619Y-13355476D01*
X16097619Y-13355476D02*
X16097619Y-13222143D01*
X16097619Y-13260238D02*
X16107143Y-13241190D01*
X16116667Y-13231667D01*
X16135714Y-13222143D01*
X16154762Y-13222143D01*
X16221428Y-13355476D02*
X16221428Y-13222143D01*
X16221428Y-13155476D02*
X16211905Y-13165000D01*
X16221428Y-13174524D01*
X16230952Y-13165000D01*
X16221428Y-13155476D01*
X16221428Y-13174524D01*
X16345238Y-13355476D02*
X16326190Y-13345952D01*
X16316667Y-13326905D01*
X16316667Y-13155476D01*
X16450000Y-13355476D02*
X16430952Y-13345952D01*
X16421428Y-13326905D01*
X16421428Y-13155476D01*
X16678571Y-13355476D02*
X16678571Y-13155476D01*
X16745238Y-13298333D01*
X16811905Y-13155476D01*
X16811905Y-13355476D01*
X16992857Y-13355476D02*
X16992857Y-13250714D01*
X16983333Y-13231667D01*
X16964286Y-13222143D01*
X16926190Y-13222143D01*
X16907143Y-13231667D01*
X16992857Y-13345952D02*
X16973810Y-13355476D01*
X16926190Y-13355476D01*
X16907143Y-13345952D01*
X16897619Y-13326905D01*
X16897619Y-13307857D01*
X16907143Y-13288809D01*
X16926190Y-13279286D01*
X16973810Y-13279286D01*
X16992857Y-13269762D01*
X17088095Y-13222143D02*
X17088095Y-13422143D01*
X17088095Y-13231667D02*
X17107143Y-13222143D01*
X17145238Y-13222143D01*
X17164286Y-13231667D01*
X17173810Y-13241190D01*
X17183333Y-13260238D01*
X17183333Y-13317381D01*
X17173810Y-13336428D01*
X17164286Y-13345952D01*
X17145238Y-13355476D01*
X17107143Y-13355476D01*
X17088095Y-13345952D01*
X17269048Y-13336428D02*
X17278571Y-13345952D01*
X17269048Y-13355476D01*
X17259524Y-13345952D01*
X17269048Y-13336428D01*
X17269048Y-13355476D01*
X17269048Y-13231667D02*
X17278571Y-13241190D01*
X17269048Y-13250714D01*
X17259524Y-13241190D01*
X17269048Y-13231667D01*
X17269048Y-13250714D01*
M02*
