%TF.GenerationSoftware,KiCad,Pcbnew,(6.0.7-1)-1*%
%TF.CreationDate,2022-10-12T18:13:29+11:00*%
%TF.ProjectId,CAT emulator,43415420-656d-4756-9c61-746f722e6b69,rev?*%
%TF.SameCoordinates,Original*%
%TF.FileFunction,Profile,NP*%
%FSLAX46Y46*%
G04 Gerber Fmt 4.6, Leading zero omitted, Abs format (unit mm)*
G04 Created by KiCad (PCBNEW (6.0.7-1)-1) date 2022-10-12 18:13:29*
%MOMM*%
%LPD*%
G01*
G04 APERTURE LIST*
%TA.AperFunction,Profile*%
%ADD10C,0.100000*%
%TD*%
G04 APERTURE END LIST*
D10*
X261250000Y-49800000D02*
X261250000Y-39800000D01*
X255250000Y-100900000D02*
G75*
G03*
X255250000Y-100900000I-1150000J0D01*
G01*
X161900000Y-115300000D02*
X161900000Y-130400000D01*
X173150000Y-54800000D02*
G75*
G03*
X173150000Y-54800000I-4500000J0D01*
G01*
X259000000Y-52300000D02*
X261250000Y-52300000D01*
X156450000Y-52300000D02*
X158700000Y-52300000D01*
X259000000Y-49800000D02*
X259000000Y-52300000D01*
X158700000Y-49800000D02*
X156450000Y-49800000D01*
X156450000Y-39800000D02*
X156450000Y-49800000D01*
X253550000Y-54800000D02*
G75*
G03*
X253550000Y-54800000I-4500000J0D01*
G01*
X261250000Y-49800000D02*
X259000000Y-49800000D01*
X156450000Y-115300000D02*
X161900000Y-115300000D01*
X261250000Y-39800000D02*
X156450000Y-39800000D01*
X161900000Y-130400000D02*
X255900000Y-130400000D01*
X261250000Y-115300000D02*
X261250000Y-52300000D01*
X158700000Y-52300000D02*
X158700000Y-49800000D01*
X156450000Y-52300000D02*
X156450000Y-115300000D01*
X164750000Y-100900000D02*
G75*
G03*
X164750000Y-100900000I-1150000J0D01*
G01*
X255900000Y-115300000D02*
X261250000Y-115300000D01*
X255900000Y-130400000D02*
X255900000Y-115300000D01*
M02*
