M48
; DRILL file {KiCad (6.0.7-1)-1} date Wednesday, 12 October 2022 at 18:16:10
; FORMAT={-:-/ absolute / inch / decimal}
; #@! TF.CreationDate,2022-10-12T18:16:10+11:00
; #@! TF.GenerationSoftware,Kicad,Pcbnew,(6.0.7-1)-1
; #@! TF.FileFunction,Plated,1,2,PTH
FMAT,2
INCH
; #@! TA.AperFunction,Plated,PTH,ViaDrill
T1C0.0157
; #@! TA.AperFunction,Plated,PTH,ComponentDrill
T2C0.0236
; #@! TA.AperFunction,Plated,PTH,ComponentDrill
T3C0.0315
; #@! TA.AperFunction,Plated,PTH,ComponentDrill
T4C0.0394
%
G90
G05
T1
X6.81Y-3.92
X6.91Y-3.15
X6.91Y-3.33
X6.92Y-3.61
X6.99Y-3.37
X7.0Y-4.17
X7.02Y-3.84
X7.09Y-3.4
X7.1Y-3.0
X7.12Y-3.85
X7.15Y-3.04
X7.16Y-4.16
X7.18Y-3.47
X7.19Y-3.64
X7.26Y-3.12
X7.34Y-3.27
X7.38Y-3.65
X7.47Y-3.5
X7.62Y-3.45
X8.02Y-3.33
X8.26Y-4.35
X8.58Y-4.11
X8.93Y-2.8
X8.96Y-2.83
X9.1Y-3.82
X9.15Y-4.33
X9.3Y-4.1
X9.35Y-2.79
X9.39Y-3.86
X9.41Y-3.62
X9.45Y-2.95
X9.45Y-4.1
X9.45Y-4.33
X9.65Y-3.87
X9.91Y-3.46
T2
X7.64Y-4.7216
X7.64Y-4.7806
T3
X6.9394Y-3.7306
X6.9394Y-4.0306
X7.0394Y-3.7306
X7.0394Y-4.0306
X7.04Y-4.25
X7.04Y-4.55
X7.1394Y-3.7306
X7.1394Y-4.0306
X7.14Y-4.25
X7.14Y-4.55
X7.2394Y-3.7306
X7.2394Y-4.0306
X7.24Y-4.25
X7.24Y-4.55
X7.2425Y-4.14
X7.3394Y-3.7306
X7.3394Y-4.0306
X7.34Y-4.25
X7.34Y-4.55
X7.4394Y-3.7306
X7.4394Y-4.0306
X7.44Y-4.25
X7.44Y-4.55
X7.5394Y-3.7306
X7.5394Y-4.0306
X7.54Y-4.25
X7.54Y-4.55
X7.6394Y-3.7306
X7.6394Y-4.0306
X7.64Y-4.25
X7.64Y-4.55
X7.7543Y-4.14
X7.76Y-3.3
X7.97Y-2.87
X7.97Y-3.17
X7.9702Y-3.4106
X7.9702Y-3.7106
X7.9702Y-3.9606
X7.9702Y-4.2606
X8.07Y-2.87
X8.07Y-3.17
X8.0702Y-3.4106
X8.0702Y-3.7106
X8.0702Y-3.9606
X8.0702Y-4.2606
X8.1631Y-4.39
X8.17Y-2.87
X8.17Y-3.17
X8.1702Y-3.4106
X8.1702Y-3.7106
X8.1702Y-3.9606
X8.1702Y-4.2606
X8.27Y-2.87
X8.27Y-3.17
X8.2702Y-3.4106
X8.2702Y-3.7106
X8.2702Y-3.9606
X8.2702Y-4.2606
X8.2718Y-3.3
X8.36Y-4.39
X8.37Y-2.87
X8.37Y-3.17
X8.3702Y-3.4106
X8.3702Y-3.7106
X8.3702Y-3.9606
X8.3702Y-4.2606
X8.39Y-3.3
X8.47Y-2.87
X8.47Y-3.17
X8.4702Y-3.4106
X8.4702Y-3.7106
X8.4702Y-3.9606
X8.4702Y-4.2606
X8.57Y-2.87
X8.57Y-3.17
X8.5702Y-3.4106
X8.5702Y-3.7106
X8.5702Y-3.9606
X8.5702Y-4.2606
X8.64Y-4.52
X8.7316Y-3.07
X8.7416Y-3.95
X8.77Y-4.38
X8.8369Y-4.52
X8.9018Y-3.3
X8.9284Y-3.07
X8.9384Y-3.95
X9.0516Y-4.52
X9.1002Y-2.8706
X9.1002Y-3.1706
X9.1002Y-3.4106
X9.1002Y-3.7106
X9.1002Y-3.9606
X9.1002Y-4.2606
X9.2002Y-2.8706
X9.2002Y-3.1706
X9.2002Y-3.4106
X9.2002Y-3.7106
X9.2002Y-3.9606
X9.2002Y-4.2606
X9.2484Y-4.52
X9.2818Y-4.38
X9.3002Y-2.8706
X9.3002Y-3.1706
X9.3002Y-3.4106
X9.3002Y-3.7106
X9.3002Y-3.9606
X9.3002Y-4.2606
X9.4002Y-2.8706
X9.4002Y-3.1706
X9.4002Y-3.4106
X9.4002Y-3.7106
X9.4002Y-3.9606
X9.4002Y-4.2606
X9.5002Y-2.8706
X9.5002Y-3.1706
X9.5002Y-3.4106
X9.5002Y-3.7106
X9.5002Y-3.9606
X9.5002Y-4.2606
X9.6002Y-2.8706
X9.6002Y-3.1706
X9.6002Y-3.4106
X9.6002Y-3.7106
X9.6002Y-3.9606
X9.6002Y-4.2606
X9.7002Y-2.8706
X9.7002Y-3.1706
X9.7002Y-3.4106
X9.7002Y-3.7106
X9.7002Y-3.9606
X9.7002Y-4.2606
X9.89Y-3.7757
X9.89Y-4.2875
T4
X6.379Y-3.1622
X6.379Y-3.2622
X6.379Y-3.3622
X6.379Y-3.4622
X6.379Y-3.5622
X6.379Y-3.6622
X6.379Y-3.7622
X6.379Y-3.8622
X6.379Y-3.9622
X6.379Y-4.0622
X6.5286Y-3.1622
X6.5286Y-3.2622
X6.5286Y-3.3622
X6.5286Y-3.4622
X6.5286Y-3.5622
X6.5286Y-3.6622
X6.5286Y-3.7622
X6.5286Y-3.8622
X6.5286Y-3.9622
X6.5286Y-4.0622
X10.0168Y-3.1622
X10.0168Y-3.2622
X10.0168Y-3.3622
X10.0168Y-3.4622
X10.0168Y-3.5622
X10.0168Y-3.6622
X10.0168Y-3.7622
X10.0168Y-3.8622
X10.0168Y-3.9622
X10.0168Y-4.0622
T0
M30
