M48
; DRILL file {KiCad (6.0.7-1)-1} date Wednesday, 12 October 2022 at 18:13:16
; FORMAT={-:-/ absolute / inch / decimal}
; #@! TF.CreationDate,2022-10-12T18:13:16+11:00
; #@! TF.GenerationSoftware,Kicad,Pcbnew,(6.0.7-1)-1
; #@! TF.FileFunction,Plated,1,2,PTH
FMAT,2
INCH
; #@! TA.AperFunction,Plated,PTH,ViaDrill
T1C0.0157
; #@! TA.AperFunction,Plated,PTH,ComponentDrill
T2C0.0236
; #@! TA.AperFunction,Plated,PTH,ViaDrill
T3C0.0315
; #@! TA.AperFunction,Plated,PTH,ComponentDrill
T4C0.0315
; #@! TA.AperFunction,Plated,PTH,ComponentDrill
T5C0.0394
%
G90
G05
T1
X6.8Y-3.99
X6.82Y-4.625
X6.83Y-3.38
X6.87Y-4.12
X6.89Y-3.67
X6.91Y-3.58
X6.95Y-3.38
X6.96Y-4.16
X7.125Y-2.35
X7.175Y-3.52
X7.25Y-2.65
X7.32Y-4.21
X7.41Y-3.77
X7.425Y-2.575
X7.43Y-4.09
X7.47Y-3.68
X7.475Y-2.25
X7.52Y-4.14
X7.66Y-3.48
X7.66Y-4.03
X7.7Y-2.45
X7.7Y-3.57
X7.725Y-2.55
X7.82Y-4.44
X7.89Y-4.18
X7.92Y-4.35
X8.01Y-4.19
X8.04Y-4.45
X8.175Y-2.575
X8.225Y-2.8
X8.2528Y-2.725
X8.4Y-4.22
X8.51Y-4.22
X8.72Y-2.48
X8.76Y-2.35
X8.92Y-4.49
X9.02Y-3.95
X9.03Y-4.49
X9.06Y-4.02
X9.42Y-4.43
X9.475Y-3.5
X9.48Y-4.35
X9.5Y-3.625
X9.55Y-3.725
X9.575Y-4.35
X9.75Y-2.825
X9.825Y-4.475
T2
X6.28Y-4.29
X6.28Y-4.3491
T3
X6.26Y-1.67
X6.45Y-4.26
X6.45Y-4.36
X6.73Y-4.26
X6.82Y-4.34
X7.03Y-4.04
X7.06Y-1.67
X7.08Y-4.04
X7.56Y-4.05
X7.6Y-4.09
X7.85Y-1.67
X8.1Y-4.07
X8.11Y-4.13
X8.58Y-1.67
X8.59Y-4.11
X8.64Y-4.14
X9.42Y-1.67
X9.61Y-3.96
X9.9Y-4.2
X9.9Y-4.4
X10.175Y-4.15
X10.175Y-4.425
X10.19Y-1.66
T4
X6.75Y-3.125
X6.75Y-3.225
X6.75Y-3.325
X6.75Y-3.425
X6.75Y-3.525
X6.75Y-3.625
X6.75Y-3.725
X6.75Y-3.825
X7.0256Y-2.2006
X7.0256Y-2.3006
X7.0256Y-2.4006
X7.0256Y-2.5006
X7.0256Y-2.6006
X7.0256Y-2.7006
X7.0256Y-2.8006
X7.0256Y-2.9006
X7.05Y-3.125
X7.05Y-3.225
X7.05Y-3.325
X7.05Y-3.425
X7.05Y-3.525
X7.05Y-3.625
X7.05Y-3.725
X7.05Y-3.825
X7.15Y-2.06
X7.2756Y-3.1256
X7.2756Y-3.2256
X7.2756Y-3.3256
X7.2756Y-3.4256
X7.2756Y-3.5256
X7.2756Y-3.6256
X7.2756Y-3.7256
X7.2756Y-3.8256
X7.3256Y-2.2006
X7.3256Y-2.3006
X7.3256Y-2.4006
X7.3256Y-2.5006
X7.3256Y-2.6006
X7.3256Y-2.7006
X7.3256Y-2.8006
X7.3256Y-2.9006
X7.3469Y-2.06
X7.5506Y-2.2006
X7.5506Y-2.3006
X7.5506Y-2.4006
X7.5506Y-2.5006
X7.5506Y-2.6006
X7.5506Y-2.7006
X7.5506Y-2.8006
X7.5506Y-2.9006
X7.5756Y-3.1256
X7.5756Y-3.2256
X7.5756Y-3.3256
X7.5756Y-3.4256
X7.5756Y-3.5256
X7.5756Y-3.6256
X7.5756Y-3.7256
X7.5756Y-3.8256
X7.6331Y-2.06
X7.8Y-3.125
X7.8Y-3.225
X7.8Y-3.325
X7.8Y-3.425
X7.8Y-3.525
X7.8Y-3.625
X7.8Y-3.725
X7.8Y-3.825
X7.83Y-2.06
X7.8506Y-2.2006
X7.8506Y-2.3006
X7.8506Y-2.4006
X7.8506Y-2.5006
X7.8506Y-2.6006
X7.8506Y-2.7006
X7.8506Y-2.8006
X7.8506Y-2.9006
X8.0756Y-2.2006
X8.0756Y-2.3006
X8.0756Y-2.4006
X8.0756Y-2.5006
X8.0756Y-2.6006
X8.0756Y-2.7006
X8.0756Y-2.8006
X8.0756Y-2.9006
X8.1Y-3.125
X8.1Y-3.225
X8.1Y-3.325
X8.1Y-3.425
X8.1Y-3.525
X8.1Y-3.625
X8.1Y-3.725
X8.1Y-3.825
X8.3Y-3.125
X8.3Y-3.225
X8.3Y-3.325
X8.3Y-3.425
X8.3Y-3.525
X8.3Y-3.625
X8.3Y-3.725
X8.3Y-3.825
X8.3756Y-2.2006
X8.3756Y-2.3006
X8.3756Y-2.4006
X8.3756Y-2.5006
X8.3756Y-2.6006
X8.3756Y-2.7006
X8.3756Y-2.8006
X8.3756Y-2.9006
X8.5116Y-2.0594
X8.6Y-3.125
X8.6Y-3.225
X8.6Y-3.325
X8.6Y-3.425
X8.6Y-3.525
X8.6Y-3.625
X8.6Y-3.725
X8.6Y-3.825
X8.6006Y-2.2006
X8.6006Y-2.3006
X8.6006Y-2.4006
X8.6006Y-2.5006
X8.6006Y-2.6006
X8.6006Y-2.7006
X8.6006Y-2.8006
X8.6006Y-2.9006
X8.7084Y-2.0594
X8.8506Y-3.125
X8.8506Y-3.225
X8.8506Y-3.325
X8.8506Y-3.425
X8.8506Y-3.525
X8.8506Y-3.625
X8.8506Y-3.725
X8.8506Y-3.825
X8.8506Y-3.925
X8.9006Y-2.2006
X8.9006Y-2.3006
X8.9006Y-2.4006
X8.9006Y-2.5006
X8.9006Y-2.6006
X8.9006Y-2.7006
X8.9006Y-2.8006
X8.9006Y-2.9006
X8.99Y-2.06
X9.1506Y-3.125
X9.1506Y-3.225
X9.1506Y-3.325
X9.1506Y-3.425
X9.1506Y-3.525
X9.1506Y-3.625
X9.1506Y-3.725
X9.1506Y-3.825
X9.1506Y-3.925
X9.1869Y-2.06
X9.3756Y-3.1254
X9.3756Y-3.2254
X9.3756Y-3.3254
X9.3756Y-3.4254
X9.3756Y-3.5254
X9.3756Y-3.6254
X9.3756Y-3.7254
X9.3756Y-3.8254
X9.3756Y-3.9254
X9.5Y-2.2216
X9.5Y-2.4184
X9.5Y-2.6931
X9.5Y-2.89
X9.6756Y-3.1254
X9.6756Y-3.2254
X9.6756Y-3.3254
X9.6756Y-3.4254
X9.6756Y-3.5254
X9.6756Y-3.6254
X9.6756Y-3.7254
X9.6756Y-3.8254
X9.6756Y-3.9254
T5
X6.4232Y-2.6378
X6.4232Y-2.7378
X6.4232Y-2.8378
X6.4232Y-2.9378
X6.4232Y-3.0378
X6.4232Y-3.1378
X6.4232Y-3.2378
X6.4232Y-3.3378
X6.4232Y-3.4378
X6.4232Y-3.5378
X9.9114Y-2.6378
X9.9114Y-2.7378
X9.9114Y-2.8378
X9.9114Y-2.9378
X9.9114Y-3.0378
X9.9114Y-3.1378
X9.9114Y-3.2378
X9.9114Y-3.3378
X9.9114Y-3.4378
X9.9114Y-3.5378
X10.061Y-2.6378
X10.061Y-2.7378
X10.061Y-2.8378
X10.061Y-2.9378
X10.061Y-3.0378
X10.061Y-3.1378
X10.061Y-3.2378
X10.061Y-3.3378
X10.061Y-3.4378
X10.061Y-3.5378
T0
M30
