%TF.GenerationSoftware,KiCad,Pcbnew,(6.0.7-1)-1*%
%TF.CreationDate,2022-10-12T18:16:15+11:00*%
%TF.ProjectId,CAT emulator B,43415420-656d-4756-9c61-746f7220422e,rev?*%
%TF.SameCoordinates,Original*%
%TF.FileFunction,Drillmap*%
%TF.FilePolarity,Positive*%
%FSLAX45Y45*%
G04 Gerber Fmt 4.5, Leading zero omitted, Abs format (unit mm)*
G04 Created by KiCad (PCBNEW (6.0.7-1)-1) date 2022-10-12 18:16:15*
%MOMM*%
%LPD*%
G01*
G04 APERTURE LIST*
%ADD10C,0.100000*%
%ADD11C,0.200000*%
%ADD12C,0.040000*%
%ADD13C,0.060000*%
%ADD14C,0.080000*%
G04 APERTURE END LIST*
D10*
X20997600Y-13038000D02*
X20997600Y-12778000D01*
X16462600Y-6928000D02*
G75*
G03*
X16462600Y-6928000I-115000J0D01*
G01*
X20997600Y-12778000D02*
X20747600Y-12778000D01*
X25342600Y-11538000D02*
G75*
G03*
X25342600Y-11538000I-450000J0D01*
G01*
X16732600Y-12778000D02*
X16732600Y-13038000D01*
X25012600Y-12778000D02*
X24762600Y-12778000D01*
X16982600Y-13038000D02*
X16982600Y-12778000D01*
X16982600Y-13038000D02*
X20747600Y-13038000D01*
X20747600Y-12778000D02*
X20747600Y-13038000D01*
X17302600Y-11538000D02*
G75*
G03*
X17302600Y-11538000I-450000J0D01*
G01*
X25012600Y-13038000D02*
X25012600Y-12778000D01*
X16982600Y-12778000D02*
X16732600Y-12778000D01*
X20997600Y-13038000D02*
X24762600Y-13038000D01*
X25902600Y-6488000D02*
X15842600Y-6488000D01*
X15842600Y-6488000D02*
X15842600Y-13038000D01*
X25902600Y-13038000D02*
X25902600Y-6488000D01*
X25512600Y-6928000D02*
G75*
G03*
X25512600Y-6928000I-115000J0D01*
G01*
X24762600Y-12778000D02*
X24762600Y-13038000D01*
X25012600Y-13038000D02*
X25902600Y-13038000D01*
X15842600Y-13038000D02*
X16732600Y-13038000D01*
D11*
D12*
X17277400Y-9936800D02*
X17317400Y-9976800D01*
X17317400Y-9936800D02*
X17277400Y-9976800D01*
X17531400Y-7981000D02*
X17571400Y-8021000D01*
X17571400Y-7981000D02*
X17531400Y-8021000D01*
X17531400Y-8438200D02*
X17571400Y-8478200D01*
X17571400Y-8438200D02*
X17531400Y-8478200D01*
X17556800Y-9149400D02*
X17596800Y-9189400D01*
X17596800Y-9149400D02*
X17556800Y-9189400D01*
X17734600Y-8539800D02*
X17774600Y-8579800D01*
X17774600Y-8539800D02*
X17734600Y-8579800D01*
X17760000Y-10571800D02*
X17800000Y-10611800D01*
X17800000Y-10571800D02*
X17760000Y-10611800D01*
X17810800Y-9733600D02*
X17850800Y-9773600D01*
X17850800Y-9733600D02*
X17810800Y-9773600D01*
X17988600Y-8616000D02*
X18028600Y-8656000D01*
X18028600Y-8616000D02*
X17988600Y-8656000D01*
X18014000Y-7600000D02*
X18054000Y-7640000D01*
X18054000Y-7600000D02*
X18014000Y-7640000D01*
X18064800Y-9759000D02*
X18104800Y-9799000D01*
X18104800Y-9759000D02*
X18064800Y-9799000D01*
X18141000Y-7701600D02*
X18181000Y-7741600D01*
X18181000Y-7701600D02*
X18141000Y-7741600D01*
X18166400Y-10546400D02*
X18206400Y-10586400D01*
X18206400Y-10546400D02*
X18166400Y-10586400D01*
X18217200Y-8793800D02*
X18257200Y-8833800D01*
X18257200Y-8793800D02*
X18217200Y-8833800D01*
X18242600Y-9225600D02*
X18282600Y-9265600D01*
X18282600Y-9225600D02*
X18242600Y-9265600D01*
X18420400Y-7904800D02*
X18460400Y-7944800D01*
X18460400Y-7904800D02*
X18420400Y-7944800D01*
X18623600Y-8285800D02*
X18663600Y-8325800D01*
X18663600Y-8285800D02*
X18623600Y-8325800D01*
X18725200Y-9251000D02*
X18765200Y-9291000D01*
X18765200Y-9251000D02*
X18725200Y-9291000D01*
X18953800Y-8870000D02*
X18993800Y-8910000D01*
X18993800Y-8870000D02*
X18953800Y-8910000D01*
X19334800Y-8743000D02*
X19374800Y-8783000D01*
X19374800Y-8743000D02*
X19334800Y-8783000D01*
X20350800Y-8438200D02*
X20390800Y-8478200D01*
X20390800Y-8438200D02*
X20350800Y-8478200D01*
X20960400Y-11029000D02*
X21000400Y-11069000D01*
X21000400Y-11029000D02*
X20960400Y-11069000D01*
X21773200Y-10419400D02*
X21813200Y-10459400D01*
X21813200Y-10419400D02*
X21773200Y-10459400D01*
X22662200Y-7092000D02*
X22702200Y-7132000D01*
X22702200Y-7092000D02*
X22662200Y-7132000D01*
X22738400Y-7168200D02*
X22778400Y-7208200D01*
X22778400Y-7168200D02*
X22738400Y-7208200D01*
X23094000Y-9682800D02*
X23134000Y-9722800D01*
X23134000Y-9682800D02*
X23094000Y-9722800D01*
X23221000Y-10978200D02*
X23261000Y-11018200D01*
X23261000Y-10978200D02*
X23221000Y-11018200D01*
X23602000Y-10394000D02*
X23642000Y-10434000D01*
X23642000Y-10394000D02*
X23602000Y-10434000D01*
X23729000Y-7066600D02*
X23769000Y-7106600D01*
X23769000Y-7066600D02*
X23729000Y-7106600D01*
X23830600Y-9784400D02*
X23870600Y-9824400D01*
X23870600Y-9784400D02*
X23830600Y-9824400D01*
X23881400Y-9174800D02*
X23921400Y-9214800D01*
X23921400Y-9174800D02*
X23881400Y-9214800D01*
X23983000Y-7473000D02*
X24023000Y-7513000D01*
X24023000Y-7473000D02*
X23983000Y-7513000D01*
X23983000Y-10394000D02*
X24023000Y-10434000D01*
X24023000Y-10394000D02*
X23983000Y-10434000D01*
X23983000Y-10978200D02*
X24023000Y-11018200D01*
X24023000Y-10978200D02*
X23983000Y-11018200D01*
X24491000Y-9809800D02*
X24531000Y-9849800D01*
X24531000Y-9809800D02*
X24491000Y-9849800D01*
X25151400Y-8768400D02*
X25191400Y-8808400D01*
X25191400Y-8768400D02*
X25151400Y-8808400D01*
D13*
X19435600Y-11992740D02*
G75*
G03*
X19435600Y-11992740I-30000J0D01*
G01*
X19435600Y-12142740D02*
G75*
G03*
X19435600Y-12142740I-30000J0D01*
G01*
D14*
X17626100Y-9435700D02*
X17626100Y-9515700D01*
X17586100Y-9475700D02*
X17666100Y-9475700D01*
X17626100Y-10197700D02*
X17626100Y-10277700D01*
X17586100Y-10237700D02*
X17666100Y-10237700D01*
X17880100Y-9435700D02*
X17880100Y-9515700D01*
X17840100Y-9475700D02*
X17920100Y-9475700D01*
X17880100Y-10197700D02*
X17880100Y-10277700D01*
X17840100Y-10237700D02*
X17920100Y-10237700D01*
X17881600Y-10755000D02*
X17881600Y-10835000D01*
X17841600Y-10795000D02*
X17921600Y-10795000D01*
X17881600Y-11517000D02*
X17881600Y-11597000D01*
X17841600Y-11557000D02*
X17921600Y-11557000D01*
X18134100Y-9435700D02*
X18134100Y-9515700D01*
X18094100Y-9475700D02*
X18174100Y-9475700D01*
X18134100Y-10197700D02*
X18134100Y-10277700D01*
X18094100Y-10237700D02*
X18174100Y-10237700D01*
X18135600Y-10755000D02*
X18135600Y-10835000D01*
X18095600Y-10795000D02*
X18175600Y-10795000D01*
X18135600Y-11517000D02*
X18135600Y-11597000D01*
X18095600Y-11557000D02*
X18175600Y-11557000D01*
X18388100Y-9435700D02*
X18388100Y-9515700D01*
X18348100Y-9475700D02*
X18428100Y-9475700D01*
X18388100Y-10197700D02*
X18388100Y-10277700D01*
X18348100Y-10237700D02*
X18428100Y-10237700D01*
X18389600Y-10755000D02*
X18389600Y-10835000D01*
X18349600Y-10795000D02*
X18429600Y-10795000D01*
X18389600Y-11517000D02*
X18389600Y-11597000D01*
X18349600Y-11557000D02*
X18429600Y-11557000D01*
X18396000Y-10475600D02*
X18396000Y-10555600D01*
X18356000Y-10515600D02*
X18436000Y-10515600D01*
X18642100Y-9435700D02*
X18642100Y-9515700D01*
X18602100Y-9475700D02*
X18682100Y-9475700D01*
X18642100Y-10197700D02*
X18642100Y-10277700D01*
X18602100Y-10237700D02*
X18682100Y-10237700D01*
X18643600Y-10755000D02*
X18643600Y-10835000D01*
X18603600Y-10795000D02*
X18683600Y-10795000D01*
X18643600Y-11517000D02*
X18643600Y-11597000D01*
X18603600Y-11557000D02*
X18683600Y-11557000D01*
X18896100Y-9435700D02*
X18896100Y-9515700D01*
X18856100Y-9475700D02*
X18936100Y-9475700D01*
X18896100Y-10197700D02*
X18896100Y-10277700D01*
X18856100Y-10237700D02*
X18936100Y-10237700D01*
X18897600Y-10755000D02*
X18897600Y-10835000D01*
X18857600Y-10795000D02*
X18937600Y-10795000D01*
X18897600Y-11517000D02*
X18897600Y-11597000D01*
X18857600Y-11557000D02*
X18937600Y-11557000D01*
X19150100Y-9435700D02*
X19150100Y-9515700D01*
X19110100Y-9475700D02*
X19190100Y-9475700D01*
X19150100Y-10197700D02*
X19150100Y-10277700D01*
X19110100Y-10237700D02*
X19190100Y-10237700D01*
X19151600Y-10755000D02*
X19151600Y-10835000D01*
X19111600Y-10795000D02*
X19191600Y-10795000D01*
X19151600Y-11517000D02*
X19151600Y-11597000D01*
X19111600Y-11557000D02*
X19191600Y-11557000D01*
X19404100Y-9435700D02*
X19404100Y-9515700D01*
X19364100Y-9475700D02*
X19444100Y-9475700D01*
X19404100Y-10197700D02*
X19404100Y-10277700D01*
X19364100Y-10237700D02*
X19444100Y-10237700D01*
X19405600Y-10755000D02*
X19405600Y-10835000D01*
X19365600Y-10795000D02*
X19445600Y-10795000D01*
X19405600Y-11517000D02*
X19405600Y-11597000D01*
X19365600Y-11557000D02*
X19445600Y-11557000D01*
X19696000Y-10475600D02*
X19696000Y-10555600D01*
X19656000Y-10515600D02*
X19736000Y-10515600D01*
X19710400Y-8342000D02*
X19710400Y-8422000D01*
X19670400Y-8382000D02*
X19750400Y-8382000D01*
X20243800Y-7249800D02*
X20243800Y-7329800D01*
X20203800Y-7289800D02*
X20283800Y-7289800D01*
X20243800Y-8011800D02*
X20243800Y-8091800D01*
X20203800Y-8051800D02*
X20283800Y-8051800D01*
X20244300Y-8622900D02*
X20244300Y-8702900D01*
X20204300Y-8662900D02*
X20284300Y-8662900D01*
X20244300Y-9384900D02*
X20244300Y-9464900D01*
X20204300Y-9424900D02*
X20284300Y-9424900D01*
X20244300Y-10019900D02*
X20244300Y-10099900D01*
X20204300Y-10059900D02*
X20284300Y-10059900D01*
X20244300Y-10781900D02*
X20244300Y-10861900D01*
X20204300Y-10821900D02*
X20284300Y-10821900D01*
X20497800Y-7249800D02*
X20497800Y-7329800D01*
X20457800Y-7289800D02*
X20537800Y-7289800D01*
X20497800Y-8011800D02*
X20497800Y-8091800D01*
X20457800Y-8051800D02*
X20537800Y-8051800D01*
X20498300Y-8622900D02*
X20498300Y-8702900D01*
X20458300Y-8662900D02*
X20538300Y-8662900D01*
X20498300Y-9384900D02*
X20498300Y-9464900D01*
X20458300Y-9424900D02*
X20538300Y-9424900D01*
X20498300Y-10019900D02*
X20498300Y-10099900D01*
X20458300Y-10059900D02*
X20538300Y-10059900D01*
X20498300Y-10781900D02*
X20498300Y-10861900D01*
X20458300Y-10821900D02*
X20538300Y-10821900D01*
X20734400Y-11110600D02*
X20734400Y-11190600D01*
X20694400Y-11150600D02*
X20774400Y-11150600D01*
X20751800Y-7249800D02*
X20751800Y-7329800D01*
X20711800Y-7289800D02*
X20791800Y-7289800D01*
X20751800Y-8011800D02*
X20751800Y-8091800D01*
X20711800Y-8051800D02*
X20791800Y-8051800D01*
X20752300Y-8622900D02*
X20752300Y-8702900D01*
X20712300Y-8662900D02*
X20792300Y-8662900D01*
X20752300Y-9384900D02*
X20752300Y-9464900D01*
X20712300Y-9424900D02*
X20792300Y-9424900D01*
X20752300Y-10019900D02*
X20752300Y-10099900D01*
X20712300Y-10059900D02*
X20792300Y-10059900D01*
X20752300Y-10781900D02*
X20752300Y-10861900D01*
X20712300Y-10821900D02*
X20792300Y-10821900D01*
X21005800Y-7249800D02*
X21005800Y-7329800D01*
X20965800Y-7289800D02*
X21045800Y-7289800D01*
X21005800Y-8011800D02*
X21005800Y-8091800D01*
X20965800Y-8051800D02*
X21045800Y-8051800D01*
X21006300Y-8622900D02*
X21006300Y-8702900D01*
X20966300Y-8662900D02*
X21046300Y-8662900D01*
X21006300Y-9384900D02*
X21006300Y-9464900D01*
X20966300Y-9424900D02*
X21046300Y-9424900D01*
X21006300Y-10019900D02*
X21006300Y-10099900D01*
X20966300Y-10059900D02*
X21046300Y-10059900D01*
X21006300Y-10781900D02*
X21006300Y-10861900D01*
X20966300Y-10821900D02*
X21046300Y-10821900D01*
X21010400Y-8342000D02*
X21010400Y-8422000D01*
X20970400Y-8382000D02*
X21050400Y-8382000D01*
X21234400Y-11110600D02*
X21234400Y-11190600D01*
X21194400Y-11150600D02*
X21274400Y-11150600D01*
X21259800Y-7249800D02*
X21259800Y-7329800D01*
X21219800Y-7289800D02*
X21299800Y-7289800D01*
X21259800Y-8011800D02*
X21259800Y-8091800D01*
X21219800Y-8051800D02*
X21299800Y-8051800D01*
X21260300Y-8622900D02*
X21260300Y-8702900D01*
X21220300Y-8662900D02*
X21300300Y-8662900D01*
X21260300Y-9384900D02*
X21260300Y-9464900D01*
X21220300Y-9424900D02*
X21300300Y-9424900D01*
X21260300Y-10019900D02*
X21260300Y-10099900D01*
X21220300Y-10059900D02*
X21300300Y-10059900D01*
X21260300Y-10781900D02*
X21260300Y-10861900D01*
X21220300Y-10821900D02*
X21300300Y-10821900D01*
X21310600Y-8342000D02*
X21310600Y-8422000D01*
X21270600Y-8382000D02*
X21350600Y-8382000D01*
X21513800Y-7249800D02*
X21513800Y-7329800D01*
X21473800Y-7289800D02*
X21553800Y-7289800D01*
X21513800Y-8011800D02*
X21513800Y-8091800D01*
X21473800Y-8051800D02*
X21553800Y-8051800D01*
X21514300Y-8622900D02*
X21514300Y-8702900D01*
X21474300Y-8662900D02*
X21554300Y-8662900D01*
X21514300Y-9384900D02*
X21514300Y-9464900D01*
X21474300Y-9424900D02*
X21554300Y-9424900D01*
X21514300Y-10019900D02*
X21514300Y-10099900D01*
X21474300Y-10059900D02*
X21554300Y-10059900D01*
X21514300Y-10781900D02*
X21514300Y-10861900D01*
X21474300Y-10821900D02*
X21554300Y-10821900D01*
X21767800Y-7249800D02*
X21767800Y-7329800D01*
X21727800Y-7289800D02*
X21807800Y-7289800D01*
X21767800Y-8011800D02*
X21767800Y-8091800D01*
X21727800Y-8051800D02*
X21807800Y-8051800D01*
X21768300Y-8622900D02*
X21768300Y-8702900D01*
X21728300Y-8662900D02*
X21808300Y-8662900D01*
X21768300Y-9384900D02*
X21768300Y-9464900D01*
X21728300Y-9424900D02*
X21808300Y-9424900D01*
X21768300Y-10019900D02*
X21768300Y-10099900D01*
X21728300Y-10059900D02*
X21808300Y-10059900D01*
X21768300Y-10781900D02*
X21768300Y-10861900D01*
X21728300Y-10821900D02*
X21808300Y-10821900D01*
X21945600Y-11440800D02*
X21945600Y-11520800D01*
X21905600Y-11480800D02*
X21985600Y-11480800D01*
X22178200Y-7757800D02*
X22178200Y-7837800D01*
X22138200Y-7797800D02*
X22218200Y-7797800D01*
X22203600Y-9993000D02*
X22203600Y-10073000D01*
X22163600Y-10033000D02*
X22243600Y-10033000D01*
X22275800Y-11085200D02*
X22275800Y-11165200D01*
X22235800Y-11125200D02*
X22315800Y-11125200D01*
X22445600Y-11440800D02*
X22445600Y-11520800D01*
X22405600Y-11480800D02*
X22485600Y-11480800D01*
X22610600Y-8342000D02*
X22610600Y-8422000D01*
X22570600Y-8382000D02*
X22650600Y-8382000D01*
X22678200Y-7757800D02*
X22678200Y-7837800D01*
X22638200Y-7797800D02*
X22718200Y-7797800D01*
X22703600Y-9993000D02*
X22703600Y-10073000D01*
X22663600Y-10033000D02*
X22743600Y-10033000D01*
X22991000Y-11440800D02*
X22991000Y-11520800D01*
X22951000Y-11480800D02*
X23031000Y-11480800D01*
X23114500Y-7251300D02*
X23114500Y-7331300D01*
X23074500Y-7291300D02*
X23154500Y-7291300D01*
X23114500Y-8013300D02*
X23114500Y-8093300D01*
X23074500Y-8053300D02*
X23154500Y-8053300D01*
X23114500Y-8622900D02*
X23114500Y-8702900D01*
X23074500Y-8662900D02*
X23154500Y-8662900D01*
X23114500Y-9384900D02*
X23114500Y-9464900D01*
X23074500Y-9424900D02*
X23154500Y-9424900D01*
X23114500Y-10019900D02*
X23114500Y-10099900D01*
X23074500Y-10059900D02*
X23154500Y-10059900D01*
X23114500Y-10781900D02*
X23114500Y-10861900D01*
X23074500Y-10821900D02*
X23154500Y-10821900D01*
X23368500Y-7251300D02*
X23368500Y-7331300D01*
X23328500Y-7291300D02*
X23408500Y-7291300D01*
X23368500Y-8013300D02*
X23368500Y-8093300D01*
X23328500Y-8053300D02*
X23408500Y-8053300D01*
X23368500Y-8622900D02*
X23368500Y-8702900D01*
X23328500Y-8662900D02*
X23408500Y-8662900D01*
X23368500Y-9384900D02*
X23368500Y-9464900D01*
X23328500Y-9424900D02*
X23408500Y-9424900D01*
X23368500Y-10019900D02*
X23368500Y-10099900D01*
X23328500Y-10059900D02*
X23408500Y-10059900D01*
X23368500Y-10781900D02*
X23368500Y-10861900D01*
X23328500Y-10821900D02*
X23408500Y-10821900D01*
X23491000Y-11440800D02*
X23491000Y-11520800D01*
X23451000Y-11480800D02*
X23531000Y-11480800D01*
X23575800Y-11085200D02*
X23575800Y-11165200D01*
X23535800Y-11125200D02*
X23615800Y-11125200D01*
X23622500Y-7251300D02*
X23622500Y-7331300D01*
X23582500Y-7291300D02*
X23662500Y-7291300D01*
X23622500Y-8013300D02*
X23622500Y-8093300D01*
X23582500Y-8053300D02*
X23662500Y-8053300D01*
X23622500Y-8622900D02*
X23622500Y-8702900D01*
X23582500Y-8662900D02*
X23662500Y-8662900D01*
X23622500Y-9384900D02*
X23622500Y-9464900D01*
X23582500Y-9424900D02*
X23662500Y-9424900D01*
X23622500Y-10019900D02*
X23622500Y-10099900D01*
X23582500Y-10059900D02*
X23662500Y-10059900D01*
X23622500Y-10781900D02*
X23622500Y-10861900D01*
X23582500Y-10821900D02*
X23662500Y-10821900D01*
X23876500Y-7251300D02*
X23876500Y-7331300D01*
X23836500Y-7291300D02*
X23916500Y-7291300D01*
X23876500Y-8013300D02*
X23876500Y-8093300D01*
X23836500Y-8053300D02*
X23916500Y-8053300D01*
X23876500Y-8622900D02*
X23876500Y-8702900D01*
X23836500Y-8662900D02*
X23916500Y-8662900D01*
X23876500Y-9384900D02*
X23876500Y-9464900D01*
X23836500Y-9424900D02*
X23916500Y-9424900D01*
X23876500Y-10019900D02*
X23876500Y-10099900D01*
X23836500Y-10059900D02*
X23916500Y-10059900D01*
X23876500Y-10781900D02*
X23876500Y-10861900D01*
X23836500Y-10821900D02*
X23916500Y-10821900D01*
X24130500Y-7251300D02*
X24130500Y-7331300D01*
X24090500Y-7291300D02*
X24170500Y-7291300D01*
X24130500Y-8013300D02*
X24130500Y-8093300D01*
X24090500Y-8053300D02*
X24170500Y-8053300D01*
X24130500Y-8622900D02*
X24130500Y-8702900D01*
X24090500Y-8662900D02*
X24170500Y-8662900D01*
X24130500Y-9384900D02*
X24130500Y-9464900D01*
X24090500Y-9424900D02*
X24170500Y-9424900D01*
X24130500Y-10019900D02*
X24130500Y-10099900D01*
X24090500Y-10059900D02*
X24170500Y-10059900D01*
X24130500Y-10781900D02*
X24130500Y-10861900D01*
X24090500Y-10821900D02*
X24170500Y-10821900D01*
X24384500Y-7251300D02*
X24384500Y-7331300D01*
X24344500Y-7291300D02*
X24424500Y-7291300D01*
X24384500Y-8013300D02*
X24384500Y-8093300D01*
X24344500Y-8053300D02*
X24424500Y-8053300D01*
X24384500Y-8622900D02*
X24384500Y-8702900D01*
X24344500Y-8662900D02*
X24424500Y-8662900D01*
X24384500Y-9384900D02*
X24384500Y-9464900D01*
X24344500Y-9424900D02*
X24424500Y-9424900D01*
X24384500Y-10019900D02*
X24384500Y-10099900D01*
X24344500Y-10059900D02*
X24424500Y-10059900D01*
X24384500Y-10781900D02*
X24384500Y-10861900D01*
X24344500Y-10821900D02*
X24424500Y-10821900D01*
X24638500Y-7251300D02*
X24638500Y-7331300D01*
X24598500Y-7291300D02*
X24678500Y-7291300D01*
X24638500Y-8013300D02*
X24638500Y-8093300D01*
X24598500Y-8053300D02*
X24678500Y-8053300D01*
X24638500Y-8622900D02*
X24638500Y-8702900D01*
X24598500Y-8662900D02*
X24678500Y-8662900D01*
X24638500Y-9384900D02*
X24638500Y-9464900D01*
X24598500Y-9424900D02*
X24678500Y-9424900D01*
X24638500Y-10019900D02*
X24638500Y-10099900D01*
X24598500Y-10059900D02*
X24678500Y-10059900D01*
X24638500Y-10781900D02*
X24638500Y-10861900D01*
X24598500Y-10821900D02*
X24678500Y-10821900D01*
X25120600Y-9550200D02*
X25120600Y-9630200D01*
X25080600Y-9590200D02*
X25160600Y-9590200D01*
X25120600Y-10850200D02*
X25120600Y-10930200D01*
X25080600Y-10890200D02*
X25160600Y-10890200D01*
D10*
X16237956Y-8067356D02*
X16237956Y-7996644D01*
X16167244Y-7996644D01*
X16167244Y-8067356D01*
X16237956Y-8067356D01*
X16237956Y-8321356D02*
X16237956Y-8250644D01*
X16167244Y-8250644D01*
X16167244Y-8321356D01*
X16237956Y-8321356D01*
X16237956Y-8575356D02*
X16237956Y-8504644D01*
X16167244Y-8504644D01*
X16167244Y-8575356D01*
X16237956Y-8575356D01*
X16237956Y-8829356D02*
X16237956Y-8758644D01*
X16167244Y-8758644D01*
X16167244Y-8829356D01*
X16237956Y-8829356D01*
X16237956Y-9083356D02*
X16237956Y-9012644D01*
X16167244Y-9012644D01*
X16167244Y-9083356D01*
X16237956Y-9083356D01*
X16237956Y-9337356D02*
X16237956Y-9266644D01*
X16167244Y-9266644D01*
X16167244Y-9337356D01*
X16237956Y-9337356D01*
X16237956Y-9591356D02*
X16237956Y-9520644D01*
X16167244Y-9520644D01*
X16167244Y-9591356D01*
X16237956Y-9591356D01*
X16237956Y-9845356D02*
X16237956Y-9774644D01*
X16167244Y-9774644D01*
X16167244Y-9845356D01*
X16237956Y-9845356D01*
X16237956Y-10099356D02*
X16237956Y-10028644D01*
X16167244Y-10028644D01*
X16167244Y-10099356D01*
X16237956Y-10099356D01*
X16237956Y-10353356D02*
X16237956Y-10282644D01*
X16167244Y-10282644D01*
X16167244Y-10353356D01*
X16237956Y-10353356D01*
X16617956Y-8067356D02*
X16617956Y-7996644D01*
X16547244Y-7996644D01*
X16547244Y-8067356D01*
X16617956Y-8067356D01*
X16617956Y-8321356D02*
X16617956Y-8250644D01*
X16547244Y-8250644D01*
X16547244Y-8321356D01*
X16617956Y-8321356D01*
X16617956Y-8575356D02*
X16617956Y-8504644D01*
X16547244Y-8504644D01*
X16547244Y-8575356D01*
X16617956Y-8575356D01*
X16617956Y-8829356D02*
X16617956Y-8758644D01*
X16547244Y-8758644D01*
X16547244Y-8829356D01*
X16617956Y-8829356D01*
X16617956Y-9083356D02*
X16617956Y-9012644D01*
X16547244Y-9012644D01*
X16547244Y-9083356D01*
X16617956Y-9083356D01*
X16617956Y-9337356D02*
X16617956Y-9266644D01*
X16547244Y-9266644D01*
X16547244Y-9337356D01*
X16617956Y-9337356D01*
X16617956Y-9591356D02*
X16617956Y-9520644D01*
X16547244Y-9520644D01*
X16547244Y-9591356D01*
X16617956Y-9591356D01*
X16617956Y-9845356D02*
X16617956Y-9774644D01*
X16547244Y-9774644D01*
X16547244Y-9845356D01*
X16617956Y-9845356D01*
X16617956Y-10099356D02*
X16617956Y-10028644D01*
X16547244Y-10028644D01*
X16547244Y-10099356D01*
X16617956Y-10099356D01*
X16617956Y-10353356D02*
X16617956Y-10282644D01*
X16547244Y-10282644D01*
X16547244Y-10353356D01*
X16617956Y-10353356D01*
X25477956Y-8067356D02*
X25477956Y-7996644D01*
X25407244Y-7996644D01*
X25407244Y-8067356D01*
X25477956Y-8067356D01*
X25477956Y-8321356D02*
X25477956Y-8250644D01*
X25407244Y-8250644D01*
X25407244Y-8321356D01*
X25477956Y-8321356D01*
X25477956Y-8575356D02*
X25477956Y-8504644D01*
X25407244Y-8504644D01*
X25407244Y-8575356D01*
X25477956Y-8575356D01*
X25477956Y-8829356D02*
X25477956Y-8758644D01*
X25407244Y-8758644D01*
X25407244Y-8829356D01*
X25477956Y-8829356D01*
X25477956Y-9083356D02*
X25477956Y-9012644D01*
X25407244Y-9012644D01*
X25407244Y-9083356D01*
X25477956Y-9083356D01*
X25477956Y-9337356D02*
X25477956Y-9266644D01*
X25407244Y-9266644D01*
X25407244Y-9337356D01*
X25477956Y-9337356D01*
X25477956Y-9591356D02*
X25477956Y-9520644D01*
X25407244Y-9520644D01*
X25407244Y-9591356D01*
X25477956Y-9591356D01*
X25477956Y-9845356D02*
X25477956Y-9774644D01*
X25407244Y-9774644D01*
X25407244Y-9845356D01*
X25477956Y-9845356D01*
X25477956Y-10099356D02*
X25477956Y-10028644D01*
X25407244Y-10028644D01*
X25407244Y-10099356D01*
X25477956Y-10099356D01*
X25477956Y-10353356D02*
X25477956Y-10282644D01*
X25407244Y-10282644D01*
X25407244Y-10353356D01*
X25477956Y-10353356D01*
D11*
X16095219Y-13353476D02*
X16095219Y-13153476D01*
X16142838Y-13153476D01*
X16171409Y-13163000D01*
X16190457Y-13182048D01*
X16199981Y-13201095D01*
X16209505Y-13239190D01*
X16209505Y-13267762D01*
X16199981Y-13305857D01*
X16190457Y-13324905D01*
X16171409Y-13343952D01*
X16142838Y-13353476D01*
X16095219Y-13353476D01*
X16295219Y-13353476D02*
X16295219Y-13220143D01*
X16295219Y-13258238D02*
X16304743Y-13239190D01*
X16314267Y-13229667D01*
X16333314Y-13220143D01*
X16352362Y-13220143D01*
X16419028Y-13353476D02*
X16419028Y-13220143D01*
X16419028Y-13153476D02*
X16409505Y-13163000D01*
X16419028Y-13172524D01*
X16428552Y-13163000D01*
X16419028Y-13153476D01*
X16419028Y-13172524D01*
X16542838Y-13353476D02*
X16523790Y-13343952D01*
X16514267Y-13324905D01*
X16514267Y-13153476D01*
X16647600Y-13353476D02*
X16628552Y-13343952D01*
X16619028Y-13324905D01*
X16619028Y-13153476D01*
X16876171Y-13353476D02*
X16876171Y-13153476D01*
X16942838Y-13296333D01*
X17009505Y-13153476D01*
X17009505Y-13353476D01*
X17190457Y-13353476D02*
X17190457Y-13248714D01*
X17180933Y-13229667D01*
X17161886Y-13220143D01*
X17123790Y-13220143D01*
X17104743Y-13229667D01*
X17190457Y-13343952D02*
X17171410Y-13353476D01*
X17123790Y-13353476D01*
X17104743Y-13343952D01*
X17095219Y-13324905D01*
X17095219Y-13305857D01*
X17104743Y-13286809D01*
X17123790Y-13277286D01*
X17171410Y-13277286D01*
X17190457Y-13267762D01*
X17285695Y-13220143D02*
X17285695Y-13420143D01*
X17285695Y-13229667D02*
X17304743Y-13220143D01*
X17342838Y-13220143D01*
X17361886Y-13229667D01*
X17371410Y-13239190D01*
X17380933Y-13258238D01*
X17380933Y-13315381D01*
X17371410Y-13334428D01*
X17361886Y-13343952D01*
X17342838Y-13353476D01*
X17304743Y-13353476D01*
X17285695Y-13343952D01*
X17466648Y-13334428D02*
X17476171Y-13343952D01*
X17466648Y-13353476D01*
X17457124Y-13343952D01*
X17466648Y-13334428D01*
X17466648Y-13353476D01*
X17466648Y-13229667D02*
X17476171Y-13239190D01*
X17466648Y-13248714D01*
X17457124Y-13239190D01*
X17466648Y-13229667D01*
X17466648Y-13248714D01*
D12*
X15797600Y-13663000D02*
X15837600Y-13703000D01*
X15837600Y-13663000D02*
X15797600Y-13703000D01*
D11*
X16133314Y-13573476D02*
X16152362Y-13573476D01*
X16171409Y-13583000D01*
X16180933Y-13592524D01*
X16190457Y-13611571D01*
X16199981Y-13649667D01*
X16199981Y-13697286D01*
X16190457Y-13735381D01*
X16180933Y-13754428D01*
X16171409Y-13763952D01*
X16152362Y-13773476D01*
X16133314Y-13773476D01*
X16114267Y-13763952D01*
X16104743Y-13754428D01*
X16095219Y-13735381D01*
X16085695Y-13697286D01*
X16085695Y-13649667D01*
X16095219Y-13611571D01*
X16104743Y-13592524D01*
X16114267Y-13583000D01*
X16133314Y-13573476D01*
X16285695Y-13754428D02*
X16295219Y-13763952D01*
X16285695Y-13773476D01*
X16276171Y-13763952D01*
X16285695Y-13754428D01*
X16285695Y-13773476D01*
X16466648Y-13640143D02*
X16466648Y-13773476D01*
X16419028Y-13563952D02*
X16371409Y-13706809D01*
X16495219Y-13706809D01*
X16609505Y-13573476D02*
X16628552Y-13573476D01*
X16647600Y-13583000D01*
X16657124Y-13592524D01*
X16666648Y-13611571D01*
X16676171Y-13649667D01*
X16676171Y-13697286D01*
X16666648Y-13735381D01*
X16657124Y-13754428D01*
X16647600Y-13763952D01*
X16628552Y-13773476D01*
X16609505Y-13773476D01*
X16590457Y-13763952D01*
X16580933Y-13754428D01*
X16571409Y-13735381D01*
X16561886Y-13697286D01*
X16561886Y-13649667D01*
X16571409Y-13611571D01*
X16580933Y-13592524D01*
X16590457Y-13583000D01*
X16609505Y-13573476D01*
X16799981Y-13573476D02*
X16819029Y-13573476D01*
X16838076Y-13583000D01*
X16847600Y-13592524D01*
X16857124Y-13611571D01*
X16866648Y-13649667D01*
X16866648Y-13697286D01*
X16857124Y-13735381D01*
X16847600Y-13754428D01*
X16838076Y-13763952D01*
X16819029Y-13773476D01*
X16799981Y-13773476D01*
X16780933Y-13763952D01*
X16771409Y-13754428D01*
X16761886Y-13735381D01*
X16752362Y-13697286D01*
X16752362Y-13649667D01*
X16761886Y-13611571D01*
X16771409Y-13592524D01*
X16780933Y-13583000D01*
X16799981Y-13573476D01*
X16952362Y-13773476D02*
X16952362Y-13640143D01*
X16952362Y-13659190D02*
X16961886Y-13649667D01*
X16980933Y-13640143D01*
X17009505Y-13640143D01*
X17028552Y-13649667D01*
X17038076Y-13668714D01*
X17038076Y-13773476D01*
X17038076Y-13668714D02*
X17047600Y-13649667D01*
X17066648Y-13640143D01*
X17095219Y-13640143D01*
X17114267Y-13649667D01*
X17123790Y-13668714D01*
X17123790Y-13773476D01*
X17219029Y-13773476D02*
X17219029Y-13640143D01*
X17219029Y-13659190D02*
X17228552Y-13649667D01*
X17247600Y-13640143D01*
X17276171Y-13640143D01*
X17295219Y-13649667D01*
X17304743Y-13668714D01*
X17304743Y-13773476D01*
X17304743Y-13668714D02*
X17314267Y-13649667D01*
X17333314Y-13640143D01*
X17361886Y-13640143D01*
X17380933Y-13649667D01*
X17390457Y-13668714D01*
X17390457Y-13773476D01*
X17780933Y-13563952D02*
X17609505Y-13821095D01*
X18038076Y-13573476D02*
X18057124Y-13573476D01*
X18076171Y-13583000D01*
X18085695Y-13592524D01*
X18095219Y-13611571D01*
X18104743Y-13649667D01*
X18104743Y-13697286D01*
X18095219Y-13735381D01*
X18085695Y-13754428D01*
X18076171Y-13763952D01*
X18057124Y-13773476D01*
X18038076Y-13773476D01*
X18019029Y-13763952D01*
X18009505Y-13754428D01*
X17999981Y-13735381D01*
X17990457Y-13697286D01*
X17990457Y-13649667D01*
X17999981Y-13611571D01*
X18009505Y-13592524D01*
X18019029Y-13583000D01*
X18038076Y-13573476D01*
X18190457Y-13754428D02*
X18199981Y-13763952D01*
X18190457Y-13773476D01*
X18180933Y-13763952D01*
X18190457Y-13754428D01*
X18190457Y-13773476D01*
X18323790Y-13573476D02*
X18342838Y-13573476D01*
X18361886Y-13583000D01*
X18371410Y-13592524D01*
X18380933Y-13611571D01*
X18390457Y-13649667D01*
X18390457Y-13697286D01*
X18380933Y-13735381D01*
X18371410Y-13754428D01*
X18361886Y-13763952D01*
X18342838Y-13773476D01*
X18323790Y-13773476D01*
X18304743Y-13763952D01*
X18295219Y-13754428D01*
X18285695Y-13735381D01*
X18276171Y-13697286D01*
X18276171Y-13649667D01*
X18285695Y-13611571D01*
X18295219Y-13592524D01*
X18304743Y-13583000D01*
X18323790Y-13573476D01*
X18580933Y-13773476D02*
X18466648Y-13773476D01*
X18523790Y-13773476D02*
X18523790Y-13573476D01*
X18504743Y-13602048D01*
X18485695Y-13621095D01*
X18466648Y-13630619D01*
X18761886Y-13573476D02*
X18666648Y-13573476D01*
X18657124Y-13668714D01*
X18666648Y-13659190D01*
X18685695Y-13649667D01*
X18733314Y-13649667D01*
X18752362Y-13659190D01*
X18761886Y-13668714D01*
X18771410Y-13687762D01*
X18771410Y-13735381D01*
X18761886Y-13754428D01*
X18752362Y-13763952D01*
X18733314Y-13773476D01*
X18685695Y-13773476D01*
X18666648Y-13763952D01*
X18657124Y-13754428D01*
X18838076Y-13573476D02*
X18971410Y-13573476D01*
X18885695Y-13773476D01*
X19038076Y-13573476D02*
X19038076Y-13611571D01*
X19114267Y-13573476D02*
X19114267Y-13611571D01*
X19409505Y-13849667D02*
X19399981Y-13840143D01*
X19380933Y-13811571D01*
X19371410Y-13792524D01*
X19361886Y-13763952D01*
X19352362Y-13716333D01*
X19352362Y-13678238D01*
X19361886Y-13630619D01*
X19371410Y-13602048D01*
X19380933Y-13583000D01*
X19399981Y-13554428D01*
X19409505Y-13544905D01*
X19466648Y-13573476D02*
X19590457Y-13573476D01*
X19523790Y-13649667D01*
X19552362Y-13649667D01*
X19571410Y-13659190D01*
X19580933Y-13668714D01*
X19590457Y-13687762D01*
X19590457Y-13735381D01*
X19580933Y-13754428D01*
X19571410Y-13763952D01*
X19552362Y-13773476D01*
X19495219Y-13773476D01*
X19476171Y-13763952D01*
X19466648Y-13754428D01*
X19771410Y-13573476D02*
X19676171Y-13573476D01*
X19666648Y-13668714D01*
X19676171Y-13659190D01*
X19695219Y-13649667D01*
X19742838Y-13649667D01*
X19761886Y-13659190D01*
X19771410Y-13668714D01*
X19780933Y-13687762D01*
X19780933Y-13735381D01*
X19771410Y-13754428D01*
X19761886Y-13763952D01*
X19742838Y-13773476D01*
X19695219Y-13773476D01*
X19676171Y-13763952D01*
X19666648Y-13754428D01*
X20019029Y-13773476D02*
X20019029Y-13573476D01*
X20104743Y-13773476D02*
X20104743Y-13668714D01*
X20095219Y-13649667D01*
X20076171Y-13640143D01*
X20047600Y-13640143D01*
X20028552Y-13649667D01*
X20019029Y-13659190D01*
X20228552Y-13773476D02*
X20209505Y-13763952D01*
X20199981Y-13754428D01*
X20190457Y-13735381D01*
X20190457Y-13678238D01*
X20199981Y-13659190D01*
X20209505Y-13649667D01*
X20228552Y-13640143D01*
X20257124Y-13640143D01*
X20276171Y-13649667D01*
X20285695Y-13659190D01*
X20295219Y-13678238D01*
X20295219Y-13735381D01*
X20285695Y-13754428D01*
X20276171Y-13763952D01*
X20257124Y-13773476D01*
X20228552Y-13773476D01*
X20409505Y-13773476D02*
X20390457Y-13763952D01*
X20380933Y-13744905D01*
X20380933Y-13573476D01*
X20561886Y-13763952D02*
X20542838Y-13773476D01*
X20504743Y-13773476D01*
X20485695Y-13763952D01*
X20476171Y-13744905D01*
X20476171Y-13668714D01*
X20485695Y-13649667D01*
X20504743Y-13640143D01*
X20542838Y-13640143D01*
X20561886Y-13649667D01*
X20571410Y-13668714D01*
X20571410Y-13687762D01*
X20476171Y-13706809D01*
X20647600Y-13763952D02*
X20666648Y-13773476D01*
X20704743Y-13773476D01*
X20723790Y-13763952D01*
X20733314Y-13744905D01*
X20733314Y-13735381D01*
X20723790Y-13716333D01*
X20704743Y-13706809D01*
X20676171Y-13706809D01*
X20657124Y-13697286D01*
X20647600Y-13678238D01*
X20647600Y-13668714D01*
X20657124Y-13649667D01*
X20676171Y-13640143D01*
X20704743Y-13640143D01*
X20723790Y-13649667D01*
X20799981Y-13849667D02*
X20809505Y-13840143D01*
X20828552Y-13811571D01*
X20838076Y-13792524D01*
X20847600Y-13763952D01*
X20857124Y-13716333D01*
X20857124Y-13678238D01*
X20847600Y-13630619D01*
X20838076Y-13602048D01*
X20828552Y-13583000D01*
X20809505Y-13554428D01*
X20799981Y-13544905D01*
D13*
X15837600Y-13947000D02*
G75*
G03*
X15837600Y-13947000I-30000J0D01*
G01*
D11*
X16133314Y-13837476D02*
X16152362Y-13837476D01*
X16171409Y-13847000D01*
X16180933Y-13856524D01*
X16190457Y-13875571D01*
X16199981Y-13913667D01*
X16199981Y-13961286D01*
X16190457Y-13999381D01*
X16180933Y-14018428D01*
X16171409Y-14027952D01*
X16152362Y-14037476D01*
X16133314Y-14037476D01*
X16114267Y-14027952D01*
X16104743Y-14018428D01*
X16095219Y-13999381D01*
X16085695Y-13961286D01*
X16085695Y-13913667D01*
X16095219Y-13875571D01*
X16104743Y-13856524D01*
X16114267Y-13847000D01*
X16133314Y-13837476D01*
X16285695Y-14018428D02*
X16295219Y-14027952D01*
X16285695Y-14037476D01*
X16276171Y-14027952D01*
X16285695Y-14018428D01*
X16285695Y-14037476D01*
X16466648Y-13837476D02*
X16428552Y-13837476D01*
X16409505Y-13847000D01*
X16399981Y-13856524D01*
X16380933Y-13885095D01*
X16371409Y-13923190D01*
X16371409Y-13999381D01*
X16380933Y-14018428D01*
X16390457Y-14027952D01*
X16409505Y-14037476D01*
X16447600Y-14037476D01*
X16466648Y-14027952D01*
X16476171Y-14018428D01*
X16485695Y-13999381D01*
X16485695Y-13951762D01*
X16476171Y-13932714D01*
X16466648Y-13923190D01*
X16447600Y-13913667D01*
X16409505Y-13913667D01*
X16390457Y-13923190D01*
X16380933Y-13932714D01*
X16371409Y-13951762D01*
X16609505Y-13837476D02*
X16628552Y-13837476D01*
X16647600Y-13847000D01*
X16657124Y-13856524D01*
X16666648Y-13875571D01*
X16676171Y-13913667D01*
X16676171Y-13961286D01*
X16666648Y-13999381D01*
X16657124Y-14018428D01*
X16647600Y-14027952D01*
X16628552Y-14037476D01*
X16609505Y-14037476D01*
X16590457Y-14027952D01*
X16580933Y-14018428D01*
X16571409Y-13999381D01*
X16561886Y-13961286D01*
X16561886Y-13913667D01*
X16571409Y-13875571D01*
X16580933Y-13856524D01*
X16590457Y-13847000D01*
X16609505Y-13837476D01*
X16799981Y-13837476D02*
X16819029Y-13837476D01*
X16838076Y-13847000D01*
X16847600Y-13856524D01*
X16857124Y-13875571D01*
X16866648Y-13913667D01*
X16866648Y-13961286D01*
X16857124Y-13999381D01*
X16847600Y-14018428D01*
X16838076Y-14027952D01*
X16819029Y-14037476D01*
X16799981Y-14037476D01*
X16780933Y-14027952D01*
X16771409Y-14018428D01*
X16761886Y-13999381D01*
X16752362Y-13961286D01*
X16752362Y-13913667D01*
X16761886Y-13875571D01*
X16771409Y-13856524D01*
X16780933Y-13847000D01*
X16799981Y-13837476D01*
X16952362Y-14037476D02*
X16952362Y-13904143D01*
X16952362Y-13923190D02*
X16961886Y-13913667D01*
X16980933Y-13904143D01*
X17009505Y-13904143D01*
X17028552Y-13913667D01*
X17038076Y-13932714D01*
X17038076Y-14037476D01*
X17038076Y-13932714D02*
X17047600Y-13913667D01*
X17066648Y-13904143D01*
X17095219Y-13904143D01*
X17114267Y-13913667D01*
X17123790Y-13932714D01*
X17123790Y-14037476D01*
X17219029Y-14037476D02*
X17219029Y-13904143D01*
X17219029Y-13923190D02*
X17228552Y-13913667D01*
X17247600Y-13904143D01*
X17276171Y-13904143D01*
X17295219Y-13913667D01*
X17304743Y-13932714D01*
X17304743Y-14037476D01*
X17304743Y-13932714D02*
X17314267Y-13913667D01*
X17333314Y-13904143D01*
X17361886Y-13904143D01*
X17380933Y-13913667D01*
X17390457Y-13932714D01*
X17390457Y-14037476D01*
X17780933Y-13827952D02*
X17609505Y-14085095D01*
X18038076Y-13837476D02*
X18057124Y-13837476D01*
X18076171Y-13847000D01*
X18085695Y-13856524D01*
X18095219Y-13875571D01*
X18104743Y-13913667D01*
X18104743Y-13961286D01*
X18095219Y-13999381D01*
X18085695Y-14018428D01*
X18076171Y-14027952D01*
X18057124Y-14037476D01*
X18038076Y-14037476D01*
X18019029Y-14027952D01*
X18009505Y-14018428D01*
X17999981Y-13999381D01*
X17990457Y-13961286D01*
X17990457Y-13913667D01*
X17999981Y-13875571D01*
X18009505Y-13856524D01*
X18019029Y-13847000D01*
X18038076Y-13837476D01*
X18190457Y-14018428D02*
X18199981Y-14027952D01*
X18190457Y-14037476D01*
X18180933Y-14027952D01*
X18190457Y-14018428D01*
X18190457Y-14037476D01*
X18323790Y-13837476D02*
X18342838Y-13837476D01*
X18361886Y-13847000D01*
X18371410Y-13856524D01*
X18380933Y-13875571D01*
X18390457Y-13913667D01*
X18390457Y-13961286D01*
X18380933Y-13999381D01*
X18371410Y-14018428D01*
X18361886Y-14027952D01*
X18342838Y-14037476D01*
X18323790Y-14037476D01*
X18304743Y-14027952D01*
X18295219Y-14018428D01*
X18285695Y-13999381D01*
X18276171Y-13961286D01*
X18276171Y-13913667D01*
X18285695Y-13875571D01*
X18295219Y-13856524D01*
X18304743Y-13847000D01*
X18323790Y-13837476D01*
X18466648Y-13856524D02*
X18476171Y-13847000D01*
X18495219Y-13837476D01*
X18542838Y-13837476D01*
X18561886Y-13847000D01*
X18571410Y-13856524D01*
X18580933Y-13875571D01*
X18580933Y-13894619D01*
X18571410Y-13923190D01*
X18457124Y-14037476D01*
X18580933Y-14037476D01*
X18647600Y-13837476D02*
X18771410Y-13837476D01*
X18704743Y-13913667D01*
X18733314Y-13913667D01*
X18752362Y-13923190D01*
X18761886Y-13932714D01*
X18771410Y-13951762D01*
X18771410Y-13999381D01*
X18761886Y-14018428D01*
X18752362Y-14027952D01*
X18733314Y-14037476D01*
X18676171Y-14037476D01*
X18657124Y-14027952D01*
X18647600Y-14018428D01*
X18942838Y-13837476D02*
X18904743Y-13837476D01*
X18885695Y-13847000D01*
X18876171Y-13856524D01*
X18857124Y-13885095D01*
X18847600Y-13923190D01*
X18847600Y-13999381D01*
X18857124Y-14018428D01*
X18866648Y-14027952D01*
X18885695Y-14037476D01*
X18923790Y-14037476D01*
X18942838Y-14027952D01*
X18952362Y-14018428D01*
X18961886Y-13999381D01*
X18961886Y-13951762D01*
X18952362Y-13932714D01*
X18942838Y-13923190D01*
X18923790Y-13913667D01*
X18885695Y-13913667D01*
X18866648Y-13923190D01*
X18857124Y-13932714D01*
X18847600Y-13951762D01*
X19038076Y-13837476D02*
X19038076Y-13875571D01*
X19114267Y-13837476D02*
X19114267Y-13875571D01*
X19409505Y-14113667D02*
X19399981Y-14104143D01*
X19380933Y-14075571D01*
X19371410Y-14056524D01*
X19361886Y-14027952D01*
X19352362Y-13980333D01*
X19352362Y-13942238D01*
X19361886Y-13894619D01*
X19371410Y-13866048D01*
X19380933Y-13847000D01*
X19399981Y-13818428D01*
X19409505Y-13808905D01*
X19476171Y-13856524D02*
X19485695Y-13847000D01*
X19504743Y-13837476D01*
X19552362Y-13837476D01*
X19571410Y-13847000D01*
X19580933Y-13856524D01*
X19590457Y-13875571D01*
X19590457Y-13894619D01*
X19580933Y-13923190D01*
X19466648Y-14037476D01*
X19590457Y-14037476D01*
X19828552Y-14037476D02*
X19828552Y-13837476D01*
X19914267Y-14037476D02*
X19914267Y-13932714D01*
X19904743Y-13913667D01*
X19885695Y-13904143D01*
X19857124Y-13904143D01*
X19838076Y-13913667D01*
X19828552Y-13923190D01*
X20038076Y-14037476D02*
X20019029Y-14027952D01*
X20009505Y-14018428D01*
X19999981Y-13999381D01*
X19999981Y-13942238D01*
X20009505Y-13923190D01*
X20019029Y-13913667D01*
X20038076Y-13904143D01*
X20066648Y-13904143D01*
X20085695Y-13913667D01*
X20095219Y-13923190D01*
X20104743Y-13942238D01*
X20104743Y-13999381D01*
X20095219Y-14018428D01*
X20085695Y-14027952D01*
X20066648Y-14037476D01*
X20038076Y-14037476D01*
X20219029Y-14037476D02*
X20199981Y-14027952D01*
X20190457Y-14008905D01*
X20190457Y-13837476D01*
X20371410Y-14027952D02*
X20352362Y-14037476D01*
X20314267Y-14037476D01*
X20295219Y-14027952D01*
X20285695Y-14008905D01*
X20285695Y-13932714D01*
X20295219Y-13913667D01*
X20314267Y-13904143D01*
X20352362Y-13904143D01*
X20371410Y-13913667D01*
X20380933Y-13932714D01*
X20380933Y-13951762D01*
X20285695Y-13970809D01*
X20457124Y-14027952D02*
X20476171Y-14037476D01*
X20514267Y-14037476D01*
X20533314Y-14027952D01*
X20542838Y-14008905D01*
X20542838Y-13999381D01*
X20533314Y-13980333D01*
X20514267Y-13970809D01*
X20485695Y-13970809D01*
X20466648Y-13961286D01*
X20457124Y-13942238D01*
X20457124Y-13932714D01*
X20466648Y-13913667D01*
X20485695Y-13904143D01*
X20514267Y-13904143D01*
X20533314Y-13913667D01*
X20609505Y-14113667D02*
X20619029Y-14104143D01*
X20638076Y-14075571D01*
X20647600Y-14056524D01*
X20657124Y-14027952D01*
X20666648Y-13980333D01*
X20666648Y-13942238D01*
X20657124Y-13894619D01*
X20647600Y-13866048D01*
X20638076Y-13847000D01*
X20619029Y-13818428D01*
X20609505Y-13808905D01*
D14*
X15797600Y-14171000D02*
X15797600Y-14251000D01*
X15757600Y-14211000D02*
X15837600Y-14211000D01*
D11*
X16133314Y-14101476D02*
X16152362Y-14101476D01*
X16171409Y-14111000D01*
X16180933Y-14120524D01*
X16190457Y-14139571D01*
X16199981Y-14177667D01*
X16199981Y-14225286D01*
X16190457Y-14263381D01*
X16180933Y-14282428D01*
X16171409Y-14291952D01*
X16152362Y-14301476D01*
X16133314Y-14301476D01*
X16114267Y-14291952D01*
X16104743Y-14282428D01*
X16095219Y-14263381D01*
X16085695Y-14225286D01*
X16085695Y-14177667D01*
X16095219Y-14139571D01*
X16104743Y-14120524D01*
X16114267Y-14111000D01*
X16133314Y-14101476D01*
X16285695Y-14282428D02*
X16295219Y-14291952D01*
X16285695Y-14301476D01*
X16276171Y-14291952D01*
X16285695Y-14282428D01*
X16285695Y-14301476D01*
X16409505Y-14187190D02*
X16390457Y-14177667D01*
X16380933Y-14168143D01*
X16371409Y-14149095D01*
X16371409Y-14139571D01*
X16380933Y-14120524D01*
X16390457Y-14111000D01*
X16409505Y-14101476D01*
X16447600Y-14101476D01*
X16466648Y-14111000D01*
X16476171Y-14120524D01*
X16485695Y-14139571D01*
X16485695Y-14149095D01*
X16476171Y-14168143D01*
X16466648Y-14177667D01*
X16447600Y-14187190D01*
X16409505Y-14187190D01*
X16390457Y-14196714D01*
X16380933Y-14206238D01*
X16371409Y-14225286D01*
X16371409Y-14263381D01*
X16380933Y-14282428D01*
X16390457Y-14291952D01*
X16409505Y-14301476D01*
X16447600Y-14301476D01*
X16466648Y-14291952D01*
X16476171Y-14282428D01*
X16485695Y-14263381D01*
X16485695Y-14225286D01*
X16476171Y-14206238D01*
X16466648Y-14196714D01*
X16447600Y-14187190D01*
X16609505Y-14101476D02*
X16628552Y-14101476D01*
X16647600Y-14111000D01*
X16657124Y-14120524D01*
X16666648Y-14139571D01*
X16676171Y-14177667D01*
X16676171Y-14225286D01*
X16666648Y-14263381D01*
X16657124Y-14282428D01*
X16647600Y-14291952D01*
X16628552Y-14301476D01*
X16609505Y-14301476D01*
X16590457Y-14291952D01*
X16580933Y-14282428D01*
X16571409Y-14263381D01*
X16561886Y-14225286D01*
X16561886Y-14177667D01*
X16571409Y-14139571D01*
X16580933Y-14120524D01*
X16590457Y-14111000D01*
X16609505Y-14101476D01*
X16799981Y-14101476D02*
X16819029Y-14101476D01*
X16838076Y-14111000D01*
X16847600Y-14120524D01*
X16857124Y-14139571D01*
X16866648Y-14177667D01*
X16866648Y-14225286D01*
X16857124Y-14263381D01*
X16847600Y-14282428D01*
X16838076Y-14291952D01*
X16819029Y-14301476D01*
X16799981Y-14301476D01*
X16780933Y-14291952D01*
X16771409Y-14282428D01*
X16761886Y-14263381D01*
X16752362Y-14225286D01*
X16752362Y-14177667D01*
X16761886Y-14139571D01*
X16771409Y-14120524D01*
X16780933Y-14111000D01*
X16799981Y-14101476D01*
X16952362Y-14301476D02*
X16952362Y-14168143D01*
X16952362Y-14187190D02*
X16961886Y-14177667D01*
X16980933Y-14168143D01*
X17009505Y-14168143D01*
X17028552Y-14177667D01*
X17038076Y-14196714D01*
X17038076Y-14301476D01*
X17038076Y-14196714D02*
X17047600Y-14177667D01*
X17066648Y-14168143D01*
X17095219Y-14168143D01*
X17114267Y-14177667D01*
X17123790Y-14196714D01*
X17123790Y-14301476D01*
X17219029Y-14301476D02*
X17219029Y-14168143D01*
X17219029Y-14187190D02*
X17228552Y-14177667D01*
X17247600Y-14168143D01*
X17276171Y-14168143D01*
X17295219Y-14177667D01*
X17304743Y-14196714D01*
X17304743Y-14301476D01*
X17304743Y-14196714D02*
X17314267Y-14177667D01*
X17333314Y-14168143D01*
X17361886Y-14168143D01*
X17380933Y-14177667D01*
X17390457Y-14196714D01*
X17390457Y-14301476D01*
X17780933Y-14091952D02*
X17609505Y-14349095D01*
X18038076Y-14101476D02*
X18057124Y-14101476D01*
X18076171Y-14111000D01*
X18085695Y-14120524D01*
X18095219Y-14139571D01*
X18104743Y-14177667D01*
X18104743Y-14225286D01*
X18095219Y-14263381D01*
X18085695Y-14282428D01*
X18076171Y-14291952D01*
X18057124Y-14301476D01*
X18038076Y-14301476D01*
X18019029Y-14291952D01*
X18009505Y-14282428D01*
X17999981Y-14263381D01*
X17990457Y-14225286D01*
X17990457Y-14177667D01*
X17999981Y-14139571D01*
X18009505Y-14120524D01*
X18019029Y-14111000D01*
X18038076Y-14101476D01*
X18190457Y-14282428D02*
X18199981Y-14291952D01*
X18190457Y-14301476D01*
X18180933Y-14291952D01*
X18190457Y-14282428D01*
X18190457Y-14301476D01*
X18323790Y-14101476D02*
X18342838Y-14101476D01*
X18361886Y-14111000D01*
X18371410Y-14120524D01*
X18380933Y-14139571D01*
X18390457Y-14177667D01*
X18390457Y-14225286D01*
X18380933Y-14263381D01*
X18371410Y-14282428D01*
X18361886Y-14291952D01*
X18342838Y-14301476D01*
X18323790Y-14301476D01*
X18304743Y-14291952D01*
X18295219Y-14282428D01*
X18285695Y-14263381D01*
X18276171Y-14225286D01*
X18276171Y-14177667D01*
X18285695Y-14139571D01*
X18295219Y-14120524D01*
X18304743Y-14111000D01*
X18323790Y-14101476D01*
X18457124Y-14101476D02*
X18580933Y-14101476D01*
X18514267Y-14177667D01*
X18542838Y-14177667D01*
X18561886Y-14187190D01*
X18571410Y-14196714D01*
X18580933Y-14215762D01*
X18580933Y-14263381D01*
X18571410Y-14282428D01*
X18561886Y-14291952D01*
X18542838Y-14301476D01*
X18485695Y-14301476D01*
X18466648Y-14291952D01*
X18457124Y-14282428D01*
X18771410Y-14301476D02*
X18657124Y-14301476D01*
X18714267Y-14301476D02*
X18714267Y-14101476D01*
X18695219Y-14130048D01*
X18676171Y-14149095D01*
X18657124Y-14158619D01*
X18952362Y-14101476D02*
X18857124Y-14101476D01*
X18847600Y-14196714D01*
X18857124Y-14187190D01*
X18876171Y-14177667D01*
X18923790Y-14177667D01*
X18942838Y-14187190D01*
X18952362Y-14196714D01*
X18961886Y-14215762D01*
X18961886Y-14263381D01*
X18952362Y-14282428D01*
X18942838Y-14291952D01*
X18923790Y-14301476D01*
X18876171Y-14301476D01*
X18857124Y-14291952D01*
X18847600Y-14282428D01*
X19038076Y-14101476D02*
X19038076Y-14139571D01*
X19114267Y-14101476D02*
X19114267Y-14139571D01*
X19409505Y-14377667D02*
X19399981Y-14368143D01*
X19380933Y-14339571D01*
X19371410Y-14320524D01*
X19361886Y-14291952D01*
X19352362Y-14244333D01*
X19352362Y-14206238D01*
X19361886Y-14158619D01*
X19371410Y-14130048D01*
X19380933Y-14111000D01*
X19399981Y-14082428D01*
X19409505Y-14072905D01*
X19590457Y-14301476D02*
X19476171Y-14301476D01*
X19533314Y-14301476D02*
X19533314Y-14101476D01*
X19514267Y-14130048D01*
X19495219Y-14149095D01*
X19476171Y-14158619D01*
X19657124Y-14101476D02*
X19780933Y-14101476D01*
X19714267Y-14177667D01*
X19742838Y-14177667D01*
X19761886Y-14187190D01*
X19771410Y-14196714D01*
X19780933Y-14215762D01*
X19780933Y-14263381D01*
X19771410Y-14282428D01*
X19761886Y-14291952D01*
X19742838Y-14301476D01*
X19685695Y-14301476D01*
X19666648Y-14291952D01*
X19657124Y-14282428D01*
X19952362Y-14168143D02*
X19952362Y-14301476D01*
X19904743Y-14091952D02*
X19857124Y-14234809D01*
X19980933Y-14234809D01*
X20209505Y-14301476D02*
X20209505Y-14101476D01*
X20295219Y-14301476D02*
X20295219Y-14196714D01*
X20285695Y-14177667D01*
X20266648Y-14168143D01*
X20238076Y-14168143D01*
X20219029Y-14177667D01*
X20209505Y-14187190D01*
X20419029Y-14301476D02*
X20399981Y-14291952D01*
X20390457Y-14282428D01*
X20380933Y-14263381D01*
X20380933Y-14206238D01*
X20390457Y-14187190D01*
X20399981Y-14177667D01*
X20419029Y-14168143D01*
X20447600Y-14168143D01*
X20466648Y-14177667D01*
X20476171Y-14187190D01*
X20485695Y-14206238D01*
X20485695Y-14263381D01*
X20476171Y-14282428D01*
X20466648Y-14291952D01*
X20447600Y-14301476D01*
X20419029Y-14301476D01*
X20599981Y-14301476D02*
X20580933Y-14291952D01*
X20571410Y-14272905D01*
X20571410Y-14101476D01*
X20752362Y-14291952D02*
X20733314Y-14301476D01*
X20695219Y-14301476D01*
X20676171Y-14291952D01*
X20666648Y-14272905D01*
X20666648Y-14196714D01*
X20676171Y-14177667D01*
X20695219Y-14168143D01*
X20733314Y-14168143D01*
X20752362Y-14177667D01*
X20761886Y-14196714D01*
X20761886Y-14215762D01*
X20666648Y-14234809D01*
X20838076Y-14291952D02*
X20857124Y-14301476D01*
X20895219Y-14301476D01*
X20914267Y-14291952D01*
X20923790Y-14272905D01*
X20923790Y-14263381D01*
X20914267Y-14244333D01*
X20895219Y-14234809D01*
X20866648Y-14234809D01*
X20847600Y-14225286D01*
X20838076Y-14206238D01*
X20838076Y-14196714D01*
X20847600Y-14177667D01*
X20866648Y-14168143D01*
X20895219Y-14168143D01*
X20914267Y-14177667D01*
X20990457Y-14377667D02*
X20999981Y-14368143D01*
X21019029Y-14339571D01*
X21028552Y-14320524D01*
X21038076Y-14291952D01*
X21047600Y-14244333D01*
X21047600Y-14206238D01*
X21038076Y-14158619D01*
X21028552Y-14130048D01*
X21019029Y-14111000D01*
X20999981Y-14082428D01*
X20990457Y-14072905D01*
D10*
X15822956Y-14510356D02*
X15822956Y-14439644D01*
X15752244Y-14439644D01*
X15752244Y-14510356D01*
X15822956Y-14510356D01*
D11*
X16199981Y-14565476D02*
X16085695Y-14565476D01*
X16142838Y-14565476D02*
X16142838Y-14365476D01*
X16123790Y-14394048D01*
X16104743Y-14413095D01*
X16085695Y-14422619D01*
X16285695Y-14546428D02*
X16295219Y-14555952D01*
X16285695Y-14565476D01*
X16276171Y-14555952D01*
X16285695Y-14546428D01*
X16285695Y-14565476D01*
X16419028Y-14365476D02*
X16438076Y-14365476D01*
X16457124Y-14375000D01*
X16466648Y-14384524D01*
X16476171Y-14403571D01*
X16485695Y-14441667D01*
X16485695Y-14489286D01*
X16476171Y-14527381D01*
X16466648Y-14546428D01*
X16457124Y-14555952D01*
X16438076Y-14565476D01*
X16419028Y-14565476D01*
X16399981Y-14555952D01*
X16390457Y-14546428D01*
X16380933Y-14527381D01*
X16371409Y-14489286D01*
X16371409Y-14441667D01*
X16380933Y-14403571D01*
X16390457Y-14384524D01*
X16399981Y-14375000D01*
X16419028Y-14365476D01*
X16609505Y-14365476D02*
X16628552Y-14365476D01*
X16647600Y-14375000D01*
X16657124Y-14384524D01*
X16666648Y-14403571D01*
X16676171Y-14441667D01*
X16676171Y-14489286D01*
X16666648Y-14527381D01*
X16657124Y-14546428D01*
X16647600Y-14555952D01*
X16628552Y-14565476D01*
X16609505Y-14565476D01*
X16590457Y-14555952D01*
X16580933Y-14546428D01*
X16571409Y-14527381D01*
X16561886Y-14489286D01*
X16561886Y-14441667D01*
X16571409Y-14403571D01*
X16580933Y-14384524D01*
X16590457Y-14375000D01*
X16609505Y-14365476D01*
X16799981Y-14365476D02*
X16819029Y-14365476D01*
X16838076Y-14375000D01*
X16847600Y-14384524D01*
X16857124Y-14403571D01*
X16866648Y-14441667D01*
X16866648Y-14489286D01*
X16857124Y-14527381D01*
X16847600Y-14546428D01*
X16838076Y-14555952D01*
X16819029Y-14565476D01*
X16799981Y-14565476D01*
X16780933Y-14555952D01*
X16771409Y-14546428D01*
X16761886Y-14527381D01*
X16752362Y-14489286D01*
X16752362Y-14441667D01*
X16761886Y-14403571D01*
X16771409Y-14384524D01*
X16780933Y-14375000D01*
X16799981Y-14365476D01*
X16952362Y-14565476D02*
X16952362Y-14432143D01*
X16952362Y-14451190D02*
X16961886Y-14441667D01*
X16980933Y-14432143D01*
X17009505Y-14432143D01*
X17028552Y-14441667D01*
X17038076Y-14460714D01*
X17038076Y-14565476D01*
X17038076Y-14460714D02*
X17047600Y-14441667D01*
X17066648Y-14432143D01*
X17095219Y-14432143D01*
X17114267Y-14441667D01*
X17123790Y-14460714D01*
X17123790Y-14565476D01*
X17219029Y-14565476D02*
X17219029Y-14432143D01*
X17219029Y-14451190D02*
X17228552Y-14441667D01*
X17247600Y-14432143D01*
X17276171Y-14432143D01*
X17295219Y-14441667D01*
X17304743Y-14460714D01*
X17304743Y-14565476D01*
X17304743Y-14460714D02*
X17314267Y-14441667D01*
X17333314Y-14432143D01*
X17361886Y-14432143D01*
X17380933Y-14441667D01*
X17390457Y-14460714D01*
X17390457Y-14565476D01*
X17780933Y-14355952D02*
X17609505Y-14613095D01*
X18038076Y-14365476D02*
X18057124Y-14365476D01*
X18076171Y-14375000D01*
X18085695Y-14384524D01*
X18095219Y-14403571D01*
X18104743Y-14441667D01*
X18104743Y-14489286D01*
X18095219Y-14527381D01*
X18085695Y-14546428D01*
X18076171Y-14555952D01*
X18057124Y-14565476D01*
X18038076Y-14565476D01*
X18019029Y-14555952D01*
X18009505Y-14546428D01*
X17999981Y-14527381D01*
X17990457Y-14489286D01*
X17990457Y-14441667D01*
X17999981Y-14403571D01*
X18009505Y-14384524D01*
X18019029Y-14375000D01*
X18038076Y-14365476D01*
X18190457Y-14546428D02*
X18199981Y-14555952D01*
X18190457Y-14565476D01*
X18180933Y-14555952D01*
X18190457Y-14546428D01*
X18190457Y-14565476D01*
X18323790Y-14365476D02*
X18342838Y-14365476D01*
X18361886Y-14375000D01*
X18371410Y-14384524D01*
X18380933Y-14403571D01*
X18390457Y-14441667D01*
X18390457Y-14489286D01*
X18380933Y-14527381D01*
X18371410Y-14546428D01*
X18361886Y-14555952D01*
X18342838Y-14565476D01*
X18323790Y-14565476D01*
X18304743Y-14555952D01*
X18295219Y-14546428D01*
X18285695Y-14527381D01*
X18276171Y-14489286D01*
X18276171Y-14441667D01*
X18285695Y-14403571D01*
X18295219Y-14384524D01*
X18304743Y-14375000D01*
X18323790Y-14365476D01*
X18457124Y-14365476D02*
X18580933Y-14365476D01*
X18514267Y-14441667D01*
X18542838Y-14441667D01*
X18561886Y-14451190D01*
X18571410Y-14460714D01*
X18580933Y-14479762D01*
X18580933Y-14527381D01*
X18571410Y-14546428D01*
X18561886Y-14555952D01*
X18542838Y-14565476D01*
X18485695Y-14565476D01*
X18466648Y-14555952D01*
X18457124Y-14546428D01*
X18676171Y-14565476D02*
X18714267Y-14565476D01*
X18733314Y-14555952D01*
X18742838Y-14546428D01*
X18761886Y-14517857D01*
X18771410Y-14479762D01*
X18771410Y-14403571D01*
X18761886Y-14384524D01*
X18752362Y-14375000D01*
X18733314Y-14365476D01*
X18695219Y-14365476D01*
X18676171Y-14375000D01*
X18666648Y-14384524D01*
X18657124Y-14403571D01*
X18657124Y-14451190D01*
X18666648Y-14470238D01*
X18676171Y-14479762D01*
X18695219Y-14489286D01*
X18733314Y-14489286D01*
X18752362Y-14479762D01*
X18761886Y-14470238D01*
X18771410Y-14451190D01*
X18942838Y-14432143D02*
X18942838Y-14565476D01*
X18895219Y-14355952D02*
X18847600Y-14498809D01*
X18971410Y-14498809D01*
X19038076Y-14365476D02*
X19038076Y-14403571D01*
X19114267Y-14365476D02*
X19114267Y-14403571D01*
X19409505Y-14641667D02*
X19399981Y-14632143D01*
X19380933Y-14603571D01*
X19371410Y-14584524D01*
X19361886Y-14555952D01*
X19352362Y-14508333D01*
X19352362Y-14470238D01*
X19361886Y-14422619D01*
X19371410Y-14394048D01*
X19380933Y-14375000D01*
X19399981Y-14346428D01*
X19409505Y-14336905D01*
X19466648Y-14365476D02*
X19590457Y-14365476D01*
X19523790Y-14441667D01*
X19552362Y-14441667D01*
X19571410Y-14451190D01*
X19580933Y-14460714D01*
X19590457Y-14479762D01*
X19590457Y-14527381D01*
X19580933Y-14546428D01*
X19571410Y-14555952D01*
X19552362Y-14565476D01*
X19495219Y-14565476D01*
X19476171Y-14555952D01*
X19466648Y-14546428D01*
X19714267Y-14365476D02*
X19733314Y-14365476D01*
X19752362Y-14375000D01*
X19761886Y-14384524D01*
X19771410Y-14403571D01*
X19780933Y-14441667D01*
X19780933Y-14489286D01*
X19771410Y-14527381D01*
X19761886Y-14546428D01*
X19752362Y-14555952D01*
X19733314Y-14565476D01*
X19714267Y-14565476D01*
X19695219Y-14555952D01*
X19685695Y-14546428D01*
X19676171Y-14527381D01*
X19666648Y-14489286D01*
X19666648Y-14441667D01*
X19676171Y-14403571D01*
X19685695Y-14384524D01*
X19695219Y-14375000D01*
X19714267Y-14365476D01*
X20019029Y-14565476D02*
X20019029Y-14365476D01*
X20104743Y-14565476D02*
X20104743Y-14460714D01*
X20095219Y-14441667D01*
X20076171Y-14432143D01*
X20047600Y-14432143D01*
X20028552Y-14441667D01*
X20019029Y-14451190D01*
X20228552Y-14565476D02*
X20209505Y-14555952D01*
X20199981Y-14546428D01*
X20190457Y-14527381D01*
X20190457Y-14470238D01*
X20199981Y-14451190D01*
X20209505Y-14441667D01*
X20228552Y-14432143D01*
X20257124Y-14432143D01*
X20276171Y-14441667D01*
X20285695Y-14451190D01*
X20295219Y-14470238D01*
X20295219Y-14527381D01*
X20285695Y-14546428D01*
X20276171Y-14555952D01*
X20257124Y-14565476D01*
X20228552Y-14565476D01*
X20409505Y-14565476D02*
X20390457Y-14555952D01*
X20380933Y-14536905D01*
X20380933Y-14365476D01*
X20561886Y-14555952D02*
X20542838Y-14565476D01*
X20504743Y-14565476D01*
X20485695Y-14555952D01*
X20476171Y-14536905D01*
X20476171Y-14460714D01*
X20485695Y-14441667D01*
X20504743Y-14432143D01*
X20542838Y-14432143D01*
X20561886Y-14441667D01*
X20571410Y-14460714D01*
X20571410Y-14479762D01*
X20476171Y-14498809D01*
X20647600Y-14555952D02*
X20666648Y-14565476D01*
X20704743Y-14565476D01*
X20723790Y-14555952D01*
X20733314Y-14536905D01*
X20733314Y-14527381D01*
X20723790Y-14508333D01*
X20704743Y-14498809D01*
X20676171Y-14498809D01*
X20657124Y-14489286D01*
X20647600Y-14470238D01*
X20647600Y-14460714D01*
X20657124Y-14441667D01*
X20676171Y-14432143D01*
X20704743Y-14432143D01*
X20723790Y-14441667D01*
X20799981Y-14641667D02*
X20809505Y-14632143D01*
X20828552Y-14603571D01*
X20838076Y-14584524D01*
X20847600Y-14555952D01*
X20857124Y-14508333D01*
X20857124Y-14470238D01*
X20847600Y-14422619D01*
X20838076Y-14394048D01*
X20828552Y-14375000D01*
X20809505Y-14346428D01*
X20799981Y-14336905D01*
M02*
